G04*
G04 #@! TF.GenerationSoftware,Altium Limited,Altium Designer,24.1.2 (44)*
G04*
G04 Layer_Color=128*
%FSLAX24Y24*%
%MOIN*%
G70*
G04*
G04 #@! TF.SameCoordinates,E58B8CFC-B59F-40A7-A0C9-9F9E0F661D6A*
G04*
G04*
G04 #@! TF.FilePolarity,Positive*
G04*
G01*
G75*
%ADD16C,0.0050*%
D16*
X65471Y40521D02*
X66731D01*
X66101Y39891D02*
Y41151D01*
X65471Y30679D02*
X66731D01*
X66101Y30049D02*
Y31309D01*
X66445Y33964D02*
X66874D01*
X66660Y33750D02*
Y34179D01*
X66445Y35055D02*
X66874D01*
X66660Y34840D02*
Y35269D01*
X66445Y36145D02*
X66874D01*
X66660Y35931D02*
Y36360D01*
X66445Y37236D02*
X66874D01*
X66660Y37021D02*
Y37450D01*
X65327Y36691D02*
X65756D01*
X65542Y36476D02*
Y36905D01*
X65327Y37781D02*
X65756D01*
X65542Y37567D02*
Y37996D01*
X65327Y33419D02*
X65756D01*
X65542Y33204D02*
Y33633D01*
X65327Y34509D02*
X65756D01*
X65542Y34295D02*
Y34724D01*
X65327Y35600D02*
X65756D01*
X65542Y35385D02*
Y35815D01*
X53473Y30450D02*
X53827D01*
X53650Y30273D02*
Y30627D01*
X52473Y30450D02*
X52827D01*
X52650Y30273D02*
Y30627D01*
X51473Y30450D02*
X51827D01*
X51650Y30273D02*
Y30627D01*
X50473Y30450D02*
X50827D01*
X50650Y30273D02*
Y30627D01*
X65244Y48550D02*
X65756D01*
X65500Y48294D02*
Y48806D01*
X65244Y46550D02*
X65756D01*
X65500Y46294D02*
Y46806D01*
X43176Y37100D02*
X43491D01*
X43333Y36943D02*
Y37257D01*
X40893Y37100D02*
X41207D01*
X41050Y36943D02*
Y37257D01*
X41995Y35210D02*
X42310D01*
X42152Y35053D02*
Y35368D01*
X42144Y31100D02*
X42656D01*
X42400Y30844D02*
Y31356D01*
X42144Y33100D02*
X42656D01*
X42400Y32844D02*
Y33356D01*
X52400Y47100D02*
X52700D01*
X52550Y46950D02*
Y47250D01*
X51400Y47100D02*
X51700D01*
X51550Y46950D02*
Y47250D01*
X50400Y47100D02*
X50700D01*
X50550Y46950D02*
Y47250D01*
X49400Y47100D02*
X49700D01*
X49550Y46950D02*
Y47250D01*
X47400Y47100D02*
X47700D01*
X47550Y46950D02*
Y47250D01*
X46400Y47100D02*
X46700D01*
X46550Y46950D02*
Y47250D01*
X45400Y47100D02*
X45700D01*
X45550Y46950D02*
Y47250D01*
X44260Y40306D02*
X44693D01*
X44476Y40090D02*
Y40523D01*
X41307Y41094D02*
X41740D01*
X41524Y40877D02*
Y41310D01*
X45314Y37900D02*
X45786D01*
X45550Y37664D02*
Y38136D01*
X45314Y35900D02*
X45786D01*
X45550Y35664D02*
Y36136D01*
X58103Y33516D02*
X58497D01*
X58300Y33319D02*
Y33713D01*
X58103Y35484D02*
X58497D01*
X58300Y35287D02*
Y35681D01*
X46873Y39500D02*
X47227D01*
X47050Y39323D02*
Y39677D01*
X47873Y39500D02*
X48227D01*
X48050Y39323D02*
Y39677D01*
X48873Y39500D02*
X49227D01*
X49050Y39323D02*
Y39677D01*
X49873Y39500D02*
X50227D01*
X50050Y39323D02*
Y39677D01*
X44161Y46650D02*
X44239D01*
X44200Y46611D02*
Y46689D01*
X44061Y42750D02*
X44139D01*
X44100Y42711D02*
Y42789D01*
X57811Y39400D02*
X57889D01*
X57850Y39361D02*
Y39439D01*
X59761Y34500D02*
X59839D01*
X59800Y34461D02*
Y34539D01*
X64111Y34200D02*
X64189D01*
X64150Y34161D02*
Y34239D01*
X52361Y35950D02*
X52439D01*
X52400Y35911D02*
Y35989D01*
X47261Y35200D02*
X47339D01*
X47300Y35161D02*
Y35239D01*
X38511Y35150D02*
X38589D01*
X38550Y35111D02*
Y35189D01*
X47511Y29850D02*
X47589D01*
X47550Y29811D02*
Y29889D01*
X38511Y29800D02*
X38589D01*
X38550Y29761D02*
Y29839D01*
X38511Y49500D02*
X38589D01*
X38550Y49461D02*
Y49539D01*
X47511Y49550D02*
X47589D01*
X47550Y49511D02*
Y49589D01*
X54861Y29900D02*
X54939D01*
X54900Y29861D02*
Y29939D01*
X68711Y29950D02*
X68789D01*
X68750Y29911D02*
Y29989D01*
X63011Y30000D02*
X63089D01*
X63050Y29961D02*
Y30039D01*
X68611Y39250D02*
X68689D01*
X68650Y39211D02*
Y39289D01*
X62911Y39300D02*
X62989D01*
X62950Y39261D02*
Y39339D01*
X68611Y41300D02*
X68689D01*
X68650Y41261D02*
Y41339D01*
X62911Y41350D02*
X62989D01*
X62950Y41311D02*
Y41389D01*
X54761Y41350D02*
X54839D01*
X54800Y41311D02*
Y41389D01*
X49761Y41350D02*
X49839D01*
X49800Y41311D02*
Y41389D01*
X62911Y49600D02*
X62989D01*
X62950Y49561D02*
Y49639D01*
X54761Y49600D02*
X54839D01*
X54800Y49561D02*
Y49639D01*
X49761Y49600D02*
X49839D01*
X49800Y49561D02*
Y49639D01*
X49761Y43400D02*
X49839D01*
X49800Y43361D02*
Y43439D01*
X54761Y43400D02*
X54839D01*
X54800Y43361D02*
Y43439D01*
X62911Y43400D02*
X62989D01*
X62950Y43361D02*
Y43439D01*
X68611Y43350D02*
X68689D01*
X68650Y43311D02*
Y43389D01*
X45961Y31600D02*
X46039D01*
X46000Y31561D02*
Y31639D01*
X56561Y32900D02*
X56639D01*
X56600Y32861D02*
Y32939D01*
X54911Y31300D02*
X54989D01*
X54950Y31261D02*
Y31339D01*
X55206Y32155D02*
X55285D01*
X55245Y32115D02*
Y32194D01*
X55812Y30752D02*
X55891D01*
X55852Y30712D02*
Y30791D01*
X55818Y35042D02*
X55897D01*
X55858Y35003D02*
Y35082D01*
X55812Y34648D02*
X55891D01*
X55852Y34609D02*
Y34688D01*
X64811Y33900D02*
X64889D01*
X64850Y33861D02*
Y33939D01*
X63361Y33550D02*
X63439D01*
X63400Y33511D02*
Y33589D01*
X64161Y36400D02*
X64239D01*
X64200Y36361D02*
Y36439D01*
X52561Y32950D02*
X52639D01*
X52600Y32911D02*
Y32989D01*
X53611Y32900D02*
X53689D01*
X53650Y32861D02*
Y32939D01*
X53257Y37796D02*
X53336D01*
X53296Y37757D02*
Y37836D01*
X53257Y32454D02*
X53336D01*
X53296Y32414D02*
Y32493D01*
M02*
