G04*
G04 #@! TF.GenerationSoftware,Altium Limited,Altium Designer,24.1.2 (44)*
G04*
G04 Layer_Color=65535*
%FSLAX24Y24*%
%MOIN*%
G70*
G04*
G04 #@! TF.SameCoordinates,E58B8CFC-B59F-40A7-A0C9-9F9E0F661D6A*
G04*
G04*
G04 #@! TF.FilePolarity,Positive*
G04*
G01*
G75*
%ADD10C,0.0098*%
%ADD11C,0.0197*%
%ADD12C,0.0100*%
%ADD13C,0.0236*%
%ADD14C,0.0079*%
%ADD15C,0.0060*%
%ADD16C,0.0050*%
%ADD17C,0.0070*%
%ADD18C,0.0030*%
D10*
X55699Y39756D02*
G03*
X55699Y39756I-49J0D01*
G01*
X46206Y34200D02*
G03*
X46206Y34200I-49J0D01*
G01*
X56653Y33192D02*
G03*
X56653Y33192I-49J0D01*
G01*
D11*
X55628Y41136D02*
G03*
X55628Y41136I-98J0D01*
G01*
X47635Y34320D02*
G03*
X47635Y34320I-98J0D01*
G01*
X38700Y44150D02*
X40200D01*
X61450Y47900D02*
X62950D01*
D12*
X41839Y48815D02*
G03*
X41829Y46388I301J-1215D01*
G01*
X42460Y46390D02*
G03*
X42462Y48809I-320J1210D01*
G01*
X41839Y44915D02*
G03*
X41829Y42488I301J-1215D01*
G01*
X42460Y42490D02*
G03*
X42462Y44909I-320J1210D01*
G01*
X44650Y39800D02*
G03*
X44650Y41600I-200J900D01*
G01*
X41350D02*
G03*
X41350Y39800I200J-900D01*
G01*
X46300Y37900D02*
G03*
X44800Y37900I-750J0D01*
G01*
Y35900D02*
G03*
X46300Y35900I750J0D01*
G01*
X59270Y35726D02*
G03*
X57330Y35726I-970J0D01*
G01*
X57334Y33266D02*
G03*
X59274Y33266I970J0D01*
G01*
X46400Y38610D02*
G03*
X46400Y38610I-41J0D01*
G01*
X46450Y38600D02*
G03*
X46450Y38600I-100J0D01*
G01*
X55660Y46440D02*
G03*
X55662Y48859I-320J1210D01*
G01*
X55039Y48865D02*
G03*
X55029Y46438I301J-1215D01*
G01*
X50960Y35640D02*
G03*
X50962Y38059I-320J1210D01*
G01*
X50339Y38065D02*
G03*
X50329Y35638I301J-1215D01*
G01*
X67468Y47556D02*
X69950D01*
X67469Y45400D02*
X69950D01*
X67469Y49650D02*
X69950D01*
X63531Y45400D02*
Y49650D01*
X67469Y45400D02*
Y49650D01*
X63531Y45400D02*
X67469D01*
X63531Y49650D02*
X67469D01*
X38000Y34250D02*
X40431D01*
X38000Y30000D02*
X40431D01*
X42480Y47170D02*
X43310D01*
X40970D02*
X41820D01*
X42450Y46310D02*
X43460D01*
X40850D02*
X41830D01*
X42460Y48899D02*
X43030D01*
X41260D02*
X41850D01*
X40840Y46320D02*
Y48490D01*
X43039Y48899D02*
X43040Y48900D01*
X40840Y48490D02*
X41150Y48800D01*
X41249Y48899D01*
X43051D02*
X43150Y48800D01*
X43460Y48490D01*
Y46320D02*
Y48490D01*
X41550Y47980D02*
Y48430D01*
X41290Y48200D02*
X41780D01*
X42480Y43270D02*
X43310D01*
X40970D02*
X41820D01*
X42450Y42410D02*
X43460D01*
X40850D02*
X41830D01*
X42460Y44999D02*
X43030D01*
X41260D02*
X41850D01*
X40840Y42420D02*
Y44590D01*
X43039Y44999D02*
X43040Y45000D01*
X40840Y44590D02*
X41150Y44900D01*
X41249Y44999D01*
X43051D02*
X43150Y44900D01*
X43460Y44590D01*
Y42420D02*
Y44590D01*
X41550Y44080D02*
Y44530D01*
X41290Y44300D02*
X41780D01*
X44369Y30000D02*
Y34250D01*
X40431Y30000D02*
Y34250D01*
X44369D01*
X40431Y30000D02*
X44369D01*
X45950Y32650D02*
Y34650D01*
X44950Y32650D02*
X45950D01*
X44950D02*
Y34650D01*
X45950D01*
X41350Y39800D02*
X44650D01*
X41350Y41600D02*
X44650D01*
X44800Y35900D02*
Y37900D01*
X46300Y35900D02*
Y37900D01*
X59274Y33266D02*
Y35696D01*
X57330Y33226D02*
Y35726D01*
X46250Y41700D02*
X50850D01*
Y38800D02*
Y41700D01*
X46250Y38800D02*
X50850D01*
X46250D02*
Y41700D01*
X38650Y45135D02*
X40250D01*
Y45070D02*
Y45200D01*
X38650D02*
X40250D01*
X38650Y45070D02*
Y45200D01*
Y42540D02*
X40250D01*
Y45070D01*
X38650Y42540D02*
Y45070D01*
X40250D01*
X54490Y48250D02*
X54980D01*
X54750Y48030D02*
Y48480D01*
X56660Y46370D02*
Y48540D01*
X56350Y48850D02*
X56660Y48540D01*
X56251Y48949D02*
X56350Y48850D01*
X54350D02*
X54449Y48949D01*
X54040Y48540D02*
X54350Y48850D01*
X56239Y48949D02*
X56240Y48950D01*
X54040Y46370D02*
Y48540D01*
X54460Y48949D02*
X55050D01*
X55660D02*
X56230D01*
X54050Y46360D02*
X55030D01*
X55650D02*
X56660D01*
X54170Y47220D02*
X55020D01*
X55680D02*
X56510D01*
X49790Y37450D02*
X50280D01*
X50050Y37230D02*
Y37680D01*
X51960Y35570D02*
Y37740D01*
X51650Y38050D02*
X51960Y37740D01*
X51551Y38149D02*
X51650Y38050D01*
X49650D02*
X49749Y38149D01*
X49340Y37740D02*
X49650Y38050D01*
X51539Y38149D02*
X51540Y38150D01*
X49340Y35570D02*
Y37740D01*
X49760Y38149D02*
X50350D01*
X50960D02*
X51530D01*
X49350Y35560D02*
X50330D01*
X50950D02*
X51960D01*
X49470Y36420D02*
X50320D01*
X50980D02*
X51810D01*
X61400Y48885D02*
X63000D01*
Y48820D02*
Y48950D01*
X61400D02*
X63000D01*
X61400Y48820D02*
Y48950D01*
Y46290D02*
X63000D01*
Y48820D01*
X61400Y46290D02*
Y48820D01*
X63000D01*
X49800Y30100D02*
X49997D01*
X49898D01*
Y30690D01*
X49800Y30592D01*
D13*
X55796Y33822D02*
G03*
X55796Y33822I-118J0D01*
G01*
D14*
X64959Y29537D02*
Y41663D01*
X69841D01*
Y29537D02*
Y41663D01*
X64959Y29537D02*
X69841D01*
X50150Y29950D02*
Y30950D01*
X54150D01*
X50150Y29950D02*
X54150D01*
Y30950D01*
X55199Y40809D02*
Y43491D01*
X57101D01*
Y40809D02*
Y43491D01*
X55199Y40809D02*
X57101D01*
X47209Y34651D02*
X49891D01*
Y32749D02*
Y34651D01*
X47209Y32749D02*
X49891D01*
X47209D02*
Y34651D01*
X43058Y35328D02*
X43688D01*
X37979D02*
X41247D01*
X43688D02*
Y36194D01*
Y38006D02*
Y38872D01*
X37979Y35328D02*
Y38872D01*
X43688D01*
X56072Y33428D02*
Y35672D01*
X53828Y33428D02*
Y35672D01*
Y33428D02*
X56072D01*
X53828Y35672D02*
X56072D01*
X62568Y32784D02*
X63168D01*
X62430Y32851D02*
Y36749D01*
X61170D02*
X62430D01*
X61170Y32851D02*
Y36749D01*
Y32851D02*
X62430D01*
D15*
X60577Y44655D02*
Y45054D01*
X58773Y44655D02*
Y45054D01*
X60227Y44655D02*
Y45054D01*
X58423Y44655D02*
Y45054D01*
X44700Y44750D02*
Y48450D01*
X53400D01*
Y44750D02*
Y48450D01*
X44700Y44750D02*
X53400D01*
D16*
X45220Y30820D02*
Y31830D01*
X45680Y30820D02*
Y31830D01*
X45220D02*
X45680D01*
X45220Y30820D02*
X45680D01*
X43970Y47770D02*
Y48780D01*
X44430Y47770D02*
Y48780D01*
X43970D02*
X44430D01*
X43970Y47770D02*
X44430D01*
X56180Y31020D02*
Y32030D01*
X55720Y31020D02*
Y32030D01*
Y31020D02*
X56180D01*
X55720Y32030D02*
X56180D01*
X55480Y30520D02*
Y31530D01*
X55020Y30520D02*
Y31530D01*
Y30520D02*
X55480D01*
X55020Y31530D02*
X55480D01*
X64270Y34130D02*
X64730D01*
X64270Y33120D02*
X64730D01*
X64270D02*
Y34130D01*
X64730Y33120D02*
Y34130D01*
X64270Y35280D02*
X64730D01*
X64270Y34270D02*
X64730D01*
X64270D02*
Y35280D01*
X64730Y34270D02*
Y35280D01*
X51220Y33420D02*
Y34430D01*
X51680Y33420D02*
Y34430D01*
X51220D02*
X51680D01*
X51220Y33420D02*
X51680D01*
X51920D02*
X52380D01*
X51920Y34430D02*
X52380D01*
Y33420D02*
Y34430D01*
X51920Y33420D02*
Y34430D01*
X54420Y37220D02*
Y38230D01*
X54880Y37220D02*
Y38230D01*
X54420D02*
X54880D01*
X54420Y37220D02*
X54880D01*
X58820Y32030D02*
X59280D01*
X58820Y31020D02*
X59280D01*
X58820D02*
Y32030D01*
X59280Y31020D02*
Y32030D01*
X63570Y33120D02*
X64030D01*
X63570Y34130D02*
X64030D01*
Y33120D02*
Y34130D01*
X63570Y33120D02*
Y34130D01*
Y34270D02*
X64030D01*
X63570Y35280D02*
X64030D01*
Y34270D02*
Y35280D01*
X63570Y34270D02*
Y35280D01*
X59570Y34280D02*
X60030D01*
X59570Y33270D02*
X60030D01*
X59570D02*
Y34280D01*
X60030Y33270D02*
Y34280D01*
X59570Y34670D02*
X60030D01*
X59570Y35680D02*
X60030D01*
Y34670D02*
Y35680D01*
X59570Y34670D02*
Y35680D01*
X56370Y31020D02*
X56830D01*
X56370Y32030D02*
X56830D01*
Y31020D02*
Y32030D01*
X56370Y31020D02*
Y32030D01*
X57070Y47770D02*
X57530D01*
X57070Y48780D02*
X57530D01*
Y47770D02*
Y48780D01*
X57070Y47770D02*
Y48780D01*
X52170Y37020D02*
X52630D01*
X52170Y38030D02*
X52630D01*
Y37020D02*
Y38030D01*
X52170Y37020D02*
Y38030D01*
X43870Y43870D02*
X44330D01*
X43870Y44880D02*
X44330D01*
Y43870D02*
Y44880D01*
X43870Y43870D02*
Y44880D01*
X55420Y37170D02*
Y38180D01*
X55880Y37170D02*
Y38180D01*
X55420D02*
X55880D01*
X55420Y37170D02*
X55880D01*
X57070Y45470D02*
Y46480D01*
X57530Y45470D02*
Y46480D01*
X57070D02*
X57530D01*
X57070Y45470D02*
X57530D01*
X64200Y41400D02*
X64150Y41450D01*
X64050D01*
X64000Y41400D01*
Y41200D01*
X64050Y41150D01*
X64150D01*
X64200Y41200D01*
X64300Y41150D02*
Y41450D01*
X64500Y41150D01*
Y41450D01*
X64750Y41150D02*
Y41450D01*
X64600Y41300D01*
X64800D01*
X50125Y31400D02*
X50225D01*
X50175D01*
Y31100D01*
X50125D01*
X50225D01*
X50575Y31350D02*
X50525Y31400D01*
X50425D01*
X50375Y31350D01*
Y31150D01*
X50425Y31100D01*
X50525D01*
X50575Y31150D01*
X50875Y31350D02*
X50825Y31400D01*
X50725D01*
X50675Y31350D01*
Y31300D01*
X50725Y31250D01*
X50825D01*
X50875Y31200D01*
Y31150D01*
X50825Y31100D01*
X50725D01*
X50675Y31150D01*
X50975Y31100D02*
Y31400D01*
X51125D01*
X51175Y31350D01*
Y31250D01*
X51125Y31200D01*
X50975D01*
X54450Y41250D02*
Y41000D01*
X54500Y40950D01*
X54600D01*
X54650Y41000D01*
Y41250D01*
X54950D02*
X54750D01*
Y41100D01*
X54850Y41150D01*
X54900D01*
X54950Y41100D01*
Y41000D01*
X54900Y40950D01*
X54800D01*
X54750Y41000D01*
X58300Y48300D02*
Y48500D01*
X58250Y48550D01*
X58150D01*
X58100Y48500D01*
Y48300D01*
X58150Y48250D01*
X58250D01*
X58200Y48350D02*
X58300Y48250D01*
X58250D02*
X58300Y48300D01*
X58400Y48250D02*
X58500D01*
X58450D01*
Y48550D01*
X58400Y48500D01*
X47650Y35150D02*
Y34900D01*
X47700Y34850D01*
X47800D01*
X47850Y34900D01*
Y35150D01*
X48100Y34850D02*
Y35150D01*
X47950Y35000D01*
X48150D01*
X41050Y49400D02*
X41000Y49450D01*
X40900D01*
X40850Y49400D01*
Y49200D01*
X40900Y49150D01*
X41000D01*
X41050Y49200D01*
X41350Y49150D02*
X41150D01*
X41350Y49350D01*
Y49400D01*
X41300Y49450D01*
X41200D01*
X41150Y49400D01*
X41050Y45500D02*
X41000Y45550D01*
X40900D01*
X40850Y45500D01*
Y45300D01*
X40900Y45250D01*
X41000D01*
X41050Y45300D01*
X41350Y45550D02*
X41250Y45500D01*
X41150Y45400D01*
Y45300D01*
X41200Y45250D01*
X41300D01*
X41350Y45300D01*
Y45350D01*
X41300Y45400D01*
X41150D01*
X44700Y30200D02*
X44650Y30250D01*
X44550D01*
X44500Y30200D01*
Y30000D01*
X44550Y29950D01*
X44650D01*
X44700Y30000D01*
X44800Y29950D02*
Y30250D01*
X45000Y29950D01*
Y30250D01*
X45300Y29950D02*
X45100D01*
X45300Y30150D01*
Y30200D01*
X45250Y30250D01*
X45150D01*
X45100Y30200D01*
X46025Y31350D02*
X45975Y31400D01*
X45875D01*
X45825Y31350D01*
Y31150D01*
X45875Y31100D01*
X45975D01*
X46025Y31150D01*
X46125Y31100D02*
X46225D01*
X46175D01*
Y31400D01*
X46125Y31350D01*
X46375D02*
X46425Y31400D01*
X46525D01*
X46575Y31350D01*
Y31150D01*
X46525Y31100D01*
X46425D01*
X46375Y31150D01*
Y31350D01*
X45200Y32150D02*
Y32450D01*
X45350D01*
X45400Y32400D01*
Y32300D01*
X45350Y32250D01*
X45200D01*
X45300D02*
X45400Y32150D01*
X45500Y32400D02*
X45550Y32450D01*
X45650D01*
X45700Y32400D01*
Y32350D01*
X45650Y32300D01*
X45600D01*
X45650D01*
X45700Y32250D01*
Y32200D01*
X45650Y32150D01*
X45550D01*
X45500Y32200D01*
X44150Y49250D02*
X44100Y49300D01*
X44000D01*
X43950Y49250D01*
Y49050D01*
X44000Y49000D01*
X44100D01*
X44150Y49050D01*
X44400Y49000D02*
Y49300D01*
X44250Y49150D01*
X44450D01*
X44700Y49000D02*
Y48750D01*
X44750Y48700D01*
X44850D01*
X44900Y48750D01*
Y49000D01*
X45200Y48700D02*
X45000D01*
X45200Y48900D01*
Y48950D01*
X45150Y49000D01*
X45050D01*
X45000Y48950D01*
X44050Y42150D02*
Y41950D01*
X44150Y41850D01*
X44250Y41950D01*
Y42150D01*
X44350D02*
Y41850D01*
X44500D01*
X44550Y41900D01*
Y42100D01*
X44500Y42150D01*
X44350D01*
X44650Y41850D02*
Y42150D01*
X44800D01*
X44850Y42100D01*
Y42000D01*
X44800Y41950D01*
X44650D01*
X44750D02*
X44850Y41850D01*
X44800Y38950D02*
Y39250D01*
X44950D01*
X45000Y39200D01*
Y39100D01*
X44950Y39050D01*
X44800D01*
X45100Y39250D02*
X45300D01*
X45200D01*
Y38950D01*
X45600Y39200D02*
X45550Y39250D01*
X45450D01*
X45400Y39200D01*
Y39000D01*
X45450Y38950D01*
X45550D01*
X45600Y39000D01*
X57330Y37300D02*
X57530Y37000D01*
Y37300D02*
X57330Y37000D01*
X57630D02*
X57730D01*
X57680D01*
Y37300D01*
X57630Y37250D01*
X55000Y30050D02*
Y30350D01*
X55150D01*
X55200Y30300D01*
Y30200D01*
X55150Y30150D01*
X55000D01*
X55100D02*
X55200Y30050D01*
X55500Y30350D02*
X55400Y30300D01*
X55300Y30200D01*
Y30100D01*
X55350Y30050D01*
X55450D01*
X55500Y30100D01*
Y30150D01*
X55450Y30200D01*
X55300D01*
X55750Y32100D02*
Y32400D01*
X55900D01*
X55950Y32350D01*
Y32250D01*
X55900Y32200D01*
X55750D01*
X55850D02*
X55950Y32100D01*
X56050Y32400D02*
X56250D01*
Y32350D01*
X56050Y32150D01*
Y32100D01*
X64400Y35625D02*
X64350Y35575D01*
Y35475D01*
X64400Y35425D01*
X64600D01*
X64650Y35475D01*
Y35575D01*
X64600Y35625D01*
X64650Y35725D02*
Y35825D01*
Y35775D01*
X64350D01*
X64400Y35725D01*
Y35975D02*
X64350Y36025D01*
Y36125D01*
X64400Y36175D01*
X64450D01*
X64500Y36125D01*
X64550Y36175D01*
X64600D01*
X64650Y36125D01*
Y36025D01*
X64600Y35975D01*
X64550D01*
X64500Y36025D01*
X64450Y35975D01*
X64400D01*
X64500Y36025D02*
Y36125D01*
X64450Y32475D02*
X64400Y32425D01*
Y32325D01*
X64450Y32275D01*
X64650D01*
X64700Y32325D01*
Y32425D01*
X64650Y32475D01*
X64700Y32575D02*
Y32675D01*
Y32625D01*
X64400D01*
X64450Y32575D01*
X64400Y32825D02*
Y33025D01*
X64450D01*
X64650Y32825D01*
X64700D01*
X60370Y37430D02*
Y37180D01*
X60420Y37130D01*
X60520D01*
X60570Y37180D01*
Y37430D01*
X60870D02*
X60770Y37380D01*
X60670Y37280D01*
Y37180D01*
X60720Y37130D01*
X60820D01*
X60870Y37180D01*
Y37230D01*
X60820Y37280D01*
X60670D01*
X46200Y42150D02*
Y41900D01*
X46250Y41850D01*
X46350D01*
X46400Y41900D01*
Y42150D01*
X46500Y42100D02*
X46550Y42150D01*
X46650D01*
X46700Y42100D01*
Y42050D01*
X46650Y42000D01*
X46600D01*
X46650D01*
X46700Y41950D01*
Y41900D01*
X46650Y41850D01*
X46550D01*
X46500Y41900D01*
X52850Y37250D02*
Y37000D01*
X52900Y36950D01*
X53000D01*
X53050Y37000D01*
Y37250D01*
X53150Y36950D02*
X53250D01*
X53200D01*
Y37250D01*
X53150Y37200D01*
X57100Y46760D02*
Y47060D01*
X57250D01*
X57300Y47010D01*
Y46910D01*
X57250Y46860D01*
X57100D01*
X57200D02*
X57300Y46760D01*
X57600Y47060D02*
X57400D01*
Y46910D01*
X57500Y46960D01*
X57550D01*
X57600Y46910D01*
Y46810D01*
X57550Y46760D01*
X57450D01*
X57400Y46810D01*
X55440Y38460D02*
Y38760D01*
X55590D01*
X55640Y38710D01*
Y38610D01*
X55590Y38560D01*
X55440D01*
X55540D02*
X55640Y38460D01*
X55890D02*
Y38760D01*
X55740Y38610D01*
X55940D01*
X51150Y34550D02*
Y34850D01*
X51300D01*
X51350Y34800D01*
Y34700D01*
X51300Y34650D01*
X51150D01*
X51250D02*
X51350Y34550D01*
X51650D02*
X51450D01*
X51650Y34750D01*
Y34800D01*
X51600Y34850D01*
X51500D01*
X51450Y34800D01*
X54450Y38350D02*
Y38650D01*
X54600D01*
X54650Y38600D01*
Y38500D01*
X54600Y38450D01*
X54450D01*
X54550D02*
X54650Y38350D01*
X54750D02*
X54850D01*
X54800D01*
Y38650D01*
X54750Y38600D01*
X61400Y49550D02*
Y49250D01*
X61550D01*
X61600Y49300D01*
Y49500D01*
X61550Y49550D01*
X61400D01*
X61900Y49250D02*
X61700D01*
X61900Y49450D01*
Y49500D01*
X61850Y49550D01*
X61750D01*
X61700Y49500D01*
X38650Y45800D02*
Y45500D01*
X38800D01*
X38850Y45550D01*
Y45750D01*
X38800Y45800D01*
X38650D01*
X38950Y45500D02*
X39050D01*
X39000D01*
Y45800D01*
X38950Y45750D01*
X59625Y36050D02*
X59575Y36100D01*
X59475D01*
X59425Y36050D01*
Y35850D01*
X59475Y35800D01*
X59575D01*
X59625Y35850D01*
X59725Y35800D02*
X59825D01*
X59775D01*
Y36100D01*
X59725Y36050D01*
X60175Y36100D02*
X60075Y36050D01*
X59975Y35950D01*
Y35850D01*
X60025Y35800D01*
X60125D01*
X60175Y35850D01*
Y35900D01*
X60125Y35950D01*
X59975D01*
X59625Y33050D02*
X59575Y33100D01*
X59475D01*
X59425Y33050D01*
Y32850D01*
X59475Y32800D01*
X59575D01*
X59625Y32850D01*
X59725Y32800D02*
X59825D01*
X59775D01*
Y33100D01*
X59725Y33050D01*
X60175Y33100D02*
X59975D01*
Y32950D01*
X60075Y33000D01*
X60125D01*
X60175Y32950D01*
Y32850D01*
X60125Y32800D01*
X60025D01*
X59975Y32850D01*
X59625Y31650D02*
X59575Y31700D01*
X59475D01*
X59425Y31650D01*
Y31450D01*
X59475Y31400D01*
X59575D01*
X59625Y31450D01*
X59725Y31400D02*
X59825D01*
X59775D01*
Y31700D01*
X59725Y31650D01*
X60125Y31400D02*
Y31700D01*
X59975Y31550D01*
X60175D01*
X63700Y35575D02*
X63650Y35525D01*
Y35425D01*
X63700Y35375D01*
X63900D01*
X63950Y35425D01*
Y35525D01*
X63900Y35575D01*
X63950Y35675D02*
Y35775D01*
Y35725D01*
X63650D01*
X63700Y35675D01*
Y35925D02*
X63650Y35975D01*
Y36075D01*
X63700Y36125D01*
X63750D01*
X63800Y36075D01*
Y36025D01*
Y36075D01*
X63850Y36125D01*
X63900D01*
X63950Y36075D01*
Y35975D01*
X63900Y35925D01*
X63700Y32475D02*
X63650Y32425D01*
Y32325D01*
X63700Y32275D01*
X63900D01*
X63950Y32325D01*
Y32425D01*
X63900Y32475D01*
X63950Y32575D02*
Y32675D01*
Y32625D01*
X63650D01*
X63700Y32575D01*
X63950Y33025D02*
Y32825D01*
X63750Y33025D01*
X63700D01*
X63650Y32975D01*
Y32875D01*
X63700Y32825D01*
X52075Y34800D02*
X52025Y34850D01*
X51925D01*
X51875Y34800D01*
Y34600D01*
X51925Y34550D01*
X52025D01*
X52075Y34600D01*
X52175Y34550D02*
X52275D01*
X52225D01*
Y34850D01*
X52175Y34800D01*
X52425Y34550D02*
X52525D01*
X52475D01*
Y34850D01*
X52425Y34800D01*
X52400Y38550D02*
X52350Y38600D01*
X52250D01*
X52200Y38550D01*
Y38350D01*
X52250Y38300D01*
X52350D01*
X52400Y38350D01*
X52500D02*
X52550Y38300D01*
X52650D01*
X52700Y38350D01*
Y38550D01*
X52650Y38600D01*
X52550D01*
X52500Y38550D01*
Y38500D01*
X52550Y38450D01*
X52700D01*
X44100Y45410D02*
X44050Y45460D01*
X43950D01*
X43900Y45410D01*
Y45210D01*
X43950Y45160D01*
X44050D01*
X44100Y45210D01*
X44200Y45410D02*
X44250Y45460D01*
X44350D01*
X44400Y45410D01*
Y45360D01*
X44350Y45310D01*
X44400Y45260D01*
Y45210D01*
X44350Y45160D01*
X44250D01*
X44200Y45210D01*
Y45260D01*
X44250Y45310D01*
X44200Y45360D01*
Y45410D01*
X44250Y45310D02*
X44350D01*
X49540Y38990D02*
X49490Y39040D01*
X49390D01*
X49340Y38990D01*
Y38790D01*
X49390Y38740D01*
X49490D01*
X49540Y38790D01*
X49640Y39040D02*
X49840D01*
Y38990D01*
X49640Y38790D01*
Y38740D01*
X57300Y49310D02*
X57250Y49360D01*
X57150D01*
X57100Y49310D01*
Y49110D01*
X57150Y49060D01*
X57250D01*
X57300Y49110D01*
X57600Y49360D02*
X57400D01*
Y49210D01*
X57500Y49260D01*
X57550D01*
X57600Y49210D01*
Y49110D01*
X57550Y49060D01*
X57450D01*
X57400Y49110D01*
X54240Y49790D02*
X54190Y49840D01*
X54090D01*
X54040Y49790D01*
Y49590D01*
X54090Y49540D01*
X54190D01*
X54240Y49590D01*
X54340Y49790D02*
X54390Y49840D01*
X54490D01*
X54540Y49790D01*
Y49740D01*
X54490Y49690D01*
X54440D01*
X54490D01*
X54540Y49640D01*
Y49590D01*
X54490Y49540D01*
X54390D01*
X54340Y49590D01*
X57150Y31700D02*
X57100Y31750D01*
X57000D01*
X56950Y31700D01*
Y31500D01*
X57000Y31450D01*
X57100D01*
X57150Y31500D01*
X57250Y31450D02*
X57350D01*
X57300D01*
Y31750D01*
X57250Y31700D01*
D17*
X38587Y39620D02*
X38320D01*
Y39420D01*
X38453D01*
X38320D01*
Y39220D01*
X38920Y39620D02*
X38787D01*
X38720Y39553D01*
Y39287D01*
X38787Y39220D01*
X38920D01*
X38986Y39287D01*
Y39553D01*
X38920Y39620D01*
X39120Y39220D02*
Y39620D01*
X39386Y39220D01*
Y39620D01*
X39520D02*
X39786D01*
X39653D01*
Y39220D01*
X40186Y39620D02*
X39919D01*
Y39220D01*
X40186D01*
X39919Y39420D02*
X40053D01*
X64720Y44770D02*
Y45170D01*
X64853Y45037D01*
X64987Y45170D01*
Y44770D01*
X65320Y45170D02*
X65187D01*
X65120Y45103D01*
Y44837D01*
X65187Y44770D01*
X65320D01*
X65386Y44837D01*
Y45103D01*
X65320Y45170D01*
X65520D02*
X65786D01*
X65653D01*
Y44770D01*
X66120Y45170D02*
X65986D01*
X65920Y45103D01*
Y44837D01*
X65986Y44770D01*
X66120D01*
X66186Y44837D01*
Y45103D01*
X66120Y45170D01*
X66319Y44770D02*
Y45170D01*
X66519D01*
X66586Y45103D01*
Y44970D01*
X66519Y44903D01*
X66319D01*
X66453D02*
X66586Y44770D01*
X68620Y46270D02*
Y46670D01*
X68753Y46537D01*
X68887Y46670D01*
Y46270D01*
X69020Y46470D02*
X69286D01*
X68620Y48420D02*
Y48820D01*
X68753Y48687D01*
X68887Y48820D01*
Y48420D01*
X69020Y48620D02*
X69286D01*
X69153Y48753D02*
Y48487D01*
X39120Y33030D02*
Y32897D01*
Y32963D01*
X38720D01*
Y33030D01*
Y32897D01*
Y32697D02*
X39120D01*
X38720Y32430D01*
X39120D01*
X38720Y32297D02*
X39120D01*
Y32097D01*
X39053Y32030D01*
X38920D01*
X38853Y32097D01*
Y32297D01*
X39120Y31897D02*
X38787D01*
X38720Y31830D01*
Y31697D01*
X38787Y31630D01*
X39120D01*
Y31497D02*
Y31231D01*
Y31364D01*
X38720D01*
X39920Y33380D02*
X39520D01*
Y33180D01*
X39587Y33113D01*
X39853D01*
X39920Y33180D01*
Y33380D01*
Y32980D02*
Y32847D01*
Y32913D01*
X39520D01*
Y32980D01*
Y32847D01*
X39853Y32380D02*
X39920Y32447D01*
Y32580D01*
X39853Y32647D01*
X39587D01*
X39520Y32580D01*
Y32447D01*
X39587Y32380D01*
X39720D01*
Y32514D01*
X39920Y32247D02*
Y32114D01*
Y32180D01*
X39520D01*
Y32247D01*
Y32114D01*
X39920Y31914D02*
Y31647D01*
Y31781D01*
X39520D01*
Y31514D02*
X39787D01*
X39920Y31381D01*
X39787Y31247D01*
X39520D01*
X39720D01*
Y31514D01*
X39920Y31114D02*
X39520D01*
Y30847D01*
D18*
X57700Y43867D02*
X58033Y43533D01*
X57700D02*
X58033Y43867D01*
X57700Y43700D02*
X58033D01*
X57867Y43533D02*
Y43867D01*
X47675Y46850D02*
Y46433D01*
X47758Y46350D01*
X47925D01*
X48008Y46433D01*
Y46850D01*
X48508Y46350D02*
X48175D01*
X48508Y46683D01*
Y46767D01*
X48425Y46850D01*
X48258D01*
X48175Y46767D01*
X44225Y47267D02*
X44558Y46933D01*
X44225D02*
X44558Y47267D01*
X44225Y47100D02*
X44558D01*
X44392Y46933D02*
Y47267D01*
M02*
