G04*
G04 #@! TF.GenerationSoftware,Altium Limited,Altium Designer,24.1.2 (44)*
G04*
G04 Layer_Color=2752767*
%FSLAX24Y24*%
%MOIN*%
G70*
G04*
G04 #@! TF.SameCoordinates,E58B8CFC-B59F-40A7-A0C9-9F9E0F661D6A*
G04*
G04*
G04 #@! TF.FilePolarity,Positive*
G04*
G01*
G75*
%ADD16C,0.0050*%
%ADD71C,0.0067*%
%ADD72C,0.0040*%
D16*
X65901Y40321D02*
X66001Y40521D01*
X65901Y40721D01*
X66101Y40621D01*
X66301Y40721D01*
X66201Y40521D01*
X66301Y40321D01*
X66101Y40421D01*
X65901Y40321D01*
Y30479D02*
X66001Y30679D01*
X65901Y30879D01*
X66101Y30779D01*
X66301Y30879D01*
X66201Y30679D01*
X66301Y30479D01*
X66101Y30579D01*
X65901Y30479D01*
X66660Y33764D02*
X66760Y33864D01*
X66860D01*
X66760Y33964D01*
X66860Y34064D01*
X66760D01*
X66660Y34164D01*
X66560Y34064D01*
X66460D01*
X66560Y33964D01*
X66460Y33864D01*
X66560D01*
X66660Y33764D01*
Y34855D02*
X66760Y34955D01*
X66860D01*
X66760Y35055D01*
X66860Y35155D01*
X66760D01*
X66660Y35255D01*
X66560Y35155D01*
X66460D01*
X66560Y35055D01*
X66460Y34955D01*
X66560D01*
X66660Y34855D01*
Y35945D02*
X66760Y36045D01*
X66860D01*
X66760Y36145D01*
X66860Y36245D01*
X66760D01*
X66660Y36345D01*
X66560Y36245D01*
X66460D01*
X66560Y36145D01*
X66460Y36045D01*
X66560D01*
X66660Y35945D01*
Y37036D02*
X66760Y37136D01*
X66860D01*
X66760Y37236D01*
X66860Y37336D01*
X66760D01*
X66660Y37436D01*
X66560Y37336D01*
X66460D01*
X66560Y37236D01*
X66460Y37136D01*
X66560D01*
X66660Y37036D01*
X65542Y36491D02*
X65642Y36591D01*
X65742D01*
X65642Y36691D01*
X65742Y36791D01*
X65642D01*
X65542Y36891D01*
X65442Y36791D01*
X65342D01*
X65442Y36691D01*
X65342Y36591D01*
X65442D01*
X65542Y36491D01*
Y37581D02*
X65642Y37681D01*
X65742D01*
X65642Y37781D01*
X65742Y37881D01*
X65642D01*
X65542Y37981D01*
X65442Y37881D01*
X65342D01*
X65442Y37781D01*
X65342Y37681D01*
X65442D01*
X65542Y37581D01*
Y33219D02*
X65642Y33319D01*
X65742D01*
X65642Y33419D01*
X65742Y33519D01*
X65642D01*
X65542Y33619D01*
X65442Y33519D01*
X65342D01*
X65442Y33419D01*
X65342Y33319D01*
X65442D01*
X65542Y33219D01*
Y34309D02*
X65642Y34409D01*
X65742D01*
X65642Y34509D01*
X65742Y34609D01*
X65642D01*
X65542Y34709D01*
X65442Y34609D01*
X65342D01*
X65442Y34509D01*
X65342Y34409D01*
X65442D01*
X65542Y34309D01*
Y35400D02*
X65642Y35500D01*
X65742D01*
X65642Y35600D01*
X65742Y35700D01*
X65642D01*
X65542Y35800D01*
X65442Y35700D01*
X65342D01*
X65442Y35600D01*
X65342Y35500D01*
X65442D01*
X65542Y35400D01*
X53650Y30250D02*
X53450Y30650D01*
X53850D01*
X53650Y30250D01*
X52650D02*
X52450Y30650D01*
X52850D01*
X52650Y30250D01*
X51650D02*
X51450Y30650D01*
X51850D01*
X51650Y30250D01*
X50650D02*
X50450Y30650D01*
X50850D01*
X50650Y30250D01*
X52350Y46900D02*
Y47300D01*
X52750D01*
Y46900D01*
X52350D01*
X51350D02*
Y47300D01*
X51750D01*
Y46900D01*
X51350D01*
X50350D02*
Y47300D01*
X50750D01*
Y46900D01*
X50350D01*
X49350D02*
Y47300D01*
X49750D01*
Y46900D01*
X49350D01*
X47350D02*
Y47300D01*
X47750D01*
Y46900D01*
X47350D01*
X46350D02*
Y47300D01*
X46750D01*
Y46900D01*
X46350D01*
X45350D02*
Y47300D01*
X45750D01*
Y46900D01*
X45350D01*
X44276Y40106D02*
Y40506D01*
X44676D01*
Y40106D01*
X44276D01*
X44356Y40186D02*
Y40426D01*
X44596D01*
Y40186D01*
X44356D01*
X41324Y40894D02*
Y41294D01*
X41724D01*
Y40894D01*
X41324D01*
X41404Y40974D02*
Y41214D01*
X41644D01*
Y40974D01*
X41404D01*
X45350Y37900D02*
X45550Y38100D01*
X45750Y37900D01*
X45550Y37700D01*
X45350Y37900D01*
Y35900D02*
X45550Y36100D01*
X45750Y35900D01*
X45550Y35700D01*
X45350Y35900D01*
X58100Y33316D02*
X58200D01*
X58300Y33416D01*
X58400Y33316D01*
X58500D01*
Y33416D01*
X58400Y33516D01*
X58500Y33616D01*
Y33716D01*
X58400D01*
X58300Y33616D01*
X58200Y33716D01*
X58100D01*
Y33616D01*
X58200Y33516D01*
X58100Y33416D01*
Y33316D01*
Y35284D02*
X58200D01*
X58300Y35384D01*
X58400Y35284D01*
X58500D01*
Y35384D01*
X58400Y35484D01*
X58500Y35584D01*
Y35684D01*
X58400D01*
X58300Y35584D01*
X58200Y35684D01*
X58100D01*
Y35584D01*
X58200Y35484D01*
X58100Y35384D01*
Y35284D01*
X47050Y39300D02*
X46850Y39700D01*
X47250D01*
X47050Y39300D01*
X48050D02*
X47850Y39700D01*
X48250D01*
X48050Y39300D01*
X49050D02*
X48850Y39700D01*
X49250D01*
X49050Y39300D01*
X50050D02*
X49850Y39700D01*
X50250D01*
X50050Y39300D01*
X44100Y46550D02*
Y46450D01*
X44300D01*
Y46550D01*
X44400D01*
Y46750D01*
X44300D01*
Y46850D01*
X44100D01*
Y46750D01*
X44000D01*
Y46550D01*
X44100D01*
X44000Y42650D02*
Y42550D01*
X44200D01*
Y42650D01*
X44300D01*
Y42850D01*
X44200D01*
Y42950D01*
X44000D01*
Y42850D01*
X43900D01*
Y42650D01*
X44000D01*
X57750Y39300D02*
Y39200D01*
X57950D01*
Y39300D01*
X58050D01*
Y39500D01*
X57950D01*
Y39600D01*
X57750D01*
Y39500D01*
X57650D01*
Y39300D01*
X57750D01*
X59700Y34400D02*
Y34300D01*
X59900D01*
Y34400D01*
X60000D01*
Y34600D01*
X59900D01*
Y34700D01*
X59700D01*
Y34600D01*
X59600D01*
Y34400D01*
X59700D01*
X64050Y34100D02*
Y34000D01*
X64250D01*
Y34100D01*
X64350D01*
Y34300D01*
X64250D01*
Y34400D01*
X64050D01*
Y34300D01*
X63950D01*
Y34100D01*
X64050D01*
X52300Y35850D02*
Y35750D01*
X52500D01*
Y35850D01*
X52600D01*
Y36050D01*
X52500D01*
Y36150D01*
X52300D01*
Y36050D01*
X52200D01*
Y35850D01*
X52300D01*
X47200Y35100D02*
Y35000D01*
X47400D01*
Y35100D01*
X47500D01*
Y35300D01*
X47400D01*
Y35400D01*
X47200D01*
Y35300D01*
X47100D01*
Y35100D01*
X47200D01*
X38450Y35050D02*
Y34950D01*
X38650D01*
Y35050D01*
X38750D01*
Y35250D01*
X38650D01*
Y35350D01*
X38450D01*
Y35250D01*
X38350D01*
Y35050D01*
X38450D01*
X47450Y29750D02*
Y29650D01*
X47650D01*
Y29750D01*
X47750D01*
Y29950D01*
X47650D01*
Y30050D01*
X47450D01*
Y29950D01*
X47350D01*
Y29750D01*
X47450D01*
X38450Y29700D02*
Y29600D01*
X38650D01*
Y29700D01*
X38750D01*
Y29900D01*
X38650D01*
Y30000D01*
X38450D01*
Y29900D01*
X38350D01*
Y29700D01*
X38450D01*
Y49400D02*
Y49300D01*
X38650D01*
Y49400D01*
X38750D01*
Y49600D01*
X38650D01*
Y49700D01*
X38450D01*
Y49600D01*
X38350D01*
Y49400D01*
X38450D01*
X47450Y49450D02*
Y49350D01*
X47650D01*
Y49450D01*
X47750D01*
Y49650D01*
X47650D01*
Y49750D01*
X47450D01*
Y49650D01*
X47350D01*
Y49450D01*
X47450D01*
X54800Y29800D02*
Y29700D01*
X55000D01*
Y29800D01*
X55100D01*
Y30000D01*
X55000D01*
Y30100D01*
X54800D01*
Y30000D01*
X54700D01*
Y29800D01*
X54800D01*
X68650Y29850D02*
Y29750D01*
X68850D01*
Y29850D01*
X68950D01*
Y30050D01*
X68850D01*
Y30150D01*
X68650D01*
Y30050D01*
X68550D01*
Y29850D01*
X68650D01*
X62950Y29900D02*
Y29800D01*
X63150D01*
Y29900D01*
X63250D01*
Y30100D01*
X63150D01*
Y30200D01*
X62950D01*
Y30100D01*
X62850D01*
Y29900D01*
X62950D01*
X68550Y39150D02*
Y39050D01*
X68750D01*
Y39150D01*
X68850D01*
Y39350D01*
X68750D01*
Y39450D01*
X68550D01*
Y39350D01*
X68450D01*
Y39150D01*
X68550D01*
X62850Y39200D02*
Y39100D01*
X63050D01*
Y39200D01*
X63150D01*
Y39400D01*
X63050D01*
Y39500D01*
X62850D01*
Y39400D01*
X62750D01*
Y39200D01*
X62850D01*
X68550Y41200D02*
Y41100D01*
X68750D01*
Y41200D01*
X68850D01*
Y41400D01*
X68750D01*
Y41500D01*
X68550D01*
Y41400D01*
X68450D01*
Y41200D01*
X68550D01*
X62850Y41250D02*
Y41150D01*
X63050D01*
Y41250D01*
X63150D01*
Y41450D01*
X63050D01*
Y41550D01*
X62850D01*
Y41450D01*
X62750D01*
Y41250D01*
X62850D01*
X54700D02*
Y41150D01*
X54900D01*
Y41250D01*
X55000D01*
Y41450D01*
X54900D01*
Y41550D01*
X54700D01*
Y41450D01*
X54600D01*
Y41250D01*
X54700D01*
X49700D02*
Y41150D01*
X49900D01*
Y41250D01*
X50000D01*
Y41450D01*
X49900D01*
Y41550D01*
X49700D01*
Y41450D01*
X49600D01*
Y41250D01*
X49700D01*
X62850Y49500D02*
Y49400D01*
X63050D01*
Y49500D01*
X63150D01*
Y49700D01*
X63050D01*
Y49800D01*
X62850D01*
Y49700D01*
X62750D01*
Y49500D01*
X62850D01*
X54700D02*
Y49400D01*
X54900D01*
Y49500D01*
X55000D01*
Y49700D01*
X54900D01*
Y49800D01*
X54700D01*
Y49700D01*
X54600D01*
Y49500D01*
X54700D01*
X49700D02*
Y49400D01*
X49900D01*
Y49500D01*
X50000D01*
Y49700D01*
X49900D01*
Y49800D01*
X49700D01*
Y49700D01*
X49600D01*
Y49500D01*
X49700D01*
Y43300D02*
Y43200D01*
X49900D01*
Y43300D01*
X50000D01*
Y43500D01*
X49900D01*
Y43600D01*
X49700D01*
Y43500D01*
X49600D01*
Y43300D01*
X49700D01*
X54700D02*
Y43200D01*
X54900D01*
Y43300D01*
X55000D01*
Y43500D01*
X54900D01*
Y43600D01*
X54700D01*
Y43500D01*
X54600D01*
Y43300D01*
X54700D01*
X62850D02*
Y43200D01*
X63050D01*
Y43300D01*
X63150D01*
Y43500D01*
X63050D01*
Y43600D01*
X62850D01*
Y43500D01*
X62750D01*
Y43300D01*
X62850D01*
X68550Y43250D02*
Y43150D01*
X68750D01*
Y43250D01*
X68850D01*
Y43450D01*
X68750D01*
Y43550D01*
X68550D01*
Y43450D01*
X68450D01*
Y43250D01*
X68550D01*
X45900Y31500D02*
Y31400D01*
X46100D01*
Y31500D01*
X46200D01*
Y31700D01*
X46100D01*
Y31800D01*
X45900D01*
Y31700D01*
X45800D01*
Y31500D01*
X45900D01*
X56500Y32800D02*
Y32700D01*
X56700D01*
Y32800D01*
X56800D01*
Y33000D01*
X56700D01*
Y33100D01*
X56500D01*
Y33000D01*
X56400D01*
Y32800D01*
X56500D01*
X54850Y31200D02*
Y31100D01*
X55050D01*
Y31200D01*
X55150D01*
Y31400D01*
X55050D01*
Y31500D01*
X54850D01*
Y31400D01*
X54750D01*
Y31200D01*
X54850D01*
X55145Y32055D02*
Y31955D01*
X55345D01*
Y32055D01*
X55445D01*
Y32255D01*
X55345D01*
Y32355D01*
X55145D01*
Y32255D01*
X55045D01*
Y32055D01*
X55145D01*
X55752Y30652D02*
Y30552D01*
X55952D01*
Y30652D01*
X56052D01*
Y30852D01*
X55952D01*
Y30952D01*
X55752D01*
Y30852D01*
X55652D01*
Y30652D01*
X55752D01*
X55758Y34942D02*
Y34842D01*
X55958D01*
Y34942D01*
X56058D01*
Y35142D01*
X55958D01*
Y35242D01*
X55758D01*
Y35142D01*
X55658D01*
Y34942D01*
X55758D01*
X55752Y34548D02*
Y34448D01*
X55952D01*
Y34548D01*
X56052D01*
Y34748D01*
X55952D01*
Y34848D01*
X55752D01*
Y34748D01*
X55652D01*
Y34548D01*
X55752D01*
X64750Y33800D02*
Y33700D01*
X64950D01*
Y33800D01*
X65050D01*
Y34000D01*
X64950D01*
Y34100D01*
X64750D01*
Y34000D01*
X64650D01*
Y33800D01*
X64750D01*
X63300Y33450D02*
Y33350D01*
X63500D01*
Y33450D01*
X63600D01*
Y33650D01*
X63500D01*
Y33750D01*
X63300D01*
Y33650D01*
X63200D01*
Y33450D01*
X63300D01*
X64100Y36300D02*
Y36200D01*
X64300D01*
Y36300D01*
X64400D01*
Y36500D01*
X64300D01*
Y36600D01*
X64100D01*
Y36500D01*
X64000D01*
Y36300D01*
X64100D01*
X52500Y32850D02*
Y32750D01*
X52700D01*
Y32850D01*
X52800D01*
Y33050D01*
X52700D01*
Y33150D01*
X52500D01*
Y33050D01*
X52400D01*
Y32850D01*
X52500D01*
X53550Y32800D02*
Y32700D01*
X53750D01*
Y32800D01*
X53850D01*
Y33000D01*
X53750D01*
Y33100D01*
X53550D01*
Y33000D01*
X53450D01*
Y32800D01*
X53550D01*
X53196Y37696D02*
Y37596D01*
X53396D01*
Y37696D01*
X53496D01*
Y37896D01*
X53396D01*
Y37996D01*
X53196D01*
Y37896D01*
X53096D01*
Y37696D01*
X53196D01*
Y32354D02*
Y32254D01*
X53396D01*
Y32354D01*
X53496D01*
Y32554D01*
X53396D01*
Y32654D01*
X53196D01*
Y32554D01*
X53096D01*
Y32354D01*
X53196D01*
D71*
X65700Y48550D02*
G03*
X65700Y48550I-200J0D01*
G01*
Y46550D02*
G03*
X65700Y46550I-200J0D01*
G01*
X43533Y37100D02*
G03*
X43533Y37100I-200J0D01*
G01*
X41250D02*
G03*
X41250Y37100I-200J0D01*
G01*
X42352Y35210D02*
G03*
X42352Y35210I-200J0D01*
G01*
X42600Y31100D02*
G03*
X42600Y31100I-200J0D01*
G01*
Y33100D02*
G03*
X42600Y33100I-200J0D01*
G01*
D72*
X43453Y37100D02*
G03*
X43453Y37100I-120J0D01*
G01*
X41170D02*
G03*
X41170Y37100I-120J0D01*
G01*
X42272Y35210D02*
G03*
X42272Y35210I-120J0D01*
G01*
M02*
