M48
;Layer_Color=9474304
;FILE_FORMAT=2:4
INCH,LZ
;TYPE=PLATED
T01F00S00C0.0079
T02F00S00C0.0300
T04F00S00C0.0354
T05F00S00C0.0394
T06F00S00C0.0429
T07F00S00C0.0433
T08F00S00C0.0472
T09F00S00C0.0512
T10F00S00C0.1260
%
T01
X06305Y03
X06875Y02995
X055852Y030752
X0549Y0299
X04755Y02985
X03855Y0298
Y03515
X046Y0316
X0441Y04275
X0442Y04665
X0498Y0434
Y04135
X0548
Y0434
X05785Y0394
X053296Y037796
X0524Y03595
X0526Y03295
X05365Y0329
X053296Y032454
X055245Y032155
X05495Y0313
X0566Y0329
X055852Y034648
X055858Y035042
X0598Y0345
X0473Y0352
X0634Y03355
X06415Y0342
X06485Y0339
X0642Y0364
X06295Y0393
Y04135
Y0434
X06865Y04335
Y0413
Y03925
X06295Y0496
X0548
X0498
X04755Y04955
X03855Y0495
T02
X04755Y0471
X04955
X05055
X05155
X05255
X04655
X04555
T04
X05065Y03045
X05165
X05265
X05365
X05005Y0395
X04905
X04805
X04705
T05
X0583Y033516
Y035484
T06
X065542Y033419
Y034509
Y0356
Y036691
Y037781
X06666Y037236
Y036145
Y035055
Y033964
T07
X041524Y041094
X044476Y040306
T08
X04555Y0359
Y0379
T09
X0424Y0311
Y0331
X0655Y04655
Y04855
T10
X066101Y030679
Y040521
M30
