%FSTAX24Y24*%
%MOIN*%
%SFA1B1*%

%IPPOS*%
%ADD16C,0.005000*%
%ADD71C,0.006700*%
%ADD72C,0.004000*%
%LNpcb1-1*%
%LPD*%
G54D16*
X065901Y040321D02*
X066001Y040521D01*
X065901Y040721*
X066101Y040621*
X066301Y040721*
X066201Y040521*
X066301Y040321*
X066101Y040421*
X065901Y040321*
Y030479D02*
X066001Y030679D01*
X065901Y030879*
X066101Y030779*
X066301Y030879*
X066201Y030679*
X066301Y030479*
X066101Y030579*
X065901Y030479*
X06666Y033764D02*
X06676Y033864D01*
X06686*
X06676Y033964*
X06686Y034064*
X06676*
X06666Y034164*
X06656Y034064*
X06646*
X06656Y033964*
X06646Y033864*
X06656*
X06666Y033764*
Y034855D02*
X06676Y034955D01*
X06686*
X06676Y035055*
X06686Y035155*
X06676*
X06666Y035255*
X06656Y035155*
X06646*
X06656Y035055*
X06646Y034955*
X06656*
X06666Y034855*
Y035945D02*
X06676Y036045D01*
X06686*
X06676Y036145*
X06686Y036245*
X06676*
X06666Y036345*
X06656Y036245*
X06646*
X06656Y036145*
X06646Y036045*
X06656*
X06666Y035945*
Y037036D02*
X06676Y037136D01*
X06686*
X06676Y037236*
X06686Y037336*
X06676*
X06666Y037436*
X06656Y037336*
X06646*
X06656Y037236*
X06646Y037136*
X06656*
X06666Y037036*
X065542Y036491D02*
X065642Y036591D01*
X065742*
X065642Y036691*
X065742Y036791*
X065642*
X065542Y036891*
X065442Y036791*
X065342*
X065442Y036691*
X065342Y036591*
X065442*
X065542Y036491*
Y037581D02*
X065642Y037681D01*
X065742*
X065642Y037781*
X065742Y037881*
X065642*
X065542Y037981*
X065442Y037881*
X065342*
X065442Y037781*
X065342Y037681*
X065442*
X065542Y037581*
Y033219D02*
X065642Y033319D01*
X065742*
X065642Y033419*
X065742Y033519*
X065642*
X065542Y033619*
X065442Y033519*
X065342*
X065442Y033419*
X065342Y033319*
X065442*
X065542Y033219*
Y034309D02*
X065642Y034409D01*
X065742*
X065642Y034509*
X065742Y034609*
X065642*
X065542Y034709*
X065442Y034609*
X065342*
X065442Y034509*
X065342Y034409*
X065442*
X065542Y034309*
Y0354D02*
X065642Y0355D01*
X065742*
X065642Y0356*
X065742Y0357*
X065642*
X065542Y0358*
X065442Y0357*
X065342*
X065442Y0356*
X065342Y0355*
X065442*
X065542Y0354*
X05365Y03025D02*
X05345Y03065D01*
X05385*
X05365Y03025*
X05265D02*
X05245Y03065D01*
X05285*
X05265Y03025*
X05165D02*
X05145Y03065D01*
X05185*
X05165Y03025*
X05065D02*
X05045Y03065D01*
X05085*
X05065Y03025*
X05235Y0469D02*
Y0473D01*
X05275*
Y0469*
X05235*
X05135D02*
Y0473D01*
X05175*
Y0469*
X05135*
X05035D02*
Y0473D01*
X05075*
Y0469*
X05035*
X04935D02*
Y0473D01*
X04975*
Y0469*
X04935*
X04735D02*
Y0473D01*
X04775*
Y0469*
X04735*
X04635D02*
Y0473D01*
X04675*
Y0469*
X04635*
X04535D02*
Y0473D01*
X04575*
Y0469*
X04535*
X044276Y040106D02*
Y040506D01*
X044676*
Y040106*
X044276*
X044356Y040186D02*
Y040426D01*
X044596*
Y040186*
X044356*
X041324Y040894D02*
Y041294D01*
X041724*
Y040894*
X041324*
X041404Y040974D02*
Y041214D01*
X041644*
Y040974*
X041404*
X04535Y0379D02*
X04555Y0381D01*
X04575Y0379*
X04555Y0377*
X04535Y0379*
Y0359D02*
X04555Y0361D01*
X04575Y0359*
X04555Y0357*
X04535Y0359*
X0581Y033316D02*
X0582D01*
X0583Y033416*
X0584Y033316*
X0585*
Y033416*
X0584Y033516*
X0585Y033616*
Y033716*
X0584*
X0583Y033616*
X0582Y033716*
X0581*
Y033616*
X0582Y033516*
X0581Y033416*
Y033316*
Y035284D02*
X0582D01*
X0583Y035384*
X0584Y035284*
X0585*
Y035384*
X0584Y035484*
X0585Y035584*
Y035684*
X0584*
X0583Y035584*
X0582Y035684*
X0581*
Y035584*
X0582Y035484*
X0581Y035384*
Y035284*
X04705Y0393D02*
X04685Y0397D01*
X04725*
X04705Y0393*
X04805D02*
X04785Y0397D01*
X04825*
X04805Y0393*
X04905D02*
X04885Y0397D01*
X04925*
X04905Y0393*
X05005D02*
X04985Y0397D01*
X05025*
X05005Y0393*
X0441Y04655D02*
Y04645D01*
X0443*
Y04655*
X0444*
Y04675*
X0443*
Y04685*
X0441*
Y04675*
X044*
Y04655*
X0441*
X044Y04265D02*
Y04255D01*
X0442*
Y04265*
X0443*
Y04285*
X0442*
Y04295*
X044*
Y04285*
X0439*
Y04265*
X044*
X05775Y0393D02*
Y0392D01*
X05795*
Y0393*
X05805*
Y0395*
X05795*
Y0396*
X05775*
Y0395*
X05765*
Y0393*
X05775*
X0597Y0344D02*
Y0343D01*
X0599*
Y0344*
X06*
Y0346*
X0599*
Y0347*
X0597*
Y0346*
X0596*
Y0344*
X0597*
X06405Y0341D02*
Y034D01*
X06425*
Y0341*
X06435*
Y0343*
X06425*
Y0344*
X06405*
Y0343*
X06395*
Y0341*
X06405*
X0523Y03585D02*
Y03575D01*
X0525*
Y03585*
X0526*
Y03605*
X0525*
Y03615*
X0523*
Y03605*
X0522*
Y03585*
X0523*
X0472Y0351D02*
Y035D01*
X0474*
Y0351*
X0475*
Y0353*
X0474*
Y0354*
X0472*
Y0353*
X0471*
Y0351*
X0472*
X03845Y03505D02*
Y03495D01*
X03865*
Y03505*
X03875*
Y03525*
X03865*
Y03535*
X03845*
Y03525*
X03835*
Y03505*
X03845*
X04745Y02975D02*
Y02965D01*
X04765*
Y02975*
X04775*
Y02995*
X04765*
Y03005*
X04745*
Y02995*
X04735*
Y02975*
X04745*
X03845Y0297D02*
Y0296D01*
X03865*
Y0297*
X03875*
Y0299*
X03865*
Y03*
X03845*
Y0299*
X03835*
Y0297*
X03845*
Y0494D02*
Y0493D01*
X03865*
Y0494*
X03875*
Y0496*
X03865*
Y0497*
X03845*
Y0496*
X03835*
Y0494*
X03845*
X04745Y04945D02*
Y04935D01*
X04765*
Y04945*
X04775*
Y04965*
X04765*
Y04975*
X04745*
Y04965*
X04735*
Y04945*
X04745*
X0548Y0298D02*
Y0297D01*
X055*
Y0298*
X0551*
Y03*
X055*
Y0301*
X0548*
Y03*
X0547*
Y0298*
X0548*
X06865Y02985D02*
Y02975D01*
X06885*
Y02985*
X06895*
Y03005*
X06885*
Y03015*
X06865*
Y03005*
X06855*
Y02985*
X06865*
X06295Y0299D02*
Y0298D01*
X06315*
Y0299*
X06325*
Y0301*
X06315*
Y0302*
X06295*
Y0301*
X06285*
Y0299*
X06295*
X06855Y03915D02*
Y03905D01*
X06875*
Y03915*
X06885*
Y03935*
X06875*
Y03945*
X06855*
Y03935*
X06845*
Y03915*
X06855*
X06285Y0392D02*
Y0391D01*
X06305*
Y0392*
X06315*
Y0394*
X06305*
Y0395*
X06285*
Y0394*
X06275*
Y0392*
X06285*
X06855Y0412D02*
Y0411D01*
X06875*
Y0412*
X06885*
Y0414*
X06875*
Y0415*
X06855*
Y0414*
X06845*
Y0412*
X06855*
X06285Y04125D02*
Y04115D01*
X06305*
Y04125*
X06315*
Y04145*
X06305*
Y04155*
X06285*
Y04145*
X06275*
Y04125*
X06285*
X0547D02*
Y04115D01*
X0549*
Y04125*
X055*
Y04145*
X0549*
Y04155*
X0547*
Y04145*
X0546*
Y04125*
X0547*
X0497D02*
Y04115D01*
X0499*
Y04125*
X05*
Y04145*
X0499*
Y04155*
X0497*
Y04145*
X0496*
Y04125*
X0497*
X06285Y0495D02*
Y0494D01*
X06305*
Y0495*
X06315*
Y0497*
X06305*
Y0498*
X06285*
Y0497*
X06275*
Y0495*
X06285*
X0547D02*
Y0494D01*
X0549*
Y0495*
X055*
Y0497*
X0549*
Y0498*
X0547*
Y0497*
X0546*
Y0495*
X0547*
X0497D02*
Y0494D01*
X0499*
Y0495*
X05*
Y0497*
X0499*
Y0498*
X0497*
Y0497*
X0496*
Y0495*
X0497*
Y0433D02*
Y0432D01*
X0499*
Y0433*
X05*
Y0435*
X0499*
Y0436*
X0497*
Y0435*
X0496*
Y0433*
X0497*
X0547D02*
Y0432D01*
X0549*
Y0433*
X055*
Y0435*
X0549*
Y0436*
X0547*
Y0435*
X0546*
Y0433*
X0547*
X06285D02*
Y0432D01*
X06305*
Y0433*
X06315*
Y0435*
X06305*
Y0436*
X06285*
Y0435*
X06275*
Y0433*
X06285*
X06855Y04325D02*
Y04315D01*
X06875*
Y04325*
X06885*
Y04345*
X06875*
Y04355*
X06855*
Y04345*
X06845*
Y04325*
X06855*
X0459Y0315D02*
Y0314D01*
X0461*
Y0315*
X0462*
Y0317*
X0461*
Y0318*
X0459*
Y0317*
X0458*
Y0315*
X0459*
X0565Y0328D02*
Y0327D01*
X0567*
Y0328*
X0568*
Y033*
X0567*
Y0331*
X0565*
Y033*
X0564*
Y0328*
X0565*
X05485Y0312D02*
Y0311D01*
X05505*
Y0312*
X05515*
Y0314*
X05505*
Y0315*
X05485*
Y0314*
X05475*
Y0312*
X05485*
X055145Y032055D02*
Y031955D01*
X055345*
Y032055*
X055445*
Y032255*
X055345*
Y032355*
X055145*
Y032255*
X055045*
Y032055*
X055145*
X055752Y030652D02*
Y030552D01*
X055952*
Y030652*
X056052*
Y030852*
X055952*
Y030952*
X055752*
Y030852*
X055652*
Y030652*
X055752*
X055758Y034942D02*
Y034842D01*
X055958*
Y034942*
X056058*
Y035142*
X055958*
Y035242*
X055758*
Y035142*
X055658*
Y034942*
X055758*
X055752Y034548D02*
Y034448D01*
X055952*
Y034548*
X056052*
Y034748*
X055952*
Y034848*
X055752*
Y034748*
X055652*
Y034548*
X055752*
X06475Y0338D02*
Y0337D01*
X06495*
Y0338*
X06505*
Y034*
X06495*
Y0341*
X06475*
Y034*
X06465*
Y0338*
X06475*
X0633Y03345D02*
Y03335D01*
X0635*
Y03345*
X0636*
Y03365*
X0635*
Y03375*
X0633*
Y03365*
X0632*
Y03345*
X0633*
X0641Y0363D02*
Y0362D01*
X0643*
Y0363*
X0644*
Y0365*
X0643*
Y0366*
X0641*
Y0365*
X064*
Y0363*
X0641*
X0525Y03285D02*
Y03275D01*
X0527*
Y03285*
X0528*
Y03305*
X0527*
Y03315*
X0525*
Y03305*
X0524*
Y03285*
X0525*
X05355Y0328D02*
Y0327D01*
X05375*
Y0328*
X05385*
Y033*
X05375*
Y0331*
X05355*
Y033*
X05345*
Y0328*
X05355*
X053196Y037696D02*
Y037596D01*
X053396*
Y037696*
X053496*
Y037896*
X053396*
Y037996*
X053196*
Y037896*
X053096*
Y037696*
X053196*
Y032354D02*
Y032254D01*
X053396*
Y032354*
X053496*
Y032554*
X053396*
Y032654*
X053196*
Y032554*
X053096*
Y032354*
X053196*
G54D71*
X0657Y04855D02*
D01*
X065699Y048563*
X065698Y048577*
X065695Y048591*
X065692Y048605*
X065687Y048618*
X065682Y048631*
X065676Y048643*
X065669Y048655*
X065661Y048667*
X065653Y048678*
X065643Y048688*
X065633Y048698*
X065623Y048707*
X065611Y048715*
X0656Y048723*
X065587Y048729*
X065574Y048735*
X065561Y04874*
X065548Y048744*
X065534Y048746*
X06552Y048748*
X065506Y048749*
X065493*
X065479Y048748*
X065465Y048746*
X065451Y048744*
X065438Y04874*
X065425Y048735*
X065412Y048729*
X0654Y048723*
X065388Y048715*
X065376Y048707*
X065366Y048698*
X065356Y048688*
X065346Y048678*
X065338Y048667*
X06533Y048655*
X065323Y048643*
X065317Y048631*
X065312Y048618*
X065307Y048605*
X065304Y048591*
X065301Y048577*
X0653Y048563*
X0653Y04855*
X0653Y048536*
X065301Y048522*
X065304Y048508*
X065307Y048494*
X065312Y048481*
X065317Y048468*
X065323Y048456*
X06533Y048444*
X065338Y048432*
X065346Y048421*
X065356Y048411*
X065366Y048401*
X065376Y048392*
X065388Y048384*
X0654Y048376*
X065412Y04837*
X065425Y048364*
X065438Y048359*
X065451Y048355*
X065465Y048353*
X065479Y048351*
X065493Y04835*
X065506*
X06552Y048351*
X065534Y048353*
X065548Y048355*
X065561Y048359*
X065574Y048364*
X065587Y04837*
X0656Y048376*
X065611Y048384*
X065623Y048392*
X065633Y048401*
X065643Y048411*
X065653Y048421*
X065661Y048432*
X065669Y048444*
X065676Y048456*
X065682Y048468*
X065687Y048481*
X065692Y048494*
X065695Y048508*
X065698Y048522*
X065699Y048536*
X0657Y04855*
Y04655D02*
D01*
X065699Y046563*
X065698Y046577*
X065695Y046591*
X065692Y046605*
X065687Y046618*
X065682Y046631*
X065676Y046643*
X065669Y046655*
X065661Y046667*
X065653Y046678*
X065643Y046688*
X065633Y046698*
X065623Y046707*
X065611Y046715*
X0656Y046723*
X065587Y046729*
X065574Y046735*
X065561Y04674*
X065548Y046744*
X065534Y046746*
X06552Y046748*
X065506Y046749*
X065493*
X065479Y046748*
X065465Y046746*
X065451Y046744*
X065438Y04674*
X065425Y046735*
X065412Y046729*
X0654Y046723*
X065388Y046715*
X065376Y046707*
X065366Y046698*
X065356Y046688*
X065346Y046678*
X065338Y046667*
X06533Y046655*
X065323Y046643*
X065317Y046631*
X065312Y046618*
X065307Y046605*
X065304Y046591*
X065301Y046577*
X0653Y046563*
X0653Y04655*
X0653Y046536*
X065301Y046522*
X065304Y046508*
X065307Y046494*
X065312Y046481*
X065317Y046468*
X065323Y046456*
X06533Y046444*
X065338Y046432*
X065346Y046421*
X065356Y046411*
X065366Y046401*
X065376Y046392*
X065388Y046384*
X0654Y046376*
X065412Y04637*
X065425Y046364*
X065438Y046359*
X065451Y046355*
X065465Y046353*
X065479Y046351*
X065493Y04635*
X065506*
X06552Y046351*
X065534Y046353*
X065548Y046355*
X065561Y046359*
X065574Y046364*
X065587Y04637*
X0656Y046376*
X065611Y046384*
X065623Y046392*
X065633Y046401*
X065643Y046411*
X065653Y046421*
X065661Y046432*
X065669Y046444*
X065676Y046456*
X065682Y046468*
X065687Y046481*
X065692Y046494*
X065695Y046508*
X065698Y046522*
X065699Y046536*
X0657Y04655*
X043533Y0371D02*
D01*
X043532Y037113*
X043531Y037127*
X043528Y037141*
X043525Y037155*
X04352Y037168*
X043515Y037181*
X043509Y037193*
X043502Y037205*
X043494Y037217*
X043486Y037228*
X043476Y037238*
X043466Y037248*
X043456Y037257*
X043444Y037265*
X043433Y037273*
X04342Y037279*
X043407Y037285*
X043394Y03729*
X043381Y037294*
X043367Y037296*
X043353Y037298*
X043339Y037299*
X043326*
X043312Y037298*
X043298Y037296*
X043284Y037294*
X043271Y03729*
X043258Y037285*
X043245Y037279*
X043233Y037273*
X043221Y037265*
X043209Y037257*
X043199Y037248*
X043189Y037238*
X043179Y037228*
X043171Y037217*
X043163Y037205*
X043156Y037193*
X04315Y037181*
X043145Y037168*
X04314Y037155*
X043137Y037141*
X043134Y037127*
X043133Y037113*
X043133Y0371*
X043133Y037086*
X043134Y037072*
X043137Y037058*
X04314Y037044*
X043145Y037031*
X04315Y037018*
X043156Y037006*
X043163Y036994*
X043171Y036982*
X043179Y036971*
X043189Y036961*
X043199Y036951*
X043209Y036942*
X043221Y036934*
X043233Y036926*
X043245Y03692*
X043258Y036914*
X043271Y036909*
X043284Y036905*
X043298Y036903*
X043312Y036901*
X043326Y0369*
X043339*
X043353Y036901*
X043367Y036903*
X043381Y036905*
X043394Y036909*
X043407Y036914*
X04342Y03692*
X043433Y036926*
X043444Y036934*
X043456Y036942*
X043466Y036951*
X043476Y036961*
X043486Y036971*
X043494Y036982*
X043502Y036994*
X043509Y037006*
X043515Y037018*
X04352Y037031*
X043525Y037044*
X043528Y037058*
X043531Y037072*
X043532Y037086*
X043533Y0371*
X04125D02*
D01*
X041249Y037113*
X041248Y037127*
X041245Y037141*
X041242Y037155*
X041237Y037168*
X041232Y037181*
X041226Y037193*
X041219Y037205*
X041211Y037217*
X041203Y037228*
X041193Y037238*
X041183Y037248*
X041173Y037257*
X041161Y037265*
X04115Y037273*
X041137Y037279*
X041124Y037285*
X041111Y03729*
X041098Y037294*
X041084Y037296*
X04107Y037298*
X041056Y037299*
X041043*
X041029Y037298*
X041015Y037296*
X041001Y037294*
X040988Y03729*
X040975Y037285*
X040962Y037279*
X04095Y037273*
X040938Y037265*
X040926Y037257*
X040916Y037248*
X040906Y037238*
X040896Y037228*
X040888Y037217*
X04088Y037205*
X040873Y037193*
X040867Y037181*
X040862Y037168*
X040857Y037155*
X040854Y037141*
X040851Y037127*
X04085Y037113*
X04085Y0371*
X04085Y037086*
X040851Y037072*
X040854Y037058*
X040857Y037044*
X040862Y037031*
X040867Y037018*
X040873Y037006*
X04088Y036994*
X040888Y036982*
X040896Y036971*
X040906Y036961*
X040916Y036951*
X040926Y036942*
X040938Y036934*
X04095Y036926*
X040962Y03692*
X040975Y036914*
X040988Y036909*
X041001Y036905*
X041015Y036903*
X041029Y036901*
X041043Y0369*
X041056*
X04107Y036901*
X041084Y036903*
X041098Y036905*
X041111Y036909*
X041124Y036914*
X041137Y03692*
X04115Y036926*
X041161Y036934*
X041173Y036942*
X041183Y036951*
X041193Y036961*
X041203Y036971*
X041211Y036982*
X041219Y036994*
X041226Y037006*
X041232Y037018*
X041237Y037031*
X041242Y037044*
X041245Y037058*
X041248Y037072*
X041249Y037086*
X04125Y0371*
X042352Y03521D02*
D01*
X042351Y035223*
X04235Y035237*
X042347Y035251*
X042344Y035265*
X042339Y035278*
X042334Y035291*
X042328Y035303*
X042321Y035315*
X042313Y035327*
X042305Y035338*
X042295Y035348*
X042285Y035358*
X042275Y035367*
X042263Y035375*
X042252Y035383*
X042239Y035389*
X042226Y035395*
X042213Y0354*
X0422Y035404*
X042186Y035406*
X042172Y035408*
X042158Y035409*
X042145*
X042131Y035408*
X042117Y035406*
X042103Y035404*
X04209Y0354*
X042077Y035395*
X042064Y035389*
X042052Y035383*
X04204Y035375*
X042028Y035367*
X042018Y035358*
X042008Y035348*
X041998Y035338*
X04199Y035327*
X041982Y035315*
X041975Y035303*
X041969Y035291*
X041964Y035278*
X041959Y035265*
X041956Y035251*
X041953Y035237*
X041952Y035223*
X041952Y03521*
X041952Y035196*
X041953Y035182*
X041956Y035168*
X041959Y035154*
X041964Y035141*
X041969Y035128*
X041975Y035116*
X041982Y035104*
X04199Y035092*
X041998Y035081*
X042008Y035071*
X042018Y035061*
X042028Y035052*
X04204Y035044*
X042052Y035036*
X042064Y03503*
X042077Y035024*
X04209Y035019*
X042103Y035015*
X042117Y035013*
X042131Y035011*
X042145Y03501*
X042158*
X042172Y035011*
X042186Y035013*
X0422Y035015*
X042213Y035019*
X042226Y035024*
X042239Y03503*
X042252Y035036*
X042263Y035044*
X042275Y035052*
X042285Y035061*
X042295Y035071*
X042305Y035081*
X042313Y035092*
X042321Y035104*
X042328Y035116*
X042334Y035128*
X042339Y035141*
X042344Y035154*
X042347Y035168*
X04235Y035182*
X042351Y035196*
X042352Y03521*
X0426Y0311D02*
D01*
X042599Y031113*
X042598Y031127*
X042595Y031141*
X042592Y031155*
X042587Y031168*
X042582Y031181*
X042576Y031193*
X042569Y031205*
X042561Y031217*
X042553Y031228*
X042543Y031238*
X042533Y031248*
X042523Y031257*
X042511Y031265*
X0425Y031273*
X042487Y031279*
X042474Y031285*
X042461Y03129*
X042448Y031294*
X042434Y031296*
X04242Y031298*
X042406Y031299*
X042393*
X042379Y031298*
X042365Y031296*
X042351Y031294*
X042338Y03129*
X042325Y031285*
X042312Y031279*
X0423Y031273*
X042288Y031265*
X042276Y031257*
X042266Y031248*
X042256Y031238*
X042246Y031228*
X042238Y031217*
X04223Y031205*
X042223Y031193*
X042217Y031181*
X042212Y031168*
X042207Y031155*
X042204Y031141*
X042201Y031127*
X0422Y031113*
X0422Y0311*
X0422Y031086*
X042201Y031072*
X042204Y031058*
X042207Y031044*
X042212Y031031*
X042217Y031018*
X042223Y031006*
X04223Y030994*
X042238Y030982*
X042246Y030971*
X042256Y030961*
X042266Y030951*
X042276Y030942*
X042288Y030934*
X0423Y030926*
X042312Y03092*
X042325Y030914*
X042338Y030909*
X042351Y030905*
X042365Y030903*
X042379Y030901*
X042393Y0309*
X042406*
X04242Y030901*
X042434Y030903*
X042448Y030905*
X042461Y030909*
X042474Y030914*
X042487Y03092*
X0425Y030926*
X042511Y030934*
X042523Y030942*
X042533Y030951*
X042543Y030961*
X042553Y030971*
X042561Y030982*
X042569Y030994*
X042576Y031006*
X042582Y031018*
X042587Y031031*
X042592Y031044*
X042595Y031058*
X042598Y031072*
X042599Y031086*
X0426Y0311*
Y0331D02*
D01*
X042599Y033113*
X042598Y033127*
X042595Y033141*
X042592Y033155*
X042587Y033168*
X042582Y033181*
X042576Y033193*
X042569Y033205*
X042561Y033217*
X042553Y033228*
X042543Y033238*
X042533Y033248*
X042523Y033257*
X042511Y033265*
X0425Y033273*
X042487Y033279*
X042474Y033285*
X042461Y03329*
X042448Y033294*
X042434Y033296*
X04242Y033298*
X042406Y033299*
X042393*
X042379Y033298*
X042365Y033296*
X042351Y033294*
X042338Y03329*
X042325Y033285*
X042312Y033279*
X0423Y033273*
X042288Y033265*
X042276Y033257*
X042266Y033248*
X042256Y033238*
X042246Y033228*
X042238Y033217*
X04223Y033205*
X042223Y033193*
X042217Y033181*
X042212Y033168*
X042207Y033155*
X042204Y033141*
X042201Y033127*
X0422Y033113*
X0422Y0331*
X0422Y033086*
X042201Y033072*
X042204Y033058*
X042207Y033044*
X042212Y033031*
X042217Y033018*
X042223Y033006*
X04223Y032994*
X042238Y032982*
X042246Y032971*
X042256Y032961*
X042266Y032951*
X042276Y032942*
X042288Y032934*
X0423Y032926*
X042312Y03292*
X042325Y032914*
X042338Y032909*
X042351Y032905*
X042365Y032903*
X042379Y032901*
X042393Y0329*
X042406*
X04242Y032901*
X042434Y032903*
X042448Y032905*
X042461Y032909*
X042474Y032914*
X042487Y03292*
X0425Y032926*
X042511Y032934*
X042523Y032942*
X042533Y032951*
X042543Y032961*
X042553Y032971*
X042561Y032982*
X042569Y032994*
X042576Y033006*
X042582Y033018*
X042587Y033031*
X042592Y033044*
X042595Y033058*
X042598Y033072*
X042599Y033086*
X0426Y0331*
G54D72*
X043453Y0371D02*
D01*
X043452Y037108*
X043451Y037116*
X04345Y037124*
X043448Y037133*
X043445Y037141*
X043442Y037148*
X043438Y037156*
X043434Y037163*
X04343Y03717*
X043424Y037177*
X043419Y037183*
X043413Y037189*
X043406Y037194*
X0434Y037199*
X043393Y037203*
X043385Y037207*
X043377Y037211*
X04337Y037214*
X043362Y037216*
X043353Y037218*
X043345Y037219*
X043337Y037219*
X043328*
X04332Y037219*
X043312Y037218*
X043303Y037216*
X043295Y037214*
X043288Y037211*
X04328Y037207*
X043273Y037203*
X043265Y037199*
X043259Y037194*
X043252Y037189*
X043246Y037183*
X043241Y037177*
X043235Y03717*
X043231Y037163*
X043227Y037156*
X043223Y037148*
X04322Y037141*
X043217Y037133*
X043215Y037124*
X043214Y037116*
X043213Y037108*
X043213Y0371*
X043213Y037091*
X043214Y037083*
X043215Y037075*
X043217Y037066*
X04322Y037058*
X043223Y037051*
X043227Y037043*
X043231Y037036*
X043235Y037029*
X043241Y037022*
X043246Y037016*
X043252Y03701*
X043259Y037005*
X043265Y037*
X043273Y036996*
X04328Y036992*
X043288Y036988*
X043295Y036985*
X043303Y036983*
X043312Y036981*
X04332Y03698*
X043328Y03698*
X043337*
X043345Y03698*
X043353Y036981*
X043362Y036983*
X04337Y036985*
X043377Y036988*
X043385Y036992*
X043393Y036996*
X0434Y037*
X043406Y037005*
X043413Y03701*
X043419Y037016*
X043424Y037022*
X04343Y037029*
X043434Y037036*
X043438Y037043*
X043442Y037051*
X043445Y037058*
X043448Y037066*
X04345Y037075*
X043451Y037083*
X043452Y037091*
X043453Y0371*
X04117D02*
D01*
X041169Y037108*
X041168Y037116*
X041167Y037124*
X041165Y037133*
X041162Y037141*
X041159Y037148*
X041155Y037156*
X041151Y037163*
X041147Y03717*
X041141Y037177*
X041136Y037183*
X04113Y037189*
X041123Y037194*
X041117Y037199*
X04111Y037203*
X041102Y037207*
X041094Y037211*
X041087Y037214*
X041079Y037216*
X04107Y037218*
X041062Y037219*
X041054Y037219*
X041045*
X041037Y037219*
X041029Y037218*
X04102Y037216*
X041012Y037214*
X041005Y037211*
X040997Y037207*
X04099Y037203*
X040982Y037199*
X040976Y037194*
X040969Y037189*
X040963Y037183*
X040958Y037177*
X040952Y03717*
X040948Y037163*
X040944Y037156*
X04094Y037148*
X040937Y037141*
X040934Y037133*
X040932Y037124*
X040931Y037116*
X04093Y037108*
X04093Y0371*
X04093Y037091*
X040931Y037083*
X040932Y037075*
X040934Y037066*
X040937Y037058*
X04094Y037051*
X040944Y037043*
X040948Y037036*
X040952Y037029*
X040958Y037022*
X040963Y037016*
X040969Y03701*
X040976Y037005*
X040982Y037*
X04099Y036996*
X040997Y036992*
X041005Y036988*
X041012Y036985*
X04102Y036983*
X041029Y036981*
X041037Y03698*
X041045Y03698*
X041054*
X041062Y03698*
X04107Y036981*
X041079Y036983*
X041087Y036985*
X041094Y036988*
X041102Y036992*
X04111Y036996*
X041117Y037*
X041123Y037005*
X04113Y03701*
X041136Y037016*
X041141Y037022*
X041147Y037029*
X041151Y037036*
X041155Y037043*
X041159Y037051*
X041162Y037058*
X041165Y037066*
X041167Y037075*
X041168Y037083*
X041169Y037091*
X04117Y0371*
X042272Y03521D02*
D01*
X042271Y035218*
X04227Y035226*
X042269Y035234*
X042267Y035243*
X042264Y035251*
X042261Y035258*
X042257Y035266*
X042253Y035273*
X042249Y03528*
X042243Y035287*
X042238Y035293*
X042232Y035299*
X042225Y035304*
X042219Y035309*
X042212Y035313*
X042204Y035317*
X042196Y035321*
X042189Y035324*
X042181Y035326*
X042172Y035328*
X042164Y035329*
X042156Y035329*
X042147*
X042139Y035329*
X042131Y035328*
X042122Y035326*
X042114Y035324*
X042107Y035321*
X042099Y035317*
X042092Y035313*
X042084Y035309*
X042078Y035304*
X042071Y035299*
X042065Y035293*
X04206Y035287*
X042054Y03528*
X04205Y035273*
X042046Y035266*
X042042Y035258*
X042039Y035251*
X042036Y035243*
X042034Y035234*
X042033Y035226*
X042032Y035218*
X042032Y03521*
X042032Y035201*
X042033Y035193*
X042034Y035185*
X042036Y035176*
X042039Y035168*
X042042Y035161*
X042046Y035153*
X04205Y035146*
X042054Y035139*
X04206Y035132*
X042065Y035126*
X042071Y03512*
X042078Y035115*
X042084Y03511*
X042092Y035106*
X042099Y035102*
X042107Y035098*
X042114Y035095*
X042122Y035093*
X042131Y035091*
X042139Y03509*
X042147Y03509*
X042156*
X042164Y03509*
X042172Y035091*
X042181Y035093*
X042189Y035095*
X042196Y035098*
X042204Y035102*
X042212Y035106*
X042219Y03511*
X042225Y035115*
X042232Y03512*
X042238Y035126*
X042243Y035132*
X042249Y035139*
X042253Y035146*
X042257Y035153*
X042261Y035161*
X042264Y035168*
X042267Y035176*
X042269Y035185*
X04227Y035193*
X042271Y035201*
X042272Y03521*
M02*