%FSTAX24Y24*%
%MOIN*%
%SFA1B1*%

%IPPOS*%
%ADD16C,0.005000*%
%LNpcb1-1*%
%LPD*%
G54D16*
X065471Y040521D02*
X066731D01*
X066101Y039891D02*
Y041151D01*
X065471Y030679D02*
X066731D01*
X066101Y030049D02*
Y031309D01*
X066445Y033964D02*
X066874D01*
X06666Y03375D02*
Y034179D01*
X066445Y035055D02*
X066874D01*
X06666Y03484D02*
Y035269D01*
X066445Y036145D02*
X066874D01*
X06666Y035931D02*
Y03636D01*
X066445Y037236D02*
X066874D01*
X06666Y037021D02*
Y03745D01*
X065327Y036691D02*
X065756D01*
X065542Y036476D02*
Y036905D01*
X065327Y037781D02*
X065756D01*
X065542Y037567D02*
Y037996D01*
X065327Y033419D02*
X065756D01*
X065542Y033204D02*
Y033633D01*
X065327Y034509D02*
X065756D01*
X065542Y034295D02*
Y034724D01*
X065327Y0356D02*
X065756D01*
X065542Y035385D02*
Y035815D01*
X053473Y03045D02*
X053827D01*
X05365Y030273D02*
Y030627D01*
X052473Y03045D02*
X052827D01*
X05265Y030273D02*
Y030627D01*
X051473Y03045D02*
X051827D01*
X05165Y030273D02*
Y030627D01*
X050473Y03045D02*
X050827D01*
X05065Y030273D02*
Y030627D01*
X065244Y04855D02*
X065756D01*
X0655Y048294D02*
Y048806D01*
X065244Y04655D02*
X065756D01*
X0655Y046294D02*
Y046806D01*
X043176Y0371D02*
X043491D01*
X043333Y036943D02*
Y037257D01*
X040893Y0371D02*
X041207D01*
X04105Y036943D02*
Y037257D01*
X041995Y03521D02*
X04231D01*
X042152Y035053D02*
Y035368D01*
X042144Y0311D02*
X042656D01*
X0424Y030844D02*
Y031356D01*
X042144Y0331D02*
X042656D01*
X0424Y032844D02*
Y033356D01*
X0524Y0471D02*
X0527D01*
X05255Y04695D02*
Y04725D01*
X0514Y0471D02*
X0517D01*
X05155Y04695D02*
Y04725D01*
X0504Y0471D02*
X0507D01*
X05055Y04695D02*
Y04725D01*
X0494Y0471D02*
X0497D01*
X04955Y04695D02*
Y04725D01*
X0474Y0471D02*
X0477D01*
X04755Y04695D02*
Y04725D01*
X0464Y0471D02*
X0467D01*
X04655Y04695D02*
Y04725D01*
X0454Y0471D02*
X0457D01*
X04555Y04695D02*
Y04725D01*
X04426Y040306D02*
X044693D01*
X044476Y04009D02*
Y040523D01*
X041307Y041094D02*
X04174D01*
X041524Y040877D02*
Y04131D01*
X045314Y0379D02*
X045786D01*
X04555Y037664D02*
Y038136D01*
X045314Y0359D02*
X045786D01*
X04555Y035664D02*
Y036136D01*
X058103Y033516D02*
X058497D01*
X0583Y033319D02*
Y033713D01*
X058103Y035484D02*
X058497D01*
X0583Y035287D02*
Y035681D01*
X046873Y0395D02*
X047227D01*
X04705Y039323D02*
Y039677D01*
X047873Y0395D02*
X048227D01*
X04805Y039323D02*
Y039677D01*
X048873Y0395D02*
X049227D01*
X04905Y039323D02*
Y039677D01*
X049873Y0395D02*
X050227D01*
X05005Y039323D02*
Y039677D01*
X044161Y04665D02*
X044239D01*
X0442Y046611D02*
Y046689D01*
X044061Y04275D02*
X044139D01*
X0441Y042711D02*
Y042789D01*
X057811Y0394D02*
X057889D01*
X05785Y039361D02*
Y039439D01*
X059761Y0345D02*
X059839D01*
X0598Y034461D02*
Y034539D01*
X064111Y0342D02*
X064189D01*
X06415Y034161D02*
Y034239D01*
X052361Y03595D02*
X052439D01*
X0524Y035911D02*
Y035989D01*
X047261Y0352D02*
X047339D01*
X0473Y035161D02*
Y035239D01*
X038511Y03515D02*
X038589D01*
X03855Y035111D02*
Y035189D01*
X047511Y02985D02*
X047589D01*
X04755Y029811D02*
Y029889D01*
X038511Y0298D02*
X038589D01*
X03855Y029761D02*
Y029839D01*
X038511Y0495D02*
X038589D01*
X03855Y049461D02*
Y049539D01*
X047511Y04955D02*
X047589D01*
X04755Y049511D02*
Y049589D01*
X054861Y0299D02*
X054939D01*
X0549Y029861D02*
Y029939D01*
X068711Y02995D02*
X068789D01*
X06875Y029911D02*
Y029989D01*
X063011Y03D02*
X063089D01*
X06305Y029961D02*
Y030039D01*
X068611Y03925D02*
X068689D01*
X06865Y039211D02*
Y039289D01*
X062911Y0393D02*
X062989D01*
X06295Y039261D02*
Y039339D01*
X068611Y0413D02*
X068689D01*
X06865Y041261D02*
Y041339D01*
X062911Y04135D02*
X062989D01*
X06295Y041311D02*
Y041389D01*
X054761Y04135D02*
X054839D01*
X0548Y041311D02*
Y041389D01*
X049761Y04135D02*
X049839D01*
X0498Y041311D02*
Y041389D01*
X062911Y0496D02*
X062989D01*
X06295Y049561D02*
Y049639D01*
X054761Y0496D02*
X054839D01*
X0548Y049561D02*
Y049639D01*
X049761Y0496D02*
X049839D01*
X0498Y049561D02*
Y049639D01*
X049761Y0434D02*
X049839D01*
X0498Y043361D02*
Y043439D01*
X054761Y0434D02*
X054839D01*
X0548Y043361D02*
Y043439D01*
X062911Y0434D02*
X062989D01*
X06295Y043361D02*
Y043439D01*
X068611Y04335D02*
X068689D01*
X06865Y043311D02*
Y043389D01*
X045961Y0316D02*
X046039D01*
X046Y031561D02*
Y031639D01*
X056561Y0329D02*
X056639D01*
X0566Y032861D02*
Y032939D01*
X054911Y0313D02*
X054989D01*
X05495Y031261D02*
Y031339D01*
X055206Y032155D02*
X055285D01*
X055245Y032115D02*
Y032194D01*
X055812Y030752D02*
X055891D01*
X055852Y030712D02*
Y030791D01*
X055818Y035042D02*
X055897D01*
X055858Y035003D02*
Y035082D01*
X055812Y034648D02*
X055891D01*
X055852Y034609D02*
Y034688D01*
X064811Y0339D02*
X064889D01*
X06485Y033861D02*
Y033939D01*
X063361Y03355D02*
X063439D01*
X0634Y033511D02*
Y033589D01*
X064161Y0364D02*
X064239D01*
X0642Y036361D02*
Y036439D01*
X052561Y03295D02*
X052639D01*
X0526Y032911D02*
Y032989D01*
X053611Y0329D02*
X053689D01*
X05365Y032861D02*
Y032939D01*
X053257Y037796D02*
X053336D01*
X053296Y037757D02*
Y037836D01*
X053257Y032454D02*
X053336D01*
X053296Y032414D02*
Y032493D01*
M02*