%FSTAX24Y24*%
%MOIN*%
%SFA1B1*%

%IPPOS*%
%AMD38*
4,1,8,-0.036500,0.016300,-0.036500,-0.016300,-0.016300,-0.036500,0.016300,-0.036500,0.036500,-0.016300,0.036500,0.016300,0.016300,0.036500,-0.016300,0.036500,-0.036500,0.016300,0.0*
1,1,0.040400,-0.016300,0.016300*
1,1,0.040400,-0.016300,-0.016300*
1,1,0.040400,0.016300,-0.016300*
1,1,0.040400,0.016300,0.016300*
%
%AMD43*
4,1,8,-0.039400,0.061000,-0.039400,-0.061000,-0.017700,-0.082700,0.017700,-0.082700,0.039400,-0.061000,0.039400,0.061000,0.017700,0.082700,-0.017700,0.082700,-0.039400,0.061000,0.0*
1,1,0.043400,-0.017700,0.061000*
1,1,0.043400,-0.017700,-0.061000*
1,1,0.043400,0.017700,-0.061000*
1,1,0.043400,0.017700,0.061000*
%
%AMD44*
4,1,8,-0.061000,-0.039400,0.061000,-0.039400,0.082700,-0.017700,0.082700,0.017700,0.061000,0.039400,-0.061000,0.039400,-0.082700,0.017700,-0.082700,-0.017700,-0.061000,-0.039400,0.0*
1,1,0.043400,-0.061000,-0.017700*
1,1,0.043400,0.061000,-0.017700*
1,1,0.043400,0.061000,0.017700*
1,1,0.043400,-0.061000,0.017700*
%
%ADD36C,0.197000*%
%ADD37C,0.073000*%
G04~CAMADD=38~8~0.0~0.0~730.0~730.0~202.0~0.0~15~0.0~0.0~0.0~0.0~0~0.0~0.0~0.0~0.0~0~0.0~0.0~0.0~90.0~730.0~730.0*
%ADD38D38*%
%ADD39O,0.073000X0.098000*%
%ADD40R,0.073000X0.098000*%
%ADD41C,0.110400*%
%ADD42R,0.110400X0.110400*%
G04~CAMADD=43~8~0.0~0.0~1655.0~789.0~217.0~0.0~15~0.0~0.0~0.0~0.0~0~0.0~0.0~0.0~0.0~0~0.0~0.0~0.0~90.0~788.0~1654.0*
%ADD43D43*%
G04~CAMADD=44~8~0.0~0.0~1655.0~789.0~217.0~0.0~15~0.0~0.0~0.0~0.0~0~0.0~0.0~0.0~0.0~0~0.0~0.0~0.0~180.0~1654.0~788.0*
%ADD44D44*%
%ADD45C,0.050000*%
%ADD46R,0.050000X0.050000*%
%ADD47C,0.098600*%
%ADD48C,0.094600*%
%ADD49R,0.094600X0.094600*%
%ADD50R,0.068000X0.078000*%
%ADD51O,0.068000X0.078000*%
%ADD52C,0.023700*%
%LNpcb1-1*%
%LPD*%
G54D36*
X066101Y040521D03*
Y030679D03*
G54D37*
X06666Y033964D03*
Y035055D03*
Y036145D03*
Y037236D03*
X065542Y036691D03*
Y033419D03*
Y034509D03*
Y0356D03*
G54D38*
X065542Y037781D03*
G54D39*
X05365Y03045D03*
X05265D03*
X05165D03*
G54D40*
X05065Y03045D03*
G54D41*
X0655Y04855D03*
X0424Y0311D03*
G54D42*
X0655Y04655D03*
X0424Y0331D03*
G54D43*
X043333Y0371D03*
X04105D03*
G54D44*
X042152Y03521D03*
G54D45*
X05255Y0471D03*
X05155D03*
X05055D03*
X04955D03*
X04755D03*
X04655D03*
G54D46*
X04555Y0471D03*
G54D47*
X044476Y040306D03*
X041524Y041094D03*
G54D48*
X04555Y0379D03*
Y0359D03*
X0583Y033516D03*
G54D49*
X0583Y035484D03*
G54D50*
X04705Y0395D03*
G54D51*
X04805Y0395D03*
X04905D03*
X05005D03*
G54D52*
X0442Y04665D03*
X0441Y04275D03*
X05785Y0394D03*
X0598Y0345D03*
X06415Y0342D03*
X0524Y03595D03*
X0473Y0352D03*
X03855Y03515D03*
X04755Y02985D03*
X03855Y0298D03*
Y0495D03*
X04755Y04955D03*
X0549Y0299D03*
X06875Y02995D03*
X06305Y03D03*
X06865Y03925D03*
X06295Y0393D03*
X06865Y0413D03*
X06295Y04135D03*
X0548D03*
X0498D03*
X06295Y0496D03*
X0548D03*
X0498D03*
Y0434D03*
X0548D03*
X06295D03*
X06865Y04335D03*
X046Y0316D03*
X0566Y0329D03*
X05495Y0313D03*
X055245Y032155D03*
X055852Y030752D03*
X055858Y035042D03*
X055852Y034648D03*
X06485Y0339D03*
X0634Y03355D03*
X0642Y0364D03*
X0526Y03295D03*
X05365Y0329D03*
X053296Y037796D03*
Y032454D03*
M02*