%FSTAX24Y24*%
%MOIN*%
%SFA1B1*%

%IPPOS*%
%AMD58*
4,1,8,-0.032500,0.016300,-0.032500,-0.016300,-0.016300,-0.032500,0.016300,-0.032500,0.032500,-0.016300,0.032500,0.016300,0.016300,0.032500,-0.016300,0.032500,-0.032500,0.016300,0.0*
1,1,0.032400,-0.016300,0.016300*
1,1,0.032400,-0.016300,-0.016300*
1,1,0.032400,0.016300,-0.016300*
1,1,0.032400,0.016300,0.016300*
%
%AMD63*
4,1,8,-0.035400,0.061000,-0.035400,-0.061000,-0.017700,-0.078700,0.017700,-0.078700,0.035400,-0.061000,0.035400,0.061000,0.017700,0.078700,-0.017700,0.078700,-0.035400,0.061000,0.0*
1,1,0.035400,-0.017700,0.061000*
1,1,0.035400,-0.017700,-0.061000*
1,1,0.035400,0.017700,-0.061000*
1,1,0.035400,0.017700,0.061000*
%
%AMD64*
4,1,8,-0.061000,-0.035400,0.061000,-0.035400,0.078700,-0.017700,0.078700,0.017700,0.061000,0.035400,-0.061000,0.035400,-0.078700,0.017700,-0.078700,-0.017700,-0.061000,-0.035400,0.0*
1,1,0.035400,-0.061000,-0.017700*
1,1,0.035400,0.061000,-0.017700*
1,1,0.035400,0.061000,0.017700*
1,1,0.035400,-0.061000,0.017700*
%
%ADD12C,0.010000*%
%ADD45C,0.050000*%
%ADD46R,0.050000X0.050000*%
%ADD54C,0.020000*%
%ADD56C,0.189000*%
%ADD57C,0.065000*%
G04~CAMADD=58~8~0.0~0.0~650.0~650.0~162.0~0.0~15~0.0~0.0~0.0~0.0~0~0.0~0.0~0.0~0.0~0~0.0~0.0~0.0~90.0~650.0~650.0*
%ADD58D58*%
%ADD59O,0.065000X0.090000*%
%ADD60R,0.065000X0.090000*%
%ADD61C,0.102400*%
%ADD62R,0.102400X0.102400*%
G04~CAMADD=63~8~0.0~0.0~1575.0~709.0~177.0~0.0~15~0.0~0.0~0.0~0.0~0~0.0~0.0~0.0~0.0~0~0.0~0.0~0.0~90.0~708.0~1574.0*
%ADD63D63*%
G04~CAMADD=64~8~0.0~0.0~1575.0~709.0~177.0~0.0~15~0.0~0.0~0.0~0.0~0~0.0~0.0~0.0~0.0~0~0.0~0.0~0.0~180.0~1574.0~708.0*
%ADD64D64*%
%ADD65C,0.090600*%
%ADD66C,0.086600*%
%ADD67R,0.086600X0.086600*%
%ADD68R,0.060000X0.070000*%
%ADD69O,0.060000X0.070000*%
%ADD70C,0.015700*%
%LNpcb1-1*%
%LPD*%
G36*
X04805Y03995D02*
X047767Y039833D01*
X04765Y03955*
Y03945*
X047767Y039167*
X047778Y039162*
X047766Y039133*
Y033026*
X046524Y031784*
X046*
X04587Y03173*
X045816Y0316*
X04587Y03147*
X046Y031416*
X0466*
X04673Y03147*
X048004Y032744*
X04805Y032724*
Y02953*
X03813*
Y04987*
X04805*
Y03995*
G37*
G36*
X06982Y0428D02*
X04905D01*
Y04987*
X06982*
Y0428*
G37*
G36*
X069858Y041758D02*
X06995Y04172D01*
Y0294*
X04905*
Y039017*
X049356Y039144*
X049483Y03945*
X04905*
Y03955*
X049483*
X049356Y039856*
X04905Y039983*
Y04185*
X06982*
X069858Y041758*
G37*
%LNpcb1-2*%
%LPC*%
G36*
X047695Y04745D02*
X0476D01*
Y04715*
X0479*
Y047245*
X047695Y04745*
G37*
G36*
X0475D02*
X047405D01*
X0472Y047245*
Y04715*
X0475*
Y04745*
G37*
G36*
X0459D02*
X0456D01*
Y04715*
X0459*
Y04745*
G37*
G36*
X0455D02*
X0452D01*
Y04715*
X0455*
Y04745*
G37*
G36*
X046683Y04742D02*
X046417D01*
X04623Y047233*
Y046967*
X046417Y04678*
X046683*
X04687Y046967*
Y047233*
X046683Y04742*
G37*
G36*
X0479Y04705D02*
X0476D01*
Y04675*
X047695*
X0479Y046955*
Y04705*
G37*
G36*
X0475D02*
X0472D01*
Y046955*
X047405Y04675*
X0475*
Y04705*
G37*
G36*
X0459D02*
X0456D01*
Y04675*
X0459*
Y04705*
G37*
G36*
X0455D02*
X0452D01*
Y04675*
X0455*
Y04705*
G37*
G36*
X041753Y041646D02*
X041574D01*
Y041144*
X042076*
Y041323*
X041753Y041646*
G37*
G36*
X041474D02*
X041295D01*
X040971Y041323*
Y041144*
X041474*
Y041646*
G37*
G36*
X042076Y041044D02*
X041574D01*
Y040541*
X041753*
X042076Y040865*
Y041044*
G37*
G36*
X041474D02*
X040971D01*
Y040865*
X041295Y040541*
X041474*
Y041044*
G37*
G36*
X044693Y040829D02*
X04426D01*
X043954Y040523*
Y04009*
X04426Y039784*
X044693*
X044999Y04009*
Y040523*
X044693Y040829*
G37*
G36*
X04745Y03995D02*
X0471D01*
Y03955*
X04745*
Y03995*
G37*
G36*
X047D02*
X04665D01*
Y03955*
X047*
Y03995*
G37*
G36*
X04745Y03945D02*
X0471D01*
Y03905*
X04745*
Y03945*
G37*
G36*
X047D02*
X04665D01*
Y03905*
X047*
Y03945*
G37*
G36*
X045758Y038403D02*
X045342D01*
X045047Y038108*
Y037692*
X045342Y037397*
X045758*
X046053Y037692*
Y038108*
X045758Y038403*
G37*
G36*
X041227Y03801D02*
X0411D01*
Y03715*
X041527*
Y03771*
X041439Y037922*
X041227Y03801*
G37*
G36*
X041D02*
X040873D01*
X040661Y037922*
X040573Y03771*
Y03715*
X041*
Y03801*
G37*
G36*
X043511Y037978D02*
X043156D01*
X042967Y037899*
X042889Y03771*
Y03649*
X042967Y036301*
X043156Y036222*
X043511*
X0437Y036301*
X043778Y03649*
Y03771*
X0437Y037899*
X043511Y037978*
G37*
G36*
X041527Y03705D02*
X0411D01*
Y03619*
X041227*
X041439Y036278*
X041527Y03649*
Y03705*
G37*
G36*
X041D02*
X040573D01*
Y03649*
X040661Y036278*
X040873Y03619*
X041*
Y03705*
G37*
G36*
X045758Y036403D02*
X045342D01*
X045047Y036108*
Y035692*
X045342Y035397*
X045758*
X046053Y035692*
Y036108*
X045758Y036403*
G37*
G36*
X042763Y035687D02*
X042202D01*
Y03526*
X043063*
Y035387*
X042975Y0356*
X042763Y035687*
G37*
G36*
X042102D02*
X041542D01*
X04133Y0356*
X041242Y035387*
Y03526*
X042102*
Y035687*
G37*
G36*
X043063Y03516D02*
X042202D01*
Y034733*
X042763*
X042975Y034821*
X043063Y035033*
Y03516*
G37*
G36*
X042102D02*
X041242D01*
Y035033*
X04133Y034821*
X041542Y034733*
X042102*
Y03516*
G37*
G36*
X042982Y033682D02*
X041818D01*
Y032518*
X042982*
Y033682*
G37*
G36*
X042653Y031712D02*
X04245D01*
Y03115*
X043012*
Y031353*
X042653Y031712*
G37*
G36*
X04235D02*
X042147D01*
X041788Y031353*
Y03115*
X04235*
Y031712*
G37*
G36*
X043012Y03105D02*
X04245D01*
Y030488*
X042653*
X043012Y030847*
Y03105*
G37*
G36*
X04235D02*
X041788D01*
Y030847*
X042147Y030488*
X04235*
Y03105*
G37*
G36*
X065741Y049132D02*
X065259D01*
X064918Y048791*
Y048309*
X065259Y047968*
X065741*
X066082Y048309*
Y048791*
X065741Y049132*
G37*
G36*
X051695Y04745D02*
X0516D01*
Y04715*
X0519*
Y047245*
X051695Y04745*
G37*
G36*
X0515D02*
X051405D01*
X0512Y047245*
Y04715*
X0515*
Y04745*
G37*
G36*
X052683Y04742D02*
X052417D01*
X05223Y047233*
Y046967*
X052417Y04678*
X052683*
X05287Y046967*
Y047233*
X052683Y04742*
G37*
G36*
X050683D02*
X050417D01*
X05023Y047233*
Y046967*
X050417Y04678*
X050683*
X05087Y046967*
Y047233*
X050683Y04742*
G37*
G36*
X049683D02*
X049417D01*
X04923Y047233*
Y046967*
X049417Y04678*
X049683*
X04987Y046967*
Y047233*
X049683Y04742*
G37*
G36*
X0519Y04705D02*
X0516D01*
Y04675*
X051695*
X0519Y046955*
Y04705*
G37*
G36*
X0515D02*
X0512D01*
Y046955*
X051405Y04675*
X0515*
Y04705*
G37*
G36*
X066082Y047132D02*
X064918D01*
Y045968*
X066082*
Y047132*
G37*
G36*
X066521Y041536D02*
X06568D01*
X065086Y040942*
Y040101*
X06568Y039506*
X066521*
X067116Y040101*
Y040942*
X066521Y041536*
G37*
G36*
X05005Y03995D02*
X049767Y039833D01*
X04965Y03955*
Y03945*
X049767Y039167*
X05005Y03905*
X050333Y039167*
X05045Y03945*
Y03955*
X050333Y039833*
X05005Y03995*
G37*
G36*
X065704Y038195D02*
X065379D01*
X065201Y038121*
X065128Y037943*
Y037619*
X065201Y037441*
X065379Y037367*
X065704*
X065882Y037441*
X065956Y037619*
Y037943*
X065882Y038121*
X065704Y038195*
G37*
G36*
X066823Y037631D02*
X066496D01*
X066265Y037399*
Y037072*
X066496Y036841*
X066823*
X067055Y037072*
Y037399*
X066823Y037631*
G37*
G36*
X065705Y037085D02*
X065378D01*
X065147Y036854*
Y036527*
X065378Y036296*
X065705*
X065937Y036527*
Y036854*
X065705Y037085*
G37*
G36*
X066823Y03654D02*
X066496D01*
X066265Y036309*
Y035982*
X066496Y03575*
X066823*
X067055Y035982*
Y036309*
X066823Y03654*
G37*
G36*
X064262Y036549D02*
X064138D01*
X064051Y036462*
Y036338*
X064138Y036251*
X064165*
X064908Y035508*
X065Y03547*
X065147*
Y035436*
X065378Y035205*
X065705*
X065937Y035436*
Y035764*
X065705Y035995*
X065378*
X065147Y035764*
Y03573*
X065054*
X064349Y036435*
Y036462*
X064262Y036549*
G37*
G36*
X058803Y035987D02*
X057797D01*
Y034981*
X058803*
Y035987*
G37*
G36*
X066823Y03545D02*
X066496D01*
X066265Y035218*
Y034891*
X066496Y03466*
X066823*
X067055Y034891*
Y035218*
X066823Y03545*
G37*
G36*
X065705Y034904D02*
X065378D01*
X065147Y034673*
Y034346*
X065378Y034115*
X065705*
X065937Y034346*
Y034673*
X065705Y034904*
G37*
G36*
X064912Y034049D02*
X064788D01*
X064701Y033962*
Y033935*
X064446Y03368*
X06348*
X063462Y033699*
X063338*
X063251Y033612*
Y033488*
X063338Y033401*
X063462*
X06348Y03342*
X0645*
X064592Y033458*
X064885Y033751*
X064912*
X064999Y033838*
Y033962*
X064912Y034049*
G37*
G36*
X066823Y034359D02*
X066496D01*
X066265Y034128*
Y033801*
X066496Y033569*
X066823*
X067055Y033801*
Y034128*
X066823Y034359*
G37*
G36*
X065718Y033844D02*
X065592D01*
Y033469*
X065967*
Y033595*
X065718Y033844*
G37*
G36*
X065492D02*
X065366D01*
X065117Y033595*
Y033469*
X065492*
Y033844*
G37*
G36*
X058508Y034019D02*
X058092D01*
X057797Y033724*
Y033307*
X058092Y033013*
X058508*
X058803Y033307*
Y033724*
X058508Y034019*
G37*
G36*
X065967Y033369D02*
X065592D01*
Y032994*
X065718*
X065967Y033243*
Y033369*
G37*
G36*
X065492D02*
X065117D01*
Y033243*
X065366Y032994*
X065492*
Y033369*
G37*
G36*
X055919Y035191D02*
X055796D01*
X055709Y035104*
Y034981*
X055796Y034893*
X055823*
X055869Y034847*
X055848Y034797*
X05579*
X055703Y03471*
Y034587*
X055722Y034568*
Y030832*
X055703Y030813*
Y03069*
X05579Y030603*
X055913*
X056Y03069*
Y030813*
X055981Y030832*
Y034568*
X056Y034587*
Y034645*
X05605Y034666*
X05647Y034246*
Y03298*
X056451Y032962*
Y032838*
X056538Y032751*
X056662*
X056749Y032838*
Y032962*
X05673Y03298*
Y0343*
X056692Y034392*
X056007Y035077*
Y035104*
X055919Y035191*
G37*
G36*
X053358Y037945D02*
X053235D01*
X053148Y037858*
Y037735*
X053167Y037716*
Y032534*
X053148Y032515*
Y032392*
X053235Y032305*
X053358*
X053445Y032392*
Y032515*
X053426Y032534*
Y037716*
X053445Y037735*
Y037858*
X053358Y037945*
G37*
G36*
X055307Y032303D02*
X055184D01*
X055097Y032216*
Y032093*
X055115Y032074*
Y031649*
X054915Y031449*
X054888*
X054801Y031362*
Y031238*
X054888Y031151*
X055012*
X055099Y031238*
Y031265*
X055337Y031503*
X055375Y031595*
Y032074*
X055394Y032093*
Y032216*
X055307Y032303*
G37*
G36*
X0517Y031014D02*
Y0305D01*
X05211*
Y030575*
X051975Y0309*
X0517Y031014*
G37*
G36*
X0516D02*
X051325Y0309D01*
X05119Y030575*
Y0305*
X0516*
Y031014*
G37*
G36*
X051045Y03097D02*
X050255D01*
Y02993*
X051045*
Y03097*
G37*
G36*
X053712Y033049D02*
X053588D01*
X053501Y032962*
Y032838*
X05352Y03282*
Y030949*
X053348Y030877*
X053222Y030575*
Y030325*
X053348Y030023*
X05365Y029897*
X053952Y030023*
X054078Y030325*
Y030575*
X053952Y030877*
X05378Y030949*
Y03282*
X053799Y032838*
Y032962*
X053712Y033049*
G37*
G36*
X052662Y033099D02*
X052538D01*
X052451Y033012*
Y032888*
X052481Y032859*
Y030933*
X052348Y030877*
X052222Y030575*
Y030325*
X052348Y030023*
X05265Y029897*
X052952Y030023*
X053078Y030325*
Y030575*
X052952Y030877*
X052741Y030965*
Y032881*
X052749Y032888*
Y033012*
X052662Y033099*
G37*
G36*
X05211Y0304D02*
X0517D01*
Y029886*
X051975Y03*
X05211Y030325*
Y0304*
G37*
G36*
X0516D02*
X05119D01*
Y030325*
X051325Y03*
X0516Y029886*
Y0304*
G37*
G36*
X066521Y031694D02*
X06568D01*
X065086Y031099*
Y030258*
X06568Y029664*
X066521*
X067116Y030258*
Y031099*
X066521Y031694*
G37*
%LNpcb1-3*%
%LPD*%
G54D12*
X0566Y0329D02*
Y0343D01*
X055858Y035042D02*
X0566Y0343D01*
X0645Y03355D02*
X06485Y0339D01*
X0634Y03355D02*
X0645D01*
X05495Y0313D02*
X055245Y031595D01*
Y032155*
X055852Y030752D02*
Y034648D01*
X065Y0356D02*
X065542D01*
X0642Y0364D02*
X065Y0356D01*
X052611Y030489D02*
Y032939D01*
X0526Y03295D02*
X052611Y032939D01*
Y030489D02*
X05265Y03045D01*
X05365D02*
Y0329D01*
X053296Y032454D02*
Y037796D01*
G54D45*
X05255Y0471D03*
X05155D03*
X05055D03*
X04955D03*
X04755D03*
X04655D03*
G54D46*
X04555Y0471D03*
G54D54*
X047973Y039423D02*
X04805Y0395D01*
X04795Y03295D02*
Y039133D01*
X0466Y0316D02*
X04795Y03295D01*
Y039133D02*
X047973Y039156D01*
Y039423*
X046Y0316D02*
X0466D01*
G54D56*
X066101Y040521D03*
Y030679D03*
G54D57*
X06666Y033964D03*
Y035055D03*
Y036145D03*
Y037236D03*
X065542Y036691D03*
Y033419D03*
Y034509D03*
Y0356D03*
G54D58*
X065542Y037781D03*
G54D59*
X05365Y03045D03*
X05265D03*
X05165D03*
G54D60*
X05065Y03045D03*
G54D61*
X0655Y04855D03*
X0424Y0311D03*
G54D62*
X0655Y04655D03*
X0424Y0331D03*
G54D63*
X043333Y0371D03*
X04105D03*
G54D64*
X042152Y03521D03*
G54D65*
X044476Y040306D03*
X041524Y041094D03*
G54D66*
X04555Y0379D03*
Y0359D03*
X0583Y033516D03*
G54D67*
X0583Y035484D03*
G54D68*
X04705Y0395D03*
G54D69*
X04805Y0395D03*
X04905D03*
X05005D03*
G54D70*
X0442Y04665D03*
X0441Y04275D03*
X05785Y0394D03*
X0598Y0345D03*
X06415Y0342D03*
X0524Y03595D03*
X0473Y0352D03*
X03855Y03515D03*
X04755Y02985D03*
X03855Y0298D03*
Y0495D03*
X04755Y04955D03*
X0549Y0299D03*
X06875Y02995D03*
X06305Y03D03*
X06865Y03925D03*
X06295Y0393D03*
X06865Y0413D03*
X06295Y04135D03*
X0548D03*
X0498D03*
X06295Y0496D03*
X0548D03*
X0498D03*
Y0434D03*
X0548D03*
X06295D03*
X06865Y04335D03*
X046Y0316D03*
X0566Y0329D03*
X05495Y0313D03*
X055245Y032155D03*
X055852Y030752D03*
X055858Y035042D03*
X055852Y034648D03*
X06485Y0339D03*
X0634Y03355D03*
X0642Y0364D03*
X0526Y03295D03*
X05365Y0329D03*
X053296Y037796D03*
Y032454D03*
M02*