%FSTAX24Y24*%
%MOIN*%
%SFA1B1*%

%IPPOS*%
%AMD38*
4,1,8,-0.036500,0.016300,-0.036500,-0.016300,-0.016300,-0.036500,0.016300,-0.036500,0.036500,-0.016300,0.036500,0.016300,0.016300,0.036500,-0.016300,0.036500,-0.036500,0.016300,0.0*
1,1,0.040400,-0.016300,0.016300*
1,1,0.040400,-0.016300,-0.016300*
1,1,0.040400,0.016300,-0.016300*
1,1,0.040400,0.016300,0.016300*
%
%AMD43*
4,1,8,-0.039400,0.061000,-0.039400,-0.061000,-0.017700,-0.082700,0.017700,-0.082700,0.039400,-0.061000,0.039400,0.061000,0.017700,0.082700,-0.017700,0.082700,-0.039400,0.061000,0.0*
1,1,0.043400,-0.017700,0.061000*
1,1,0.043400,-0.017700,-0.061000*
1,1,0.043400,0.017700,-0.061000*
1,1,0.043400,0.017700,0.061000*
%
%AMD44*
4,1,8,-0.061000,-0.039400,0.061000,-0.039400,0.082700,-0.017700,0.082700,0.017700,0.061000,0.039400,-0.061000,0.039400,-0.082700,0.017700,-0.082700,-0.017700,-0.061000,-0.039400,0.0*
1,1,0.043400,-0.061000,-0.017700*
1,1,0.043400,0.061000,-0.017700*
1,1,0.043400,0.061000,0.017700*
1,1,0.043400,-0.061000,0.017700*
%
%ADD19C,0.053900*%
%ADD20R,0.037000X0.098000*%
%ADD21R,0.267000X0.273000*%
%ADD29R,0.055200X0.141900*%
%ADD30R,0.038000X0.038000*%
%ADD31R,0.086700X0.078900*%
%ADD32R,0.102500X0.078900*%
%ADD33O,0.082800X0.019800*%
%ADD34O,0.019800X0.082800*%
%ADD35R,0.068000X0.033600*%
%ADD36C,0.197000*%
%ADD37C,0.073000*%
G04~CAMADD=38~8~0.0~0.0~730.0~730.0~202.0~0.0~15~0.0~0.0~0.0~0.0~0~0.0~0.0~0.0~0.0~0~0.0~0.0~0.0~90.0~730.0~730.0*
%ADD38D38*%
%ADD39O,0.073000X0.098000*%
%ADD40R,0.073000X0.098000*%
%ADD41C,0.110400*%
%ADD42R,0.110400X0.110400*%
G04~CAMADD=43~8~0.0~0.0~1655.0~789.0~217.0~0.0~15~0.0~0.0~0.0~0.0~0~0.0~0.0~0.0~0.0~0~0.0~0.0~0.0~90.0~788.0~1654.0*
%ADD43D43*%
G04~CAMADD=44~8~0.0~0.0~1655.0~789.0~217.0~0.0~15~0.0~0.0~0.0~0.0~0~0.0~0.0~0.0~0.0~0~0.0~0.0~0.0~180.0~1654.0~788.0*
%ADD44D44*%
%ADD45C,0.050000*%
%ADD46R,0.050000X0.050000*%
%ADD47C,0.098600*%
%ADD48C,0.094600*%
%ADD49R,0.094600X0.094600*%
%ADD50R,0.068000X0.078000*%
%ADD51O,0.068000X0.078000*%
%ADD52C,0.023700*%
%LNpcb1-1*%
%LPD*%
G36*
X046931Y033535D02*
X046958Y033508D01*
X046973Y033472*
Y033452*
Y032948*
Y032928*
X046958Y032892*
X046931Y032865*
X046894Y03285*
X046375*
Y03355*
X046894*
X046931Y033535*
G37*
G36*
Y034535D02*
X046958Y034508D01*
X046973Y034472*
Y034452*
Y033948*
Y033928*
X046958Y033892*
X046931Y033865*
X046894Y03385*
X046375*
Y03455*
X046894*
X046931Y034535*
G37*
G36*
X050725Y03285D02*
X050206D01*
X050169Y032865*
X050142Y032892*
X050127Y032928*
Y032948*
Y033452*
Y033472*
X050142Y033508*
X050169Y033535*
X050206Y03355*
X050725*
Y03285*
G37*
G36*
Y03385D02*
X050206D01*
X050169Y033865*
X050142Y033892*
X050127Y033928*
Y033948*
Y034452*
Y034472*
X050142Y034508*
X050169Y034535*
X050206Y03455*
X050725*
Y03385*
G37*
G36*
X055958Y040558D02*
X055985Y040531D01*
X056Y040494*
Y040475*
Y039975*
X0553*
Y040475*
Y040494*
X055315Y040531*
X055342Y040558*
X055378Y040573*
X055922*
X055958Y040558*
G37*
G36*
X056958D02*
X056985Y040531D01*
X057Y040494*
Y040475*
Y039975*
X0563*
Y040475*
Y040494*
X056315Y040531*
X056342Y040558*
X056378Y040573*
X056922*
X056958Y040558*
G37*
G36*
X056Y043825D02*
Y043806D01*
X055985Y043769*
X055958Y043742*
X055922Y043727*
X055378*
X055342Y043742*
X055315Y043769*
X0553Y043806*
Y043825*
Y044325*
X056*
Y043825*
G37*
G36*
X057D02*
Y043806D01*
X056985Y043769*
X056958Y043742*
X056922Y043727*
X056378*
X056342Y043742*
X056315Y043769*
X0563Y043806*
Y043825*
Y044325*
X057*
Y043825*
G37*
G54D19*
X05565Y040274D03*
X05665D03*
Y044026D03*
X05565D03*
X046674Y0342D03*
Y0332D03*
X050426D03*
Y0342D03*
G54D20*
X060402Y044025D03*
X058598D03*
G54D21*
X0595Y04655D03*
G54D29*
X04215Y04853D03*
Y04667D03*
Y04463D03*
Y04277D03*
X05535Y04672D03*
Y04858D03*
X05065Y03592D03*
Y03778D03*
G54D30*
X04545Y03105D03*
Y0316D03*
X0442Y048D03*
Y04855D03*
X05595Y0318D03*
Y03125D03*
X05525Y0313D03*
Y03075D03*
X0645Y03335D03*
Y0339D03*
Y0345D03*
Y03505D03*
X05145Y03365D03*
Y0342D03*
X05215D03*
Y03365D03*
X05465Y03745D03*
Y038D03*
X05905Y03125D03*
Y0318D03*
X0638Y0339D03*
Y03335D03*
Y03505D03*
Y0345D03*
X0598Y0335D03*
Y03405D03*
Y03545D03*
Y0349D03*
X0566Y0318D03*
Y03125D03*
X0573Y04855D03*
Y048D03*
X0524Y0378D03*
Y03725D03*
X0441Y04465D03*
Y0441D03*
X05565Y0374D03*
Y03795D03*
X0573Y0457D03*
Y04625D03*
G54D31*
X04545Y034201D03*
Y033099D03*
G54D32*
X03943Y04299D03*
X03942Y04462D03*
X06218Y04674D03*
X06217Y04837D03*
G54D33*
X056604Y033467D03*
Y033664D03*
Y033861D03*
Y034058D03*
Y034255D03*
Y034452D03*
Y034648D03*
Y034845D03*
Y035042D03*
Y035239D03*
Y035436D03*
Y035633D03*
X053296D03*
Y035436D03*
Y035239D03*
Y035042D03*
Y034845D03*
Y034648D03*
Y034452D03*
Y034255D03*
Y034058D03*
Y033861D03*
Y033664D03*
Y033467D03*
G54D34*
X056033Y036204D03*
X055836D03*
X055639D03*
X055442D03*
X055245D03*
X055048D03*
X054852D03*
X054655D03*
X054458D03*
X054261D03*
X054064D03*
X053867D03*
Y032896D03*
X054064D03*
X054261D03*
X054458D03*
X054655D03*
X054852D03*
X055048D03*
X055245D03*
X055442D03*
X055639D03*
X055836D03*
X056033D03*
G54D35*
X060732Y03305D03*
Y03355D03*
Y03405D03*
Y03455D03*
Y03505D03*
Y03555D03*
Y03605D03*
Y03655D03*
X062868D03*
Y03605D03*
Y03555D03*
Y03505D03*
Y03455D03*
Y03405D03*
Y03355D03*
Y03305D03*
G54D36*
X066101Y040521D03*
Y030679D03*
G54D37*
X06666Y033964D03*
Y035055D03*
Y036145D03*
Y037236D03*
X065542Y036691D03*
Y033419D03*
Y034509D03*
Y0356D03*
G54D38*
X065542Y037781D03*
G54D39*
X05365Y03045D03*
X05265D03*
X05165D03*
G54D40*
X05065Y03045D03*
G54D41*
X0655Y04855D03*
X0424Y0311D03*
G54D42*
X0655Y04655D03*
X0424Y0331D03*
G54D43*
X043333Y0371D03*
X04105D03*
G54D44*
X042152Y03521D03*
G54D45*
X05255Y0471D03*
X05155D03*
X05055D03*
X04955D03*
X04755D03*
X04655D03*
G54D46*
X04555Y0471D03*
G54D47*
X044476Y040306D03*
X041524Y041094D03*
G54D48*
X04555Y0379D03*
Y0359D03*
X0583Y033516D03*
G54D49*
X0583Y035484D03*
G54D50*
X04705Y0395D03*
G54D51*
X04805Y0395D03*
X04905D03*
X05005D03*
G54D52*
X0442Y04665D03*
X0441Y04275D03*
X05785Y0394D03*
X0598Y0345D03*
X06415Y0342D03*
X0524Y03595D03*
X0473Y0352D03*
X03855Y03515D03*
X04755Y02985D03*
X03855Y0298D03*
Y0495D03*
X04755Y04955D03*
X0549Y0299D03*
X06875Y02995D03*
X06305Y03D03*
X06865Y03925D03*
X06295Y0393D03*
X06865Y0413D03*
X06295Y04135D03*
X0548D03*
X0498D03*
X06295Y0496D03*
X0548D03*
X0498D03*
Y0434D03*
X0548D03*
X06295D03*
X06865Y04335D03*
X046Y0316D03*
X0566Y0329D03*
X05495Y0313D03*
X055245Y032155D03*
X055852Y030752D03*
X055858Y035042D03*
X055852Y034648D03*
X06485Y0339D03*
X0634Y03355D03*
X0642Y0364D03*
X0526Y03295D03*
X05365Y0329D03*
X053296Y037796D03*
Y032454D03*
M02*