%FSTAX24Y24*%
%MOIN*%
%SFA1B1*%

%IPPOS*%
%ADD10C,0.009800*%
%ADD11C,0.019700*%
%ADD12C,0.010000*%
%ADD13C,0.023600*%
%ADD14C,0.007900*%
%ADD15C,0.006000*%
%ADD16C,0.005000*%
%ADD17C,0.007000*%
%ADD18C,0.003000*%
%LNpcb1-1*%
%LPD*%
G54D10*
X055699Y039756D02*
D01*
X055698Y039759*
X055698Y039762*
X055697Y039766*
X055697Y039769*
X055696Y039772*
X055694Y039775*
X055693Y039779*
X055691Y039781*
X055689Y039784*
X055687Y039787*
X055685Y03979*
X055682Y039792*
X05568Y039794*
X055677Y039796*
X055674Y039798*
X055671Y0398*
X055668Y039801*
X055665Y039802*
X055661Y039803*
X055658Y039804*
X055655Y039804*
X055651Y039804*
X055648*
X055644Y039804*
X055641Y039804*
X055638Y039803*
X055634Y039802*
X055631Y039801*
X055628Y0398*
X055625Y039798*
X055622Y039796*
X055619Y039794*
X055617Y039792*
X055614Y03979*
X055612Y039787*
X05561Y039784*
X055608Y039781*
X055606Y039779*
X055605Y039775*
X055603Y039772*
X055602Y039769*
X055602Y039766*
X055601Y039762*
X055601Y039759*
X055601Y039756*
X055601Y039752*
X055601Y039749*
X055602Y039745*
X055602Y039742*
X055603Y039739*
X055605Y039736*
X055606Y039732*
X055608Y03973*
X05561Y039727*
X055612Y039724*
X055614Y039721*
X055617Y039719*
X055619Y039717*
X055622Y039715*
X055625Y039713*
X055628Y039711*
X055631Y03971*
X055634Y039709*
X055638Y039708*
X055641Y039707*
X055644Y039707*
X055648Y039707*
X055651*
X055655Y039707*
X055658Y039707*
X055661Y039708*
X055665Y039709*
X055668Y03971*
X055671Y039711*
X055674Y039713*
X055677Y039715*
X05568Y039717*
X055682Y039719*
X055685Y039721*
X055687Y039724*
X055689Y039727*
X055691Y03973*
X055693Y039732*
X055694Y039736*
X055696Y039739*
X055697Y039742*
X055697Y039745*
X055698Y039749*
X055698Y039752*
X055699Y039756*
X046206Y0342D02*
D01*
X046205Y034203*
X046205Y034206*
X046204Y03421*
X046204Y034213*
X046203Y034216*
X046201Y034219*
X0462Y034223*
X046198Y034225*
X046196Y034228*
X046194Y034231*
X046192Y034234*
X046189Y034236*
X046187Y034238*
X046184Y03424*
X046181Y034242*
X046178Y034244*
X046175Y034245*
X046172Y034246*
X046168Y034247*
X046165Y034248*
X046162Y034248*
X046158Y034248*
X046155*
X046151Y034248*
X046148Y034248*
X046145Y034247*
X046141Y034246*
X046138Y034245*
X046135Y034244*
X046132Y034242*
X046129Y03424*
X046126Y034238*
X046124Y034236*
X046121Y034234*
X046119Y034231*
X046117Y034228*
X046115Y034225*
X046113Y034223*
X046112Y034219*
X04611Y034216*
X046109Y034213*
X046109Y03421*
X046108Y034206*
X046108Y034203*
X046108Y0342*
X046108Y034196*
X046108Y034193*
X046109Y034189*
X046109Y034186*
X04611Y034183*
X046112Y03418*
X046113Y034176*
X046115Y034174*
X046117Y034171*
X046119Y034168*
X046121Y034165*
X046124Y034163*
X046126Y034161*
X046129Y034159*
X046132Y034157*
X046135Y034155*
X046138Y034154*
X046141Y034153*
X046145Y034152*
X046148Y034151*
X046151Y034151*
X046155Y034151*
X046158*
X046162Y034151*
X046165Y034151*
X046168Y034152*
X046172Y034153*
X046175Y034154*
X046178Y034155*
X046181Y034157*
X046184Y034159*
X046187Y034161*
X046189Y034163*
X046192Y034165*
X046194Y034168*
X046196Y034171*
X046198Y034174*
X0462Y034176*
X046201Y03418*
X046203Y034183*
X046204Y034186*
X046204Y034189*
X046205Y034193*
X046205Y034196*
X046206Y0342*
X056653Y033192D02*
D01*
X056652Y033195*
X056652Y033198*
X056651Y033202*
X056651Y033205*
X05665Y033208*
X056648Y033211*
X056647Y033215*
X056645Y033217*
X056643Y03322*
X056641Y033223*
X056639Y033226*
X056636Y033228*
X056634Y03323*
X056631Y033232*
X056628Y033234*
X056625Y033236*
X056622Y033237*
X056619Y033238*
X056615Y033239*
X056612Y03324*
X056609Y03324*
X056605Y03324*
X056602*
X056598Y03324*
X056595Y03324*
X056592Y033239*
X056588Y033238*
X056585Y033237*
X056582Y033236*
X056579Y033234*
X056576Y033232*
X056573Y03323*
X056571Y033228*
X056568Y033226*
X056566Y033223*
X056564Y03322*
X056562Y033217*
X05656Y033215*
X056559Y033211*
X056557Y033208*
X056556Y033205*
X056556Y033202*
X056555Y033198*
X056555Y033195*
X056555Y033192*
X056555Y033188*
X056555Y033185*
X056556Y033181*
X056556Y033178*
X056557Y033175*
X056559Y033172*
X05656Y033168*
X056562Y033166*
X056564Y033163*
X056566Y03316*
X056568Y033157*
X056571Y033155*
X056573Y033153*
X056576Y033151*
X056579Y033149*
X056582Y033147*
X056585Y033146*
X056588Y033145*
X056592Y033144*
X056595Y033143*
X056598Y033143*
X056602Y033143*
X056605*
X056609Y033143*
X056612Y033143*
X056615Y033144*
X056619Y033145*
X056622Y033146*
X056625Y033147*
X056628Y033149*
X056631Y033151*
X056634Y033153*
X056636Y033155*
X056639Y033157*
X056641Y03316*
X056643Y033163*
X056645Y033166*
X056647Y033168*
X056648Y033172*
X05665Y033175*
X056651Y033178*
X056651Y033181*
X056652Y033185*
X056652Y033188*
X056653Y033192*
G54D11*
X055628Y041136D02*
D01*
X055627Y041142*
X055627Y041149*
X055625Y041156*
X055624Y041163*
X055622Y041169*
X055619Y041175*
X055616Y041182*
X055613Y041187*
X055609Y041193*
X055605Y041198*
X0556Y041204*
X055595Y041208*
X05559Y041213*
X055584Y041217*
X055579Y04122*
X055572Y041224*
X055566Y041226*
X05556Y041229*
X055553Y041231*
X055547Y041232*
X05554Y041233*
X055533Y041233*
X055526*
X055519Y041233*
X055512Y041232*
X055506Y041231*
X055499Y041229*
X055493Y041226*
X055487Y041224*
X055481Y04122*
X055475Y041217*
X055469Y041213*
X055464Y041208*
X055459Y041204*
X055454Y041198*
X05545Y041193*
X055446Y041187*
X055443Y041182*
X05544Y041175*
X055437Y041169*
X055435Y041163*
X055434Y041156*
X055432Y041149*
X055432Y041142*
X055432Y041136*
X055432Y041129*
X055432Y041122*
X055434Y041115*
X055435Y041108*
X055437Y041102*
X05544Y041096*
X055443Y041089*
X055446Y041084*
X05545Y041078*
X055454Y041073*
X055459Y041067*
X055464Y041063*
X055469Y041058*
X055475Y041054*
X055481Y041051*
X055487Y041047*
X055493Y041045*
X055499Y041042*
X055506Y04104*
X055512Y041039*
X055519Y041038*
X055526Y041038*
X055533*
X05554Y041038*
X055547Y041039*
X055553Y04104*
X05556Y041042*
X055566Y041045*
X055572Y041047*
X055579Y041051*
X055584Y041054*
X05559Y041058*
X055595Y041063*
X0556Y041067*
X055605Y041073*
X055609Y041078*
X055613Y041084*
X055616Y041089*
X055619Y041096*
X055622Y041102*
X055624Y041108*
X055625Y041115*
X055627Y041122*
X055627Y041129*
X055628Y041136*
X047635Y03432D02*
D01*
X047634Y034326*
X047634Y034333*
X047632Y03434*
X047631Y034347*
X047629Y034353*
X047626Y034359*
X047623Y034366*
X04762Y034371*
X047616Y034377*
X047612Y034382*
X047607Y034388*
X047602Y034392*
X047597Y034397*
X047591Y034401*
X047586Y034404*
X047579Y034408*
X047573Y03441*
X047567Y034413*
X04756Y034415*
X047554Y034416*
X047547Y034417*
X04754Y034417*
X047533*
X047526Y034417*
X047519Y034416*
X047513Y034415*
X047506Y034413*
X0475Y03441*
X047494Y034408*
X047488Y034404*
X047482Y034401*
X047476Y034397*
X047471Y034392*
X047466Y034388*
X047461Y034382*
X047457Y034377*
X047453Y034371*
X04745Y034366*
X047447Y034359*
X047444Y034353*
X047442Y034347*
X047441Y03434*
X047439Y034333*
X047439Y034326*
X047439Y03432*
X047439Y034313*
X047439Y034306*
X047441Y034299*
X047442Y034292*
X047444Y034286*
X047447Y03428*
X04745Y034273*
X047453Y034268*
X047457Y034262*
X047461Y034257*
X047466Y034251*
X047471Y034247*
X047476Y034242*
X047482Y034238*
X047488Y034235*
X047494Y034231*
X0475Y034229*
X047506Y034226*
X047513Y034224*
X047519Y034223*
X047526Y034222*
X047533Y034222*
X04754*
X047547Y034222*
X047554Y034223*
X04756Y034224*
X047567Y034226*
X047573Y034229*
X047579Y034231*
X047586Y034235*
X047591Y034238*
X047597Y034242*
X047602Y034247*
X047607Y034251*
X047612Y034257*
X047616Y034262*
X04762Y034268*
X047623Y034273*
X047626Y03428*
X047629Y034286*
X047631Y034292*
X047632Y034299*
X047634Y034306*
X047634Y034313*
X047635Y03432*
X0387Y04415D02*
X0402D01*
X06145Y0479D02*
X06295D01*
G54D12*
X041839Y048815D02*
D01*
X041754Y048791*
X041672Y048761*
X041592Y048725*
X041515Y048684*
X041441Y048638*
X04137Y048587*
X041303Y048531*
X04124Y04847*
X041182Y048406*
X041128Y048337*
X041079Y048264*
X041035Y048189*
X040997Y04811*
X040964Y048029*
X040937Y047946*
X040916Y047862*
X0409Y047776*
X040891Y047689*
X040888Y047601*
X040891Y047514*
X0409Y047427*
X040915Y047341*
X040936Y047256*
X040963Y047173*
X040995Y047092*
X041033Y047014*
X041077Y046938*
X041126Y046865*
X041179Y046796*
X041238Y046731*
X041301Y046671*
X041367Y046614*
X041438Y046563*
X041512Y046516*
X041589Y046475*
X041669Y04644*
X041751Y04641*
X041829Y046388*
X04246Y04639D02*
D01*
X042543Y046415*
X042625Y046446*
X042704Y046482*
X042781Y046525*
X042854Y046572*
X042924Y046624*
X04299Y046681*
X043052Y046743*
X04311Y046809*
X043162Y046878*
X04321Y046951*
X043253Y047028*
X04329Y047107*
X043322Y047188*
X043347Y047272*
X043367Y047357*
X043381Y047443*
X043389Y04753*
X043391Y047617*
X043387Y047705*
X043376Y047791*
X04336Y047877*
X043338Y047962*
X043309Y048044*
X043276Y048125*
X043236Y048203*
X043191Y048278*
X043142Y048349*
X043087Y048418*
X043027Y048482*
X042964Y048541*
X042896Y048597*
X042825Y048647*
X04275Y048692*
X042672Y048732*
X042592Y048767*
X042509Y048795*
X042462Y048809*
X041839Y044915D02*
D01*
X041754Y044891*
X041672Y044861*
X041592Y044825*
X041515Y044784*
X041441Y044738*
X04137Y044687*
X041303Y044631*
X04124Y04457*
X041182Y044506*
X041128Y044437*
X041079Y044364*
X041035Y044289*
X040997Y04421*
X040964Y044129*
X040937Y044046*
X040916Y043962*
X0409Y043876*
X040891Y043789*
X040888Y043701*
X040891Y043614*
X0409Y043527*
X040915Y043441*
X040936Y043356*
X040963Y043273*
X040995Y043192*
X041033Y043114*
X041077Y043038*
X041126Y042965*
X041179Y042896*
X041238Y042831*
X041301Y042771*
X041367Y042714*
X041438Y042663*
X041512Y042616*
X041589Y042575*
X041669Y04254*
X041751Y04251*
X041829Y042488*
X04246Y04249D02*
D01*
X042543Y042515*
X042625Y042546*
X042704Y042582*
X042781Y042625*
X042854Y042672*
X042924Y042724*
X04299Y042781*
X043052Y042843*
X04311Y042909*
X043162Y042978*
X04321Y043051*
X043253Y043128*
X04329Y043207*
X043322Y043288*
X043347Y043372*
X043367Y043457*
X043381Y043543*
X043389Y04363*
X043391Y043717*
X043387Y043805*
X043376Y043891*
X04336Y043977*
X043338Y044062*
X043309Y044144*
X043276Y044225*
X043236Y044303*
X043191Y044378*
X043142Y044449*
X043087Y044518*
X043027Y044582*
X042964Y044641*
X042896Y044697*
X042825Y044747*
X04275Y044792*
X042672Y044832*
X042592Y044867*
X042509Y044895*
X042462Y044909*
X04465Y0398D02*
D01*
X044712Y039816*
X044773Y039836*
X044832Y039861*
X04489Y039889*
X044945Y039922*
X044998Y039959*
X045049Y039999*
X045096Y040042*
X04514Y040089*
X045181Y040139*
X045219Y040191*
X045252Y040246*
X045282Y040303*
X045307Y040362*
X045329Y040423*
X045346Y040485*
X045359Y040548*
X045367Y040612*
X045371Y040676*
X045371Y04074*
X045365Y040804*
X045356Y040868*
X045342Y040931*
X045324Y040992*
X045301Y041053*
X045274Y041111*
X045244Y041168*
X045209Y041222*
X045171Y041274*
X045129Y041323*
X045084Y041369*
X045036Y041411*
X044985Y04145*
X044931Y041486*
X044875Y041517*
X044817Y041545*
X044757Y041569*
X044695Y041588*
X04465Y0416*
X04135D02*
D01*
X041287Y041583*
X041226Y041563*
X041167Y041538*
X041109Y04151*
X041054Y041477*
X041001Y04144*
X04095Y0414*
X040903Y041357*
X040859Y04131*
X040818Y04126*
X04078Y041208*
X040747Y041153*
X040717Y041096*
X040692Y041037*
X04067Y040976*
X040653Y040914*
X04064Y040851*
X040632Y040787*
X040628Y040723*
X040628Y040659*
X040634Y040595*
X040643Y040531*
X040657Y040468*
X040675Y040407*
X040698Y040346*
X040725Y040288*
X040755Y040231*
X04079Y040177*
X040828Y040125*
X04087Y040076*
X040915Y04003*
X040963Y039988*
X041014Y039949*
X041068Y039913*
X041124Y039882*
X041182Y039854*
X041242Y03983*
X041304Y039811*
X04135Y0398*
X0463Y0379D02*
D01*
X046298Y037952*
X046292Y038004*
X046283Y038055*
X04627Y038106*
X046254Y038156*
X046235Y038205*
X046212Y038252*
X046186Y038297*
X046156Y03834*
X046124Y038382*
X046089Y03842*
X046051Y038457*
X046011Y038491*
X045969Y038521*
X045925Y038549*
X045878Y038574*
X04583Y038595*
X045781Y038613*
X045731Y038627*
X04568Y038638*
X045628Y038645*
X045576Y038649*
X045523*
X045471Y038645*
X045419Y038638*
X045368Y038627*
X045318Y038613*
X045269Y038595*
X045221Y038574*
X045175Y038549*
X04513Y038521*
X045088Y038491*
X045048Y038457*
X04501Y03842*
X044975Y038382*
X044943Y03834*
X044913Y038297*
X044887Y038252*
X044864Y038205*
X044845Y038156*
X044829Y038106*
X044816Y038055*
X044807Y038004*
X044801Y037952*
X0448Y0379*
Y0359D02*
D01*
X044801Y035847*
X044807Y035795*
X044816Y035744*
X044829Y035693*
X044845Y035643*
X044864Y035594*
X044887Y035547*
X044913Y035502*
X044943Y035459*
X044975Y035417*
X04501Y035379*
X045048Y035342*
X045088Y035308*
X04513Y035278*
X045175Y03525*
X045221Y035225*
X045269Y035204*
X045318Y035186*
X045368Y035172*
X045419Y035161*
X045471Y035154*
X045523Y03515*
X045576*
X045628Y035154*
X04568Y035161*
X045731Y035172*
X045781Y035186*
X04583Y035204*
X045878Y035225*
X045925Y03525*
X045969Y035278*
X046011Y035308*
X046051Y035342*
X046089Y035379*
X046124Y035417*
X046156Y035459*
X046186Y035502*
X046212Y035547*
X046235Y035594*
X046254Y035643*
X04627Y035693*
X046283Y035744*
X046292Y035795*
X046298Y035847*
X0463Y0359*
X05927Y035726D02*
D01*
X059267Y035793*
X05926Y03586*
X059248Y035927*
X059232Y035993*
X059211Y036057*
X059186Y03612*
X059156Y036181*
X059122Y03624*
X059084Y036296*
X059043Y036349*
X058997Y036399*
X058949Y036446*
X058897Y03649*
X058842Y03653*
X058785Y036566*
X058725Y036597*
X058663Y036625*
X058599Y036648*
X058534Y036667*
X058468Y036681*
X058401Y03669*
X058333Y036695*
X058266*
X058198Y03669*
X058131Y036681*
X058065Y036667*
X058Y036648*
X057936Y036625*
X057874Y036597*
X057815Y036566*
X057757Y03653*
X057702Y03649*
X05765Y036446*
X057602Y036399*
X057556Y036349*
X057515Y036296*
X057477Y03624*
X057443Y036181*
X057413Y03612*
X057388Y036057*
X057367Y035993*
X057351Y035927*
X057339Y03586*
X057332Y035793*
X05733Y035726*
X057334Y033266D02*
D01*
X057336Y033198*
X057343Y033131*
X057355Y033064*
X057371Y032998*
X057392Y032934*
X057417Y032871*
X057447Y03281*
X057481Y032751*
X057519Y032695*
X05756Y032642*
X057606Y032592*
X057654Y032545*
X057706Y032501*
X057761Y032461*
X057819Y032425*
X057878Y032394*
X05794Y032366*
X058004Y032343*
X058069Y032324*
X058135Y03231*
X058202Y032301*
X05827Y032296*
X058337*
X058405Y032301*
X058472Y03231*
X058538Y032324*
X058603Y032343*
X058667Y032366*
X058729Y032394*
X058789Y032425*
X058846Y032461*
X058901Y032501*
X058953Y032545*
X059001Y032592*
X059047Y032642*
X059088Y032695*
X059126Y032751*
X05916Y03281*
X05919Y032871*
X059215Y032934*
X059236Y032998*
X059252Y033064*
X059264Y033131*
X059271Y033198*
X059274Y033266*
X0464Y03861D02*
D01*
X046399Y038612*
X046399Y038615*
X046399Y038618*
X046398Y038621*
X046397Y038624*
X046396Y038626*
X046395Y038629*
X046393Y038631*
X046392Y038634*
X04639Y038636*
X046388Y038638*
X046386Y03864*
X046384Y038642*
X046381Y038643*
X046379Y038645*
X046376Y038646*
X046374Y038648*
X046371Y038648*
X046368Y038649*
X046366Y03865*
X046363Y03865*
X04636Y03865*
X046357*
X046354Y03865*
X046351Y03865*
X046349Y038649*
X046346Y038648*
X046343Y038648*
X046341Y038646*
X046338Y038645*
X046336Y038643*
X046333Y038642*
X046331Y03864*
X046329Y038638*
X046327Y038636*
X046325Y038634*
X046324Y038631*
X046322Y038629*
X046321Y038626*
X04632Y038624*
X046319Y038621*
X046318Y038618*
X046318Y038615*
X046318Y038612*
X046318Y03861*
X046318Y038607*
X046318Y038604*
X046318Y038601*
X046319Y038598*
X04632Y038595*
X046321Y038593*
X046322Y03859*
X046324Y038588*
X046325Y038585*
X046327Y038583*
X046329Y038581*
X046331Y038579*
X046333Y038577*
X046336Y038576*
X046338Y038574*
X046341Y038573*
X046343Y038571*
X046346Y038571*
X046349Y03857*
X046351Y038569*
X046354Y038569*
X046357Y038569*
X04636*
X046363Y038569*
X046366Y038569*
X046368Y03857*
X046371Y038571*
X046374Y038571*
X046376Y038573*
X046379Y038574*
X046381Y038576*
X046384Y038577*
X046386Y038579*
X046388Y038581*
X04639Y038583*
X046392Y038585*
X046393Y038588*
X046395Y03859*
X046396Y038593*
X046397Y038595*
X046398Y038598*
X046399Y038601*
X046399Y038604*
X046399Y038607*
X0464Y03861*
X04645Y0386D02*
D01*
X046449Y038606*
X046449Y038613*
X046447Y03862*
X046446Y038627*
X046443Y038634*
X046441Y03864*
X046438Y038646*
X046434Y038652*
X04643Y038658*
X046426Y038664*
X046421Y038669*
X046416Y038674*
X046411Y038678*
X046405Y038682*
X0464Y038686*
X046393Y038689*
X046387Y038692*
X04638Y038695*
X046374Y038697*
X046367Y038698*
X04636Y038699*
X046353Y038699*
X046346*
X046339Y038699*
X046332Y038698*
X046325Y038697*
X046319Y038695*
X046312Y038692*
X046306Y038689*
X0463Y038686*
X046294Y038682*
X046288Y038678*
X046283Y038674*
X046278Y038669*
X046273Y038664*
X046269Y038658*
X046265Y038652*
X046261Y038646*
X046258Y03864*
X046256Y038634*
X046253Y038627*
X046252Y03862*
X04625Y038613*
X04625Y038606*
X04625Y0386*
X04625Y038593*
X04625Y038586*
X046252Y038579*
X046253Y038572*
X046256Y038565*
X046258Y038559*
X046261Y038553*
X046265Y038547*
X046269Y038541*
X046273Y038535*
X046278Y03853*
X046283Y038525*
X046288Y038521*
X046294Y038517*
X0463Y038513*
X046306Y03851*
X046312Y038507*
X046319Y038504*
X046325Y038502*
X046332Y038501*
X046339Y0385*
X046346Y0385*
X046353*
X04636Y0385*
X046367Y038501*
X046374Y038502*
X04638Y038504*
X046387Y038507*
X046393Y03851*
X0464Y038513*
X046405Y038517*
X046411Y038521*
X046416Y038525*
X046421Y03853*
X046426Y038535*
X04643Y038541*
X046434Y038547*
X046438Y038553*
X046441Y038559*
X046443Y038565*
X046446Y038572*
X046447Y038579*
X046449Y038586*
X046449Y038593*
X04645Y0386*
X05566Y04644D02*
D01*
X055743Y046465*
X055825Y046496*
X055904Y046532*
X055981Y046575*
X056054Y046622*
X056124Y046674*
X05619Y046731*
X056252Y046793*
X05631Y046859*
X056362Y046928*
X05641Y047001*
X056453Y047078*
X05649Y047157*
X056522Y047238*
X056547Y047322*
X056567Y047407*
X056581Y047493*
X056589Y04758*
X056591Y047667*
X056587Y047755*
X056576Y047841*
X05656Y047927*
X056538Y048012*
X056509Y048094*
X056476Y048175*
X056436Y048253*
X056391Y048328*
X056342Y048399*
X056287Y048468*
X056227Y048532*
X056164Y048591*
X056096Y048647*
X056025Y048697*
X05595Y048742*
X055872Y048782*
X055792Y048817*
X055709Y048845*
X055662Y048859*
X055039Y048865D02*
D01*
X054954Y048841*
X054872Y048811*
X054792Y048775*
X054715Y048734*
X054641Y048688*
X05457Y048637*
X054503Y048581*
X05444Y04852*
X054382Y048456*
X054328Y048387*
X054279Y048314*
X054235Y048239*
X054197Y04816*
X054164Y048079*
X054137Y047996*
X054116Y047912*
X0541Y047826*
X054091Y047739*
X054088Y047651*
X054091Y047564*
X0541Y047477*
X054115Y047391*
X054136Y047306*
X054163Y047223*
X054195Y047142*
X054233Y047064*
X054277Y046988*
X054326Y046915*
X054379Y046846*
X054438Y046781*
X054501Y046721*
X054567Y046664*
X054638Y046613*
X054712Y046566*
X054789Y046525*
X054869Y04649*
X054951Y04646*
X055029Y046438*
X05096Y03564D02*
D01*
X051043Y035665*
X051125Y035696*
X051204Y035732*
X051281Y035775*
X051354Y035822*
X051424Y035874*
X05149Y035931*
X051552Y035993*
X05161Y036059*
X051662Y036128*
X05171Y036201*
X051753Y036278*
X05179Y036357*
X051822Y036438*
X051847Y036522*
X051867Y036607*
X051881Y036693*
X051889Y03678*
X051891Y036867*
X051887Y036955*
X051876Y037041*
X05186Y037127*
X051838Y037212*
X051809Y037294*
X051776Y037375*
X051736Y037453*
X051691Y037528*
X051642Y037599*
X051587Y037668*
X051527Y037732*
X051464Y037791*
X051396Y037847*
X051325Y037897*
X05125Y037942*
X051172Y037982*
X051092Y038017*
X051009Y038045*
X050962Y038059*
X050339Y038065D02*
D01*
X050254Y038041*
X050172Y038011*
X050092Y037975*
X050015Y037934*
X049941Y037888*
X04987Y037837*
X049803Y037781*
X04974Y03772*
X049682Y037656*
X049628Y037587*
X049579Y037514*
X049535Y037439*
X049497Y03736*
X049464Y037279*
X049437Y037196*
X049416Y037112*
X0494Y037026*
X049391Y036939*
X049388Y036851*
X049391Y036764*
X0494Y036677*
X049415Y036591*
X049436Y036506*
X049463Y036423*
X049495Y036342*
X049533Y036264*
X049577Y036188*
X049626Y036115*
X049679Y036046*
X049738Y035981*
X049801Y035921*
X049867Y035864*
X049938Y035813*
X050012Y035766*
X050089Y035725*
X050169Y03569*
X050251Y03566*
X050329Y035638*
X067468Y047556D02*
X06995D01*
X067469Y0454D02*
X06995D01*
X067469Y04965D02*
X06995D01*
X063531Y0454D02*
Y04965D01*
X067469Y0454D02*
Y04965D01*
X063531Y0454D02*
X067469D01*
X063531Y04965D02*
X067469D01*
X038Y03425D02*
X040431D01*
X038Y03D02*
X040431D01*
X04248Y04717D02*
X04331D01*
X04097D02*
X04182D01*
X04245Y04631D02*
X04346D01*
X04085D02*
X04183D01*
X04246Y048899D02*
X04303D01*
X04126D02*
X04185D01*
X04084Y04632D02*
Y04849D01*
X043039Y048899D02*
X04304Y0489D01*
X04084Y04849D02*
X04115Y0488D01*
X041249Y048899*
X043051D02*
X04315Y0488D01*
X04346Y04849*
Y04632D02*
Y04849D01*
X04155Y04798D02*
Y04843D01*
X04129Y0482D02*
X04178D01*
X04248Y04327D02*
X04331D01*
X04097D02*
X04182D01*
X04245Y04241D02*
X04346D01*
X04085D02*
X04183D01*
X04246Y044999D02*
X04303D01*
X04126D02*
X04185D01*
X04084Y04242D02*
Y04459D01*
X043039Y044999D02*
X04304Y045D01*
X04084Y04459D02*
X04115Y0449D01*
X041249Y044999*
X043051D02*
X04315Y0449D01*
X04346Y04459*
Y04242D02*
Y04459D01*
X04155Y04408D02*
Y04453D01*
X04129Y0443D02*
X04178D01*
X044369Y03D02*
Y03425D01*
X040431Y03D02*
Y03425D01*
X044369*
X040431Y03D02*
X044369D01*
X04595Y03265D02*
Y03465D01*
X04495Y03265D02*
X04595D01*
X04495D02*
Y03465D01*
X04595*
X04135Y0398D02*
X04465D01*
X04135Y0416D02*
X04465D01*
X0448Y0359D02*
Y0379D01*
X0463Y0359D02*
Y0379D01*
X059274Y033266D02*
Y035696D01*
X05733Y033226D02*
Y035726D01*
X04625Y0417D02*
X05085D01*
Y0388D02*
Y0417D01*
X04625Y0388D02*
X05085D01*
X04625D02*
Y0417D01*
X03865Y045135D02*
X04025D01*
Y04507D02*
Y0452D01*
X03865D02*
X04025D01*
X03865Y04507D02*
Y0452D01*
Y04254D02*
X04025D01*
Y04507*
X03865Y04254D02*
Y04507D01*
X04025*
X05449Y04825D02*
X05498D01*
X05475Y04803D02*
Y04848D01*
X05666Y04637D02*
Y04854D01*
X05635Y04885D02*
X05666Y04854D01*
X056251Y048949D02*
X05635Y04885D01*
X05435D02*
X054449Y048949D01*
X05404Y04854D02*
X05435Y04885D01*
X056239Y048949D02*
X05624Y04895D01*
X05404Y04637D02*
Y04854D01*
X05446Y048949D02*
X05505D01*
X05566D02*
X05623D01*
X05405Y04636D02*
X05503D01*
X05565D02*
X05666D01*
X05417Y04722D02*
X05502D01*
X05568D02*
X05651D01*
X04979Y03745D02*
X05028D01*
X05005Y03723D02*
Y03768D01*
X05196Y03557D02*
Y03774D01*
X05165Y03805D02*
X05196Y03774D01*
X051551Y038149D02*
X05165Y03805D01*
X04965D02*
X049749Y038149D01*
X04934Y03774D02*
X04965Y03805D01*
X051539Y038149D02*
X05154Y03815D01*
X04934Y03557D02*
Y03774D01*
X04976Y038149D02*
X05035D01*
X05096D02*
X05153D01*
X04935Y03556D02*
X05033D01*
X05095D02*
X05196D01*
X04947Y03642D02*
X05032D01*
X05098D02*
X05181D01*
X0614Y048885D02*
X063D01*
Y04882D02*
Y04895D01*
X0614D02*
X063D01*
X0614Y04882D02*
Y04895D01*
Y04629D02*
X063D01*
Y04882*
X0614Y04629D02*
Y04882D01*
X063*
X0498Y0301D02*
X049997D01*
X049898*
Y03069*
X0498Y030592*
G54D13*
X055796Y033822D02*
D01*
X055795Y03383*
X055794Y033838*
X055793Y033846*
X055791Y033854*
X055788Y033862*
X055785Y033869*
X055782Y033877*
X055778Y033884*
X055773Y033891*
X055768Y033897*
X055762Y033903*
X055756Y033909*
X05575Y033914*
X055743Y033919*
X055737Y033924*
X055729Y033928*
X055722Y033931*
X055714Y033934*
X055706Y033936*
X055698Y033938*
X05569Y033939*
X055682Y033939*
X055673*
X055665Y033939*
X055657Y033938*
X055649Y033936*
X055641Y033934*
X055633Y033931*
X055626Y033928*
X055619Y033924*
X055612Y033919*
X055605Y033914*
X055599Y033909*
X055593Y033903*
X055587Y033897*
X055582Y033891*
X055577Y033884*
X055573Y033877*
X05557Y033869*
X055567Y033862*
X055564Y033854*
X055562Y033846*
X055561Y033838*
X05556Y03383*
X05556Y033822*
X05556Y033813*
X055561Y033805*
X055562Y033797*
X055564Y033789*
X055567Y033781*
X05557Y033774*
X055573Y033766*
X055577Y033759*
X055582Y033752*
X055587Y033746*
X055593Y03374*
X055599Y033734*
X055605Y033729*
X055612Y033724*
X055619Y033719*
X055626Y033715*
X055633Y033712*
X055641Y033709*
X055649Y033707*
X055657Y033705*
X055665Y033704*
X055673Y033704*
X055682*
X05569Y033704*
X055698Y033705*
X055706Y033707*
X055714Y033709*
X055722Y033712*
X055729Y033715*
X055737Y033719*
X055743Y033724*
X05575Y033729*
X055756Y033734*
X055762Y03374*
X055768Y033746*
X055773Y033752*
X055778Y033759*
X055782Y033766*
X055785Y033774*
X055788Y033781*
X055791Y033789*
X055793Y033797*
X055794Y033805*
X055795Y033813*
X055796Y033822*
G54D14*
X064959Y029537D02*
Y041663D01*
X069841*
Y029537D02*
Y041663D01*
X064959Y029537D02*
X069841D01*
X05015Y02995D02*
Y03095D01*
X05415*
X05015Y02995D02*
X05415D01*
Y03095*
X055199Y040809D02*
Y043491D01*
X057101*
Y040809D02*
Y043491D01*
X055199Y040809D02*
X057101D01*
X047209Y034651D02*
X049891D01*
Y032749D02*
Y034651D01*
X047209Y032749D02*
X049891D01*
X047209D02*
Y034651D01*
X043058Y035328D02*
X043688D01*
X037979D02*
X041247D01*
X043688D02*
Y036194D01*
Y038006D02*
Y038872D01*
X037979Y035328D02*
Y038872D01*
X043688*
X056072Y033428D02*
Y035672D01*
X053828Y033428D02*
Y035672D01*
Y033428D02*
X056072D01*
X053828Y035672D02*
X056072D01*
X062568Y032784D02*
X063168D01*
X06243Y032851D02*
Y036749D01*
X06117D02*
X06243D01*
X06117Y032851D02*
Y036749D01*
Y032851D02*
X06243D01*
G54D15*
X060577Y044655D02*
Y045054D01*
X058773Y044655D02*
Y045054D01*
X060227Y044655D02*
Y045054D01*
X058423Y044655D02*
Y045054D01*
X0447Y04475D02*
Y04845D01*
X0534*
Y04475D02*
Y04845D01*
X0447Y04475D02*
X0534D01*
G54D16*
X04522Y03082D02*
Y03183D01*
X04568Y03082D02*
Y03183D01*
X04522D02*
X04568D01*
X04522Y03082D02*
X04568D01*
X04397Y04777D02*
Y04878D01*
X04443Y04777D02*
Y04878D01*
X04397D02*
X04443D01*
X04397Y04777D02*
X04443D01*
X05618Y03102D02*
Y03203D01*
X05572Y03102D02*
Y03203D01*
Y03102D02*
X05618D01*
X05572Y03203D02*
X05618D01*
X05548Y03052D02*
Y03153D01*
X05502Y03052D02*
Y03153D01*
Y03052D02*
X05548D01*
X05502Y03153D02*
X05548D01*
X06427Y03413D02*
X06473D01*
X06427Y03312D02*
X06473D01*
X06427D02*
Y03413D01*
X06473Y03312D02*
Y03413D01*
X06427Y03528D02*
X06473D01*
X06427Y03427D02*
X06473D01*
X06427D02*
Y03528D01*
X06473Y03427D02*
Y03528D01*
X05122Y03342D02*
Y03443D01*
X05168Y03342D02*
Y03443D01*
X05122D02*
X05168D01*
X05122Y03342D02*
X05168D01*
X05192D02*
X05238D01*
X05192Y03443D02*
X05238D01*
Y03342D02*
Y03443D01*
X05192Y03342D02*
Y03443D01*
X05442Y03722D02*
Y03823D01*
X05488Y03722D02*
Y03823D01*
X05442D02*
X05488D01*
X05442Y03722D02*
X05488D01*
X05882Y03203D02*
X05928D01*
X05882Y03102D02*
X05928D01*
X05882D02*
Y03203D01*
X05928Y03102D02*
Y03203D01*
X06357Y03312D02*
X06403D01*
X06357Y03413D02*
X06403D01*
Y03312D02*
Y03413D01*
X06357Y03312D02*
Y03413D01*
Y03427D02*
X06403D01*
X06357Y03528D02*
X06403D01*
Y03427D02*
Y03528D01*
X06357Y03427D02*
Y03528D01*
X05957Y03428D02*
X06003D01*
X05957Y03327D02*
X06003D01*
X05957D02*
Y03428D01*
X06003Y03327D02*
Y03428D01*
X05957Y03467D02*
X06003D01*
X05957Y03568D02*
X06003D01*
Y03467D02*
Y03568D01*
X05957Y03467D02*
Y03568D01*
X05637Y03102D02*
X05683D01*
X05637Y03203D02*
X05683D01*
Y03102D02*
Y03203D01*
X05637Y03102D02*
Y03203D01*
X05707Y04777D02*
X05753D01*
X05707Y04878D02*
X05753D01*
Y04777D02*
Y04878D01*
X05707Y04777D02*
Y04878D01*
X05217Y03702D02*
X05263D01*
X05217Y03803D02*
X05263D01*
Y03702D02*
Y03803D01*
X05217Y03702D02*
Y03803D01*
X04387Y04387D02*
X04433D01*
X04387Y04488D02*
X04433D01*
Y04387D02*
Y04488D01*
X04387Y04387D02*
Y04488D01*
X05542Y03717D02*
Y03818D01*
X05588Y03717D02*
Y03818D01*
X05542D02*
X05588D01*
X05542Y03717D02*
X05588D01*
X05707Y04547D02*
Y04648D01*
X05753Y04547D02*
Y04648D01*
X05707D02*
X05753D01*
X05707Y04547D02*
X05753D01*
X0642Y0414D02*
X06415Y04145D01*
X06405*
X064Y0414*
Y0412*
X06405Y04115*
X06415*
X0642Y0412*
X0643Y04115D02*
Y04145D01*
X0645Y04115*
Y04145*
X06475Y04115D02*
Y04145D01*
X0646Y0413*
X0648*
X050125Y0314D02*
X050225D01*
X050175*
Y0311*
X050125*
X050225*
X050575Y03135D02*
X050525Y0314D01*
X050425*
X050375Y03135*
Y03115*
X050425Y0311*
X050525*
X050575Y03115*
X050875Y03135D02*
X050825Y0314D01*
X050725*
X050675Y03135*
Y0313*
X050725Y03125*
X050825*
X050875Y0312*
Y03115*
X050825Y0311*
X050725*
X050675Y03115*
X050975Y0311D02*
Y0314D01*
X051125*
X051175Y03135*
Y03125*
X051125Y0312*
X050975*
X05445Y04125D02*
Y041D01*
X0545Y04095*
X0546*
X05465Y041*
Y04125*
X05495D02*
X05475D01*
Y0411*
X05485Y04115*
X0549*
X05495Y0411*
Y041*
X0549Y04095*
X0548*
X05475Y041*
X0583Y0483D02*
Y0485D01*
X05825Y04855*
X05815*
X0581Y0485*
Y0483*
X05815Y04825*
X05825*
X0582Y04835D02*
X0583Y04825D01*
X05825D02*
X0583Y0483D01*
X0584Y04825D02*
X0585D01*
X05845*
Y04855*
X0584Y0485*
X04765Y03515D02*
Y0349D01*
X0477Y03485*
X0478*
X04785Y0349*
Y03515*
X0481Y03485D02*
Y03515D01*
X04795Y035*
X04815*
X04105Y0494D02*
X041Y04945D01*
X0409*
X04085Y0494*
Y0492*
X0409Y04915*
X041*
X04105Y0492*
X04135Y04915D02*
X04115D01*
X04135Y04935*
Y0494*
X0413Y04945*
X0412*
X04115Y0494*
X04105Y0455D02*
X041Y04555D01*
X0409*
X04085Y0455*
Y0453*
X0409Y04525*
X041*
X04105Y0453*
X04135Y04555D02*
X04125Y0455D01*
X04115Y0454*
Y0453*
X0412Y04525*
X0413*
X04135Y0453*
Y04535*
X0413Y0454*
X04115*
X0447Y0302D02*
X04465Y03025D01*
X04455*
X0445Y0302*
Y03*
X04455Y02995*
X04465*
X0447Y03*
X0448Y02995D02*
Y03025D01*
X045Y02995*
Y03025*
X0453Y02995D02*
X0451D01*
X0453Y03015*
Y0302*
X04525Y03025*
X04515*
X0451Y0302*
X046025Y03135D02*
X045975Y0314D01*
X045875*
X045825Y03135*
Y03115*
X045875Y0311*
X045975*
X046025Y03115*
X046125Y0311D02*
X046225D01*
X046175*
Y0314*
X046125Y03135*
X046375D02*
X046425Y0314D01*
X046525*
X046575Y03135*
Y03115*
X046525Y0311*
X046425*
X046375Y03115*
Y03135*
X0452Y03215D02*
Y03245D01*
X04535*
X0454Y0324*
Y0323*
X04535Y03225*
X0452*
X0453D02*
X0454Y03215D01*
X0455Y0324D02*
X04555Y03245D01*
X04565*
X0457Y0324*
Y03235*
X04565Y0323*
X0456*
X04565*
X0457Y03225*
Y0322*
X04565Y03215*
X04555*
X0455Y0322*
X04415Y04925D02*
X0441Y0493D01*
X044*
X04395Y04925*
Y04905*
X044Y049*
X0441*
X04415Y04905*
X0444Y049D02*
Y0493D01*
X04425Y04915*
X04445*
X0447Y049D02*
Y04875D01*
X04475Y0487*
X04485*
X0449Y04875*
Y049*
X0452Y0487D02*
X045D01*
X0452Y0489*
Y04895*
X04515Y049*
X04505*
X045Y04895*
X04405Y04215D02*
Y04195D01*
X04415Y04185*
X04425Y04195*
Y04215*
X04435D02*
Y04185D01*
X0445*
X04455Y0419*
Y0421*
X0445Y04215*
X04435*
X04465Y04185D02*
Y04215D01*
X0448*
X04485Y0421*
Y042*
X0448Y04195*
X04465*
X04475D02*
X04485Y04185D01*
X0448Y03895D02*
Y03925D01*
X04495*
X045Y0392*
Y0391*
X04495Y03905*
X0448*
X0451Y03925D02*
X0453D01*
X0452*
Y03895*
X0456Y0392D02*
X04555Y03925D01*
X04545*
X0454Y0392*
Y039*
X04545Y03895*
X04555*
X0456Y039*
X05733Y0373D02*
X05753Y037D01*
Y0373D02*
X05733Y037D01*
X05763D02*
X05773D01*
X05768*
Y0373*
X05763Y03725*
X055Y03005D02*
Y03035D01*
X05515*
X0552Y0303*
Y0302*
X05515Y03015*
X055*
X0551D02*
X0552Y03005D01*
X0555Y03035D02*
X0554Y0303D01*
X0553Y0302*
Y0301*
X05535Y03005*
X05545*
X0555Y0301*
Y03015*
X05545Y0302*
X0553*
X05575Y0321D02*
Y0324D01*
X0559*
X05595Y03235*
Y03225*
X0559Y0322*
X05575*
X05585D02*
X05595Y0321D01*
X05605Y0324D02*
X05625D01*
Y03235*
X05605Y03215*
Y0321*
X0644Y035625D02*
X06435Y035575D01*
Y035475*
X0644Y035425*
X0646*
X06465Y035475*
Y035575*
X0646Y035625*
X06465Y035725D02*
Y035825D01*
Y035775*
X06435*
X0644Y035725*
Y035975D02*
X06435Y036025D01*
Y036125*
X0644Y036175*
X06445*
X0645Y036125*
X06455Y036175*
X0646*
X06465Y036125*
Y036025*
X0646Y035975*
X06455*
X0645Y036025*
X06445Y035975*
X0644*
X0645Y036025D02*
Y036125D01*
X06445Y032475D02*
X0644Y032425D01*
Y032325*
X06445Y032275*
X06465*
X0647Y032325*
Y032425*
X06465Y032475*
X0647Y032575D02*
Y032675D01*
Y032625*
X0644*
X06445Y032575*
X0644Y032825D02*
Y033025D01*
X06445*
X06465Y032825*
X0647*
X06037Y03743D02*
Y03718D01*
X06042Y03713*
X06052*
X06057Y03718*
Y03743*
X06087D02*
X06077Y03738D01*
X06067Y03728*
Y03718*
X06072Y03713*
X06082*
X06087Y03718*
Y03723*
X06082Y03728*
X06067*
X0462Y04215D02*
Y0419D01*
X04625Y04185*
X04635*
X0464Y0419*
Y04215*
X0465Y0421D02*
X04655Y04215D01*
X04665*
X0467Y0421*
Y04205*
X04665Y042*
X0466*
X04665*
X0467Y04195*
Y0419*
X04665Y04185*
X04655*
X0465Y0419*
X05285Y03725D02*
Y037D01*
X0529Y03695*
X053*
X05305Y037*
Y03725*
X05315Y03695D02*
X05325D01*
X0532*
Y03725*
X05315Y0372*
X0571Y04676D02*
Y04706D01*
X05725*
X0573Y04701*
Y04691*
X05725Y04686*
X0571*
X0572D02*
X0573Y04676D01*
X0576Y04706D02*
X0574D01*
Y04691*
X0575Y04696*
X05755*
X0576Y04691*
Y04681*
X05755Y04676*
X05745*
X0574Y04681*
X05544Y03846D02*
Y03876D01*
X05559*
X05564Y03871*
Y03861*
X05559Y03856*
X05544*
X05554D02*
X05564Y03846D01*
X05589D02*
Y03876D01*
X05574Y03861*
X05594*
X05115Y03455D02*
Y03485D01*
X0513*
X05135Y0348*
Y0347*
X0513Y03465*
X05115*
X05125D02*
X05135Y03455D01*
X05165D02*
X05145D01*
X05165Y03475*
Y0348*
X0516Y03485*
X0515*
X05145Y0348*
X05445Y03835D02*
Y03865D01*
X0546*
X05465Y0386*
Y0385*
X0546Y03845*
X05445*
X05455D02*
X05465Y03835D01*
X05475D02*
X05485D01*
X0548*
Y03865*
X05475Y0386*
X0614Y04955D02*
Y04925D01*
X06155*
X0616Y0493*
Y0495*
X06155Y04955*
X0614*
X0619Y04925D02*
X0617D01*
X0619Y04945*
Y0495*
X06185Y04955*
X06175*
X0617Y0495*
X03865Y0458D02*
Y0455D01*
X0388*
X03885Y04555*
Y04575*
X0388Y0458*
X03865*
X03895Y0455D02*
X03905D01*
X039*
Y0458*
X03895Y04575*
X059625Y03605D02*
X059575Y0361D01*
X059475*
X059425Y03605*
Y03585*
X059475Y0358*
X059575*
X059625Y03585*
X059725Y0358D02*
X059825D01*
X059775*
Y0361*
X059725Y03605*
X060175Y0361D02*
X060075Y03605D01*
X059975Y03595*
Y03585*
X060025Y0358*
X060125*
X060175Y03585*
Y0359*
X060125Y03595*
X059975*
X059625Y03305D02*
X059575Y0331D01*
X059475*
X059425Y03305*
Y03285*
X059475Y0328*
X059575*
X059625Y03285*
X059725Y0328D02*
X059825D01*
X059775*
Y0331*
X059725Y03305*
X060175Y0331D02*
X059975D01*
Y03295*
X060075Y033*
X060125*
X060175Y03295*
Y03285*
X060125Y0328*
X060025*
X059975Y03285*
X059625Y03165D02*
X059575Y0317D01*
X059475*
X059425Y03165*
Y03145*
X059475Y0314*
X059575*
X059625Y03145*
X059725Y0314D02*
X059825D01*
X059775*
Y0317*
X059725Y03165*
X060125Y0314D02*
Y0317D01*
X059975Y03155*
X060175*
X0637Y035575D02*
X06365Y035525D01*
Y035425*
X0637Y035375*
X0639*
X06395Y035425*
Y035525*
X0639Y035575*
X06395Y035675D02*
Y035775D01*
Y035725*
X06365*
X0637Y035675*
Y035925D02*
X06365Y035975D01*
Y036075*
X0637Y036125*
X06375*
X0638Y036075*
Y036025*
Y036075*
X06385Y036125*
X0639*
X06395Y036075*
Y035975*
X0639Y035925*
X0637Y032475D02*
X06365Y032425D01*
Y032325*
X0637Y032275*
X0639*
X06395Y032325*
Y032425*
X0639Y032475*
X06395Y032575D02*
Y032675D01*
Y032625*
X06365*
X0637Y032575*
X06395Y033025D02*
Y032825D01*
X06375Y033025*
X0637*
X06365Y032975*
Y032875*
X0637Y032825*
X052075Y0348D02*
X052025Y03485D01*
X051925*
X051875Y0348*
Y0346*
X051925Y03455*
X052025*
X052075Y0346*
X052175Y03455D02*
X052275D01*
X052225*
Y03485*
X052175Y0348*
X052425Y03455D02*
X052525D01*
X052475*
Y03485*
X052425Y0348*
X0524Y03855D02*
X05235Y0386D01*
X05225*
X0522Y03855*
Y03835*
X05225Y0383*
X05235*
X0524Y03835*
X0525D02*
X05255Y0383D01*
X05265*
X0527Y03835*
Y03855*
X05265Y0386*
X05255*
X0525Y03855*
Y0385*
X05255Y03845*
X0527*
X0441Y04541D02*
X04405Y04546D01*
X04395*
X0439Y04541*
Y04521*
X04395Y04516*
X04405*
X0441Y04521*
X0442Y04541D02*
X04425Y04546D01*
X04435*
X0444Y04541*
Y04536*
X04435Y04531*
X0444Y04526*
Y04521*
X04435Y04516*
X04425*
X0442Y04521*
Y04526*
X04425Y04531*
X0442Y04536*
Y04541*
X04425Y04531D02*
X04435D01*
X04954Y03899D02*
X04949Y03904D01*
X04939*
X04934Y03899*
Y03879*
X04939Y03874*
X04949*
X04954Y03879*
X04964Y03904D02*
X04984D01*
Y03899*
X04964Y03879*
Y03874*
X0573Y04931D02*
X05725Y04936D01*
X05715*
X0571Y04931*
Y04911*
X05715Y04906*
X05725*
X0573Y04911*
X0576Y04936D02*
X0574D01*
Y04921*
X0575Y04926*
X05755*
X0576Y04921*
Y04911*
X05755Y04906*
X05745*
X0574Y04911*
X05424Y04979D02*
X05419Y04984D01*
X05409*
X05404Y04979*
Y04959*
X05409Y04954*
X05419*
X05424Y04959*
X05434Y04979D02*
X05439Y04984D01*
X05449*
X05454Y04979*
Y04974*
X05449Y04969*
X05444*
X05449*
X05454Y04964*
Y04959*
X05449Y04954*
X05439*
X05434Y04959*
X05715Y0317D02*
X0571Y03175D01*
X057*
X05695Y0317*
Y0315*
X057Y03145*
X0571*
X05715Y0315*
X05725Y03145D02*
X05735D01*
X0573*
Y03175*
X05725Y0317*
G54D17*
X038587Y03962D02*
X03832D01*
Y03942*
X038453*
X03832*
Y03922*
X03892Y03962D02*
X038787D01*
X03872Y039553*
Y039287*
X038787Y03922*
X03892*
X038986Y039287*
Y039553*
X03892Y03962*
X03912Y03922D02*
Y03962D01*
X039386Y03922*
Y03962*
X03952D02*
X039786D01*
X039653*
Y03922*
X040186Y03962D02*
X039919D01*
Y03922*
X040186*
X039919Y03942D02*
X040053D01*
X06472Y04477D02*
Y04517D01*
X064853Y045037*
X064987Y04517*
Y04477*
X06532Y04517D02*
X065187D01*
X06512Y045103*
Y044837*
X065187Y04477*
X06532*
X065386Y044837*
Y045103*
X06532Y04517*
X06552D02*
X065786D01*
X065653*
Y04477*
X06612Y04517D02*
X065986D01*
X06592Y045103*
Y044837*
X065986Y04477*
X06612*
X066186Y044837*
Y045103*
X06612Y04517*
X066319Y04477D02*
Y04517D01*
X066519*
X066586Y045103*
Y04497*
X066519Y044903*
X066319*
X066453D02*
X066586Y04477D01*
X06862Y04627D02*
Y04667D01*
X068753Y046537*
X068887Y04667*
Y04627*
X06902Y04647D02*
X069286D01*
X06862Y04842D02*
Y04882D01*
X068753Y048687*
X068887Y04882*
Y04842*
X06902Y04862D02*
X069286D01*
X069153Y048753D02*
Y048487D01*
X03912Y03303D02*
Y032897D01*
Y032963*
X03872*
Y03303*
Y032897*
Y032697D02*
X03912D01*
X03872Y03243*
X03912*
X03872Y032297D02*
X03912D01*
Y032097*
X039053Y03203*
X03892*
X038853Y032097*
Y032297*
X03912Y031897D02*
X038787D01*
X03872Y03183*
Y031697*
X038787Y03163*
X03912*
Y031497D02*
Y031231D01*
Y031364*
X03872*
X03992Y03338D02*
X03952D01*
Y03318*
X039587Y033113*
X039853*
X03992Y03318*
Y03338*
Y03298D02*
Y032847D01*
Y032913*
X03952*
Y03298*
Y032847*
X039853Y03238D02*
X03992Y032447D01*
Y03258*
X039853Y032647*
X039587*
X03952Y03258*
Y032447*
X039587Y03238*
X03972*
Y032514*
X03992Y032247D02*
Y032114D01*
Y03218*
X03952*
Y032247*
Y032114*
X03992Y031914D02*
Y031647D01*
Y031781*
X03952*
Y031514D02*
X039787D01*
X03992Y031381*
X039787Y031247*
X03952*
X03972*
Y031514*
X03992Y031114D02*
X03952D01*
Y030847*
G54D18*
X0577Y043867D02*
X058033Y043533D01*
X0577D02*
X058033Y043867D01*
X0577Y0437D02*
X058033D01*
X057867Y043533D02*
Y043867D01*
X047675Y04685D02*
Y046433D01*
X047758Y04635*
X047925*
X048008Y046433*
Y04685*
X048508Y04635D02*
X048175D01*
X048508Y046683*
Y046767*
X048425Y04685*
X048258*
X048175Y046767*
X044225Y047267D02*
X044558Y046933D01*
X044225D02*
X044558Y047267D01*
X044225Y0471D02*
X044558D01*
X044392Y046933D02*
Y047267D01*
M02*