%FSTAX24Y24*%
%MOIN*%
%SFA1B1*%

%IPPOS*%
%AMD58*
4,1,8,-0.032500,0.016300,-0.032500,-0.016300,-0.016300,-0.032500,0.016300,-0.032500,0.032500,-0.016300,0.032500,0.016300,0.016300,0.032500,-0.016300,0.032500,-0.032500,0.016300,0.0*
1,1,0.032400,-0.016300,0.016300*
1,1,0.032400,-0.016300,-0.016300*
1,1,0.032400,0.016300,-0.016300*
1,1,0.032400,0.016300,0.016300*
%
%AMD63*
4,1,8,-0.035400,0.061000,-0.035400,-0.061000,-0.017700,-0.078700,0.017700,-0.078700,0.035400,-0.061000,0.035400,0.061000,0.017700,0.078700,-0.017700,0.078700,-0.035400,0.061000,0.0*
1,1,0.035400,-0.017700,0.061000*
1,1,0.035400,-0.017700,-0.061000*
1,1,0.035400,0.017700,-0.061000*
1,1,0.035400,0.017700,0.061000*
%
%AMD64*
4,1,8,-0.061000,-0.035400,0.061000,-0.035400,0.078700,-0.017700,0.078700,0.017700,0.061000,0.035400,-0.061000,0.035400,-0.078700,0.017700,-0.078700,-0.017700,-0.061000,-0.035400,0.0*
1,1,0.035400,-0.061000,-0.017700*
1,1,0.035400,0.061000,-0.017700*
1,1,0.035400,0.061000,0.017700*
1,1,0.035400,-0.061000,0.017700*
%
%ADD19C,0.053900*%
%ADD20R,0.037000X0.098000*%
%ADD21R,0.267000X0.273000*%
%ADD22R,0.047200X0.133900*%
%ADD23R,0.030000X0.030000*%
%ADD24R,0.078700X0.070900*%
%ADD25R,0.094500X0.070900*%
%ADD26O,0.074800X0.011800*%
%ADD27O,0.011800X0.074800*%
%ADD28R,0.060000X0.025600*%
%ADD45C,0.050000*%
%ADD46R,0.050000X0.050000*%
%ADD56C,0.189000*%
%ADD57C,0.065000*%
G04~CAMADD=58~8~0.0~0.0~650.0~650.0~162.0~0.0~15~0.0~0.0~0.0~0.0~0~0.0~0.0~0.0~0.0~0~0.0~0.0~0.0~90.0~650.0~650.0*
%ADD58D58*%
%ADD59O,0.065000X0.090000*%
%ADD60R,0.065000X0.090000*%
%ADD61C,0.102400*%
%ADD62R,0.102400X0.102400*%
G04~CAMADD=63~8~0.0~0.0~1575.0~709.0~177.0~0.0~15~0.0~0.0~0.0~0.0~0~0.0~0.0~0.0~0.0~0~0.0~0.0~0.0~90.0~708.0~1574.0*
%ADD63D63*%
G04~CAMADD=64~8~0.0~0.0~1575.0~709.0~177.0~0.0~15~0.0~0.0~0.0~0.0~0~0.0~0.0~0.0~0.0~0~0.0~0.0~0.0~180.0~1574.0~708.0*
%ADD64D64*%
%ADD65C,0.090600*%
%ADD66C,0.086600*%
%ADD67R,0.086600X0.086600*%
%ADD68R,0.060000X0.070000*%
%ADD69O,0.060000X0.070000*%
%LNpcb1-1*%
%LPD*%
G54D19*
X05565Y040274D03*
X05665D03*
Y044026D03*
X05565D03*
X046674Y0342D03*
Y0332D03*
X050426D03*
Y0342D03*
G54D20*
X060402Y044025D03*
X058598D03*
G54D21*
X0595Y04655D03*
G54D22*
X04215Y04853D03*
Y04667D03*
Y04463D03*
Y04277D03*
X05535Y04672D03*
Y04858D03*
X05065Y03592D03*
Y03778D03*
G54D23*
X04545Y03105D03*
Y0316D03*
X0442Y048D03*
Y04855D03*
X05595Y0318D03*
Y03125D03*
X05525Y0313D03*
Y03075D03*
X0645Y03335D03*
Y0339D03*
Y0345D03*
Y03505D03*
X05145Y03365D03*
Y0342D03*
X05215D03*
Y03365D03*
X05465Y03745D03*
Y038D03*
X05905Y03125D03*
Y0318D03*
X0638Y0339D03*
Y03335D03*
Y03505D03*
Y0345D03*
X0598Y0335D03*
Y03405D03*
Y03545D03*
Y0349D03*
X0566Y0318D03*
Y03125D03*
X0573Y04855D03*
Y048D03*
X0524Y0378D03*
Y03725D03*
X0441Y04465D03*
Y0441D03*
X05565Y0374D03*
Y03795D03*
X0573Y0457D03*
Y04625D03*
G54D24*
X04545Y034201D03*
Y033099D03*
G54D25*
X03943Y04299D03*
X03942Y04462D03*
X06218Y04674D03*
X06217Y04837D03*
G54D26*
X056604Y033467D03*
Y033664D03*
Y033861D03*
Y034058D03*
Y034255D03*
Y034452D03*
Y034648D03*
Y034845D03*
Y035042D03*
Y035239D03*
Y035436D03*
Y035633D03*
X053296D03*
Y035436D03*
Y035239D03*
Y035042D03*
Y034845D03*
Y034648D03*
Y034452D03*
Y034255D03*
Y034058D03*
Y033861D03*
Y033664D03*
Y033467D03*
G54D27*
X056033Y036204D03*
X055836D03*
X055639D03*
X055442D03*
X055245D03*
X055048D03*
X054852D03*
X054655D03*
X054458D03*
X054261D03*
X054064D03*
X053867D03*
Y032896D03*
X054064D03*
X054261D03*
X054458D03*
X054655D03*
X054852D03*
X055048D03*
X055245D03*
X055442D03*
X055639D03*
X055836D03*
X056033D03*
G54D28*
X060732Y03305D03*
Y03355D03*
Y03405D03*
Y03455D03*
Y03505D03*
Y03555D03*
Y03605D03*
Y03655D03*
X062868D03*
Y03605D03*
Y03555D03*
Y03505D03*
Y03455D03*
Y03405D03*
Y03355D03*
Y03305D03*
G54D45*
X05255Y0471D03*
X05155D03*
X05055D03*
X04955D03*
X04755D03*
X04655D03*
G54D46*
X04555Y0471D03*
G54D56*
X066101Y040521D03*
Y030679D03*
G54D57*
X06666Y033964D03*
Y035055D03*
Y036145D03*
Y037236D03*
X065542Y036691D03*
Y033419D03*
Y034509D03*
Y0356D03*
G54D58*
X065542Y037781D03*
G54D59*
X05365Y03045D03*
X05265D03*
X05165D03*
G54D60*
X05065Y03045D03*
G54D61*
X0655Y04855D03*
X0424Y0311D03*
G54D62*
X0655Y04655D03*
X0424Y0331D03*
G54D63*
X043333Y0371D03*
X04105D03*
G54D64*
X042152Y03521D03*
G54D65*
X044476Y040306D03*
X041524Y041094D03*
G54D66*
X04555Y0379D03*
Y0359D03*
X0583Y033516D03*
G54D67*
X0583Y035484D03*
G54D68*
X04705Y0395D03*
G54D69*
X04805Y0395D03*
X04905D03*
X05005D03*
M02*