G04*
G04 #@! TF.GenerationSoftware,Altium Limited,Altium Designer,24.1.2 (44)*
G04*
G04 Layer_Physical_Order=1*
G04 Layer_Color=255*
%FSLAX24Y24*%
%MOIN*%
G70*
G04*
G04 #@! TF.SameCoordinates,E58B8CFC-B59F-40A7-A0C9-9F9E0F661D6A*
G04*
G04*
G04 #@! TF.FilePolarity,Positive*
G04*
G01*
G75*
%ADD12C,0.0100*%
%ADD19C,0.0539*%
%ADD20R,0.0370X0.0980*%
%ADD21R,0.2670X0.2730*%
%ADD22R,0.0472X0.1339*%
%ADD23R,0.0300X0.0300*%
%ADD24R,0.0787X0.0709*%
%ADD25R,0.0945X0.0709*%
%ADD26O,0.0748X0.0118*%
%ADD27O,0.0118X0.0748*%
%ADD28R,0.0600X0.0256*%
%ADD45C,0.0500*%
%ADD46R,0.0500X0.0500*%
%ADD53C,0.0300*%
%ADD54C,0.0200*%
%ADD55C,0.0150*%
%ADD56C,0.1890*%
%ADD57C,0.0650*%
G04:AMPARAMS|DCode=58|XSize=65mil|YSize=65mil|CornerRadius=16.2mil|HoleSize=0mil|Usage=FLASHONLY|Rotation=90.000|XOffset=0mil|YOffset=0mil|HoleType=Round|Shape=RoundedRectangle|*
%AMROUNDEDRECTD58*
21,1,0.0650,0.0325,0,0,90.0*
21,1,0.0325,0.0650,0,0,90.0*
1,1,0.0325,0.0162,0.0162*
1,1,0.0325,0.0162,-0.0162*
1,1,0.0325,-0.0162,-0.0162*
1,1,0.0325,-0.0162,0.0162*
%
%ADD58ROUNDEDRECTD58*%
%ADD59O,0.0650X0.0900*%
%ADD60R,0.0650X0.0900*%
%ADD61C,0.1024*%
%ADD62R,0.1024X0.1024*%
G04:AMPARAMS|DCode=63|XSize=157.5mil|YSize=70.9mil|CornerRadius=17.7mil|HoleSize=0mil|Usage=FLASHONLY|Rotation=90.000|XOffset=0mil|YOffset=0mil|HoleType=Round|Shape=RoundedRectangle|*
%AMROUNDEDRECTD63*
21,1,0.1575,0.0354,0,0,90.0*
21,1,0.1220,0.0709,0,0,90.0*
1,1,0.0354,0.0177,0.0610*
1,1,0.0354,0.0177,-0.0610*
1,1,0.0354,-0.0177,-0.0610*
1,1,0.0354,-0.0177,0.0610*
%
%ADD63ROUNDEDRECTD63*%
G04:AMPARAMS|DCode=64|XSize=157.5mil|YSize=70.9mil|CornerRadius=17.7mil|HoleSize=0mil|Usage=FLASHONLY|Rotation=180.000|XOffset=0mil|YOffset=0mil|HoleType=Round|Shape=RoundedRectangle|*
%AMROUNDEDRECTD64*
21,1,0.1575,0.0354,0,0,180.0*
21,1,0.1220,0.0709,0,0,180.0*
1,1,0.0354,-0.0610,0.0177*
1,1,0.0354,0.0610,0.0177*
1,1,0.0354,0.0610,-0.0177*
1,1,0.0354,-0.0610,-0.0177*
%
%ADD64ROUNDEDRECTD64*%
%ADD65C,0.0906*%
%ADD66C,0.0866*%
%ADD67R,0.0866X0.0866*%
%ADD68R,0.0600X0.0700*%
%ADD69O,0.0600X0.0700*%
%ADD70C,0.0157*%
G36*
X48050Y43326D02*
X48004Y43306D01*
X46530Y44780D01*
X46400Y44834D01*
X46400Y44834D01*
X44320D01*
Y44870D01*
X43880D01*
Y44814D01*
X42456D01*
Y45369D01*
X41844D01*
Y44804D01*
X39962D01*
Y45044D01*
X39658D01*
Y47121D01*
X40829Y48292D01*
X41844D01*
Y47791D01*
X42456D01*
Y48312D01*
X45601D01*
X46312Y47601D01*
Y47314D01*
X46230Y47233D01*
Y46967D01*
X46417Y46780D01*
X46683D01*
X46870Y46967D01*
Y47233D01*
X46788Y47314D01*
Y47700D01*
X46788Y47700D01*
X46718Y47868D01*
X46718Y47868D01*
X45868Y48718D01*
X45700Y48788D01*
X45700Y48788D01*
X42456D01*
Y49269D01*
X41844D01*
Y48768D01*
X40730D01*
X40730Y48768D01*
X40562Y48698D01*
X40562Y48698D01*
X39252Y47388D01*
X39182Y47220D01*
X39182Y47220D01*
Y45044D01*
X38878D01*
Y44196D01*
X39962D01*
Y44436D01*
X41844D01*
Y43891D01*
X42456D01*
Y44446D01*
X43880D01*
Y44430D01*
X44320D01*
Y44466D01*
X46324D01*
X47766Y43024D01*
Y39899D01*
X47766Y39899D01*
X47789Y39842D01*
X47767Y39833D01*
X47650Y39550D01*
Y39450D01*
X47767Y39167D01*
X48050Y39050D01*
Y29530D01*
X38130D01*
X38130Y49870D01*
X48050D01*
Y43326D01*
D02*
G37*
G36*
X69820Y42800D02*
X49050D01*
Y49870D01*
X69820D01*
Y42800D01*
D02*
G37*
G36*
X69858Y41758D02*
X69950Y41720D01*
Y29400D01*
X49050D01*
Y39017D01*
X49356Y39144D01*
X49483Y39450D01*
D01*
X49050D01*
Y39550D01*
X49483D01*
X49356Y39856D01*
X49050Y39983D01*
Y41850D01*
X69820D01*
X69858Y41758D01*
D02*
G37*
%LPC*%
G36*
X44450Y48250D02*
X44250D01*
Y48050D01*
X44450D01*
Y48250D01*
D02*
G37*
G36*
X44150D02*
X43950D01*
Y48050D01*
X44150D01*
Y48250D01*
D02*
G37*
G36*
X44450Y47950D02*
X44250D01*
Y47750D01*
X44450D01*
Y47950D01*
D02*
G37*
G36*
X44150D02*
X43950D01*
Y47750D01*
X44150D01*
Y47950D01*
D02*
G37*
G36*
X47695Y47450D02*
X47600D01*
Y47150D01*
X47900D01*
Y47245D01*
X47695Y47450D01*
D02*
G37*
G36*
X47500D02*
X47405D01*
X47200Y47245D01*
Y47150D01*
X47500D01*
Y47450D01*
D02*
G37*
G36*
X45900D02*
X45600D01*
Y47150D01*
X45900D01*
Y47450D01*
D02*
G37*
G36*
X45500D02*
X45200D01*
Y47150D01*
X45500D01*
Y47450D01*
D02*
G37*
G36*
X47900Y47050D02*
X47600D01*
Y46750D01*
X47695D01*
X47900Y46955D01*
Y47050D01*
D02*
G37*
G36*
X47500D02*
X47200D01*
Y46955D01*
X47405Y46750D01*
X47500D01*
Y47050D01*
D02*
G37*
G36*
X45900D02*
X45600D01*
Y46750D01*
X45900D01*
Y47050D01*
D02*
G37*
G36*
X45500D02*
X45200D01*
Y46750D01*
X45500D01*
Y47050D01*
D02*
G37*
G36*
X42486Y47439D02*
X42200D01*
Y46720D01*
X42486D01*
Y47439D01*
D02*
G37*
G36*
X42100D02*
X41814D01*
Y46720D01*
X42100D01*
Y47439D01*
D02*
G37*
G36*
X42486Y46620D02*
X42200D01*
Y45901D01*
X42486D01*
Y46620D01*
D02*
G37*
G36*
X42100D02*
X41814D01*
Y45901D01*
X42100D01*
Y46620D01*
D02*
G37*
G36*
X44350Y44350D02*
X44150D01*
Y44150D01*
X44350D01*
Y44350D01*
D02*
G37*
G36*
X44050D02*
X43850D01*
Y44150D01*
X44050D01*
Y44350D01*
D02*
G37*
G36*
X44350Y44050D02*
X44150D01*
Y43850D01*
X44350D01*
Y44050D01*
D02*
G37*
G36*
X44050D02*
X43850D01*
Y43850D01*
X44050D01*
Y44050D01*
D02*
G37*
G36*
X42486Y43539D02*
X42200D01*
Y42820D01*
X42486D01*
Y43539D01*
D02*
G37*
G36*
X42100D02*
X41814D01*
Y42820D01*
X42100D01*
Y43539D01*
D02*
G37*
G36*
X42486Y42720D02*
X42200D01*
Y42001D01*
X42486D01*
Y42720D01*
D02*
G37*
G36*
X42100D02*
X41814D01*
Y42001D01*
X42100D01*
Y42720D01*
D02*
G37*
G36*
X41753Y41646D02*
X41574D01*
Y41144D01*
X42076D01*
Y41323D01*
X41753Y41646D01*
D02*
G37*
G36*
X41474D02*
X41295D01*
X40971Y41323D01*
Y41144D01*
X41474D01*
Y41646D01*
D02*
G37*
G36*
X42076Y41044D02*
X41574D01*
Y40541D01*
X41753D01*
X42076Y40865D01*
Y41044D01*
D02*
G37*
G36*
X41474D02*
X40971D01*
Y40865D01*
X41295Y40541D01*
X41474D01*
Y41044D01*
D02*
G37*
G36*
X47450Y39950D02*
X47100D01*
Y39550D01*
X47450D01*
Y39950D01*
D02*
G37*
G36*
X47000D02*
X46650D01*
Y39550D01*
X47000D01*
Y39950D01*
D02*
G37*
G36*
X47450Y39450D02*
X47100D01*
Y39050D01*
X47450D01*
Y39450D01*
D02*
G37*
G36*
X47000D02*
X46650D01*
Y39050D01*
X47000D01*
Y39450D01*
D02*
G37*
G36*
X39972Y43414D02*
X38888D01*
Y42566D01*
X39192D01*
Y41270D01*
X39192Y41270D01*
X39262Y41102D01*
X40382Y39982D01*
X40382Y39982D01*
X40550Y39912D01*
X40550Y39912D01*
X43998D01*
X43998Y39912D01*
X44092Y39951D01*
X44260Y39784D01*
X44662D01*
X45312Y39134D01*
Y38373D01*
X45047Y38108D01*
Y37692D01*
X45342Y37397D01*
X45758D01*
X46053Y37692D01*
Y38108D01*
X45788Y38373D01*
Y39233D01*
X45788Y39233D01*
X45718Y39401D01*
X45718Y39401D01*
X44999Y40120D01*
Y40523D01*
X44693Y40829D01*
X44260D01*
X43954Y40523D01*
Y40393D01*
X43941Y40388D01*
X40649D01*
X39668Y41369D01*
Y42566D01*
X39972D01*
Y43414D01*
D02*
G37*
G36*
X41227Y38010D02*
X41100D01*
Y37150D01*
X41527D01*
Y37710D01*
X41439Y37922D01*
X41227Y38010D01*
D02*
G37*
G36*
X41000D02*
X40873D01*
X40661Y37922D01*
X40573Y37710D01*
Y37150D01*
X41000D01*
Y38010D01*
D02*
G37*
G36*
X41527Y37050D02*
X41100D01*
Y36190D01*
X41227D01*
X41439Y36278D01*
X41527Y36490D01*
Y37050D01*
D02*
G37*
G36*
X41000D02*
X40573D01*
Y36490D01*
X40661Y36278D01*
X40873Y36190D01*
X41000D01*
Y37050D01*
D02*
G37*
G36*
X43511Y37978D02*
X43156D01*
X42967Y37899D01*
X42889Y37710D01*
Y36490D01*
X42967Y36301D01*
X43156Y36222D01*
X43441D01*
X43932Y35732D01*
X43932Y35732D01*
X44100Y35662D01*
X45077D01*
X45342Y35397D01*
X45758D01*
X46053Y35692D01*
Y36108D01*
X45758Y36403D01*
X45342D01*
X45077Y36138D01*
X44199D01*
X43778Y36559D01*
Y37710D01*
X43700Y37899D01*
X43511Y37978D01*
D02*
G37*
G36*
X42763Y35687D02*
X42202D01*
Y35260D01*
X43063D01*
Y35387D01*
X42975Y35600D01*
X42763Y35687D01*
D02*
G37*
G36*
X42102D02*
X41542D01*
X41330Y35600D01*
X41242Y35387D01*
Y35260D01*
X42102D01*
Y35687D01*
D02*
G37*
G36*
X43063Y35160D02*
X42202D01*
Y34733D01*
X42763D01*
X42975Y34821D01*
X43063Y35033D01*
Y35160D01*
D02*
G37*
G36*
X42102D02*
X41242D01*
Y35033D01*
X41330Y34821D01*
X41542Y34733D01*
X42102D01*
Y35160D01*
D02*
G37*
G36*
X46894Y34626D02*
X46375D01*
X46321Y34604D01*
X46299Y34550D01*
Y34384D01*
X45914D01*
Y34626D01*
X44986D01*
Y33777D01*
X45914D01*
Y34016D01*
X46299D01*
Y33850D01*
X46321Y33796D01*
X46375Y33774D01*
X46894D01*
X46908Y33780D01*
X46923D01*
X46960Y33795D01*
X46970Y33805D01*
X46984Y33811D01*
X47012Y33839D01*
X47018Y33853D01*
X47028Y33863D01*
X47043Y33899D01*
Y33915D01*
X47049Y33928D01*
Y34472D01*
X47043Y34485D01*
Y34501D01*
X47028Y34537D01*
X47018Y34547D01*
X47012Y34561D01*
X46984Y34589D01*
X46970Y34595D01*
X46960Y34605D01*
X46923Y34620D01*
X46908D01*
X46894Y34626D01*
D02*
G37*
G36*
X46827Y33569D02*
X46724D01*
Y33550D01*
X46846D01*
X46827Y33569D01*
D02*
G37*
G36*
X46624D02*
X46521D01*
X46502Y33550D01*
X46624D01*
Y33569D01*
D02*
G37*
G36*
X46973Y33423D02*
Y33250D01*
X47043D01*
Y33353D01*
X46973Y33423D01*
D02*
G37*
G36*
X46375Y33423D02*
X46305Y33353D01*
Y33250D01*
X46375D01*
Y33423D01*
D02*
G37*
G36*
Y33150D02*
X46305D01*
Y33047D01*
X46375Y32977D01*
Y33150D01*
D02*
G37*
G36*
X47043D02*
X46973D01*
Y32977D01*
X47043Y33047D01*
Y33150D01*
D02*
G37*
G36*
X46846Y32850D02*
X46724D01*
Y32831D01*
X46827D01*
X46846Y32850D01*
D02*
G37*
G36*
X46624D02*
X46502D01*
X46521Y32831D01*
X46624D01*
Y32850D01*
D02*
G37*
G36*
X42982Y33682D02*
X41818D01*
Y32518D01*
X42982D01*
Y32916D01*
X44986D01*
Y32674D01*
X45266D01*
Y31820D01*
X45230D01*
Y31380D01*
X45670D01*
Y31416D01*
X46000D01*
X46130Y31470D01*
X46184Y31600D01*
X46130Y31730D01*
X46000Y31784D01*
X45670D01*
Y31820D01*
X45634D01*
Y32674D01*
X45914D01*
Y33523D01*
X44986D01*
Y33284D01*
X42982D01*
Y33682D01*
D02*
G37*
G36*
X42653Y31712D02*
X42450D01*
Y31150D01*
X43012D01*
Y31353D01*
X42653Y31712D01*
D02*
G37*
G36*
X42350D02*
X42147D01*
X41788Y31353D01*
Y31150D01*
X42350D01*
Y31712D01*
D02*
G37*
G36*
X45700Y31300D02*
X45500D01*
Y31100D01*
X45700D01*
Y31300D01*
D02*
G37*
G36*
X45400D02*
X45200D01*
Y31100D01*
X45400D01*
Y31300D01*
D02*
G37*
G36*
X45700Y31000D02*
X45500D01*
Y30800D01*
X45700D01*
Y31000D01*
D02*
G37*
G36*
X45400D02*
X45200D01*
Y30800D01*
X45400D01*
Y31000D01*
D02*
G37*
G36*
X43012Y31050D02*
X42450D01*
Y30488D01*
X42653D01*
X43012Y30847D01*
Y31050D01*
D02*
G37*
G36*
X42350D02*
X41788D01*
Y30847D01*
X42147Y30488D01*
X42350D01*
Y31050D01*
D02*
G37*
%LPD*%
G36*
X46931Y34535D02*
X46958Y34508D01*
X46973Y34472D01*
Y34452D01*
Y33948D01*
Y33928D01*
X46958Y33892D01*
X46931Y33865D01*
X46894Y33850D01*
X46375D01*
Y34550D01*
X46894D01*
X46931Y34535D01*
D02*
G37*
%LPC*%
G36*
X55656Y49319D02*
X55044D01*
Y48818D01*
X51230D01*
X51230Y48818D01*
X51146Y48783D01*
X51062Y48748D01*
X51062Y48748D01*
X50382Y48068D01*
X50312Y47900D01*
X50312Y47900D01*
Y47314D01*
X50230Y47233D01*
Y46967D01*
X50417Y46780D01*
X50683D01*
X50870Y46967D01*
Y47233D01*
X50788Y47314D01*
Y47801D01*
X51329Y48342D01*
X55044D01*
Y47841D01*
X55656D01*
Y48312D01*
X56143D01*
Y45915D01*
X55539Y45311D01*
X55493Y45200D01*
Y44401D01*
X55300D01*
X55246Y44379D01*
X55224Y44325D01*
Y43825D01*
Y43806D01*
X55230Y43792D01*
Y43777D01*
X55245Y43740D01*
X55255Y43730D01*
X55261Y43716D01*
X55289Y43688D01*
X55303Y43682D01*
X55313Y43672D01*
X55349Y43657D01*
X55365D01*
X55378Y43651D01*
X55922D01*
X55935Y43657D01*
X55951D01*
X55987Y43672D01*
X55997Y43682D01*
X56011Y43688D01*
X56039Y43716D01*
X56045Y43730D01*
X56055Y43740D01*
X56070Y43777D01*
Y43792D01*
X56076Y43806D01*
Y43825D01*
Y44325D01*
X56054Y44379D01*
X56000Y44401D01*
X55807D01*
Y45135D01*
X56411Y45739D01*
X56457Y45850D01*
Y48312D01*
X61628D01*
Y47946D01*
X62712D01*
Y48312D01*
X64918D01*
Y48309D01*
X65259Y47968D01*
X65741D01*
X66082Y48309D01*
Y48791D01*
X65741Y49132D01*
X65259D01*
X64918Y48791D01*
Y48788D01*
X62712D01*
Y48794D01*
X61628D01*
Y48788D01*
X55656D01*
Y49319D01*
D02*
G37*
G36*
X57550Y48250D02*
X57350D01*
Y48050D01*
X57550D01*
Y48250D01*
D02*
G37*
G36*
X57250D02*
X57050D01*
Y48050D01*
X57250D01*
Y48250D01*
D02*
G37*
G36*
X57550Y47950D02*
X57350D01*
Y47750D01*
X57550D01*
Y47950D01*
D02*
G37*
G36*
X57250D02*
X57050D01*
Y47750D01*
X57250D01*
Y47950D01*
D02*
G37*
G36*
X51695Y47450D02*
X51600D01*
Y47150D01*
X51900D01*
Y47245D01*
X51695Y47450D01*
D02*
G37*
G36*
X51500D02*
X51405D01*
X51200Y47245D01*
Y47150D01*
X51500D01*
Y47450D01*
D02*
G37*
G36*
X52683Y47420D02*
X52417D01*
X52230Y47233D01*
Y46967D01*
X52417Y46780D01*
X52683D01*
X52870Y46967D01*
Y47233D01*
X52683Y47420D01*
D02*
G37*
G36*
X49683D02*
X49417D01*
X49230Y47233D01*
Y46967D01*
X49417Y46780D01*
X49683D01*
X49870Y46967D01*
Y47233D01*
X49683Y47420D01*
D02*
G37*
G36*
X55686Y47489D02*
X55400D01*
Y46770D01*
X55686D01*
Y47489D01*
D02*
G37*
G36*
X55300D02*
X55014D01*
Y46770D01*
X55300D01*
Y47489D01*
D02*
G37*
G36*
X51900Y47050D02*
X51600D01*
Y46750D01*
X51695D01*
X51900Y46955D01*
Y47050D01*
D02*
G37*
G36*
X51500D02*
X51200D01*
Y46955D01*
X51405Y46750D01*
X51500D01*
Y47050D01*
D02*
G37*
G36*
X57550Y46500D02*
X57350D01*
Y46300D01*
X57550D01*
Y46500D01*
D02*
G37*
G36*
X57250D02*
X57050D01*
Y46300D01*
X57250D01*
Y46500D01*
D02*
G37*
G36*
X57550Y46200D02*
X57350D01*
Y46000D01*
X57550D01*
Y46200D01*
D02*
G37*
G36*
X57250D02*
X57050D01*
Y46000D01*
X57250D01*
Y46200D01*
D02*
G37*
G36*
X60905Y47985D02*
X58095D01*
Y45115D01*
X60905D01*
Y46312D01*
X62370D01*
X62370Y46312D01*
X62370Y46312D01*
X62470D01*
X62484Y46306D01*
X62499Y46312D01*
X64918D01*
Y45968D01*
X66082D01*
Y47132D01*
X64918D01*
Y46788D01*
X62722D01*
Y47164D01*
X61638D01*
Y46788D01*
X60905D01*
Y47985D01*
D02*
G37*
G36*
X55686Y46670D02*
X55400D01*
Y45951D01*
X55686D01*
Y46670D01*
D02*
G37*
G36*
X55300D02*
X55014D01*
Y45951D01*
X55300D01*
Y46670D01*
D02*
G37*
G36*
X57520Y45920D02*
X57080D01*
Y45857D01*
X56950D01*
X56839Y45811D01*
X56539Y45511D01*
X56493Y45400D01*
Y44401D01*
X56300D01*
X56246Y44379D01*
X56224Y44325D01*
Y43825D01*
Y43806D01*
X56230Y43792D01*
Y43777D01*
X56245Y43740D01*
X56255Y43730D01*
X56261Y43716D01*
X56289Y43688D01*
X56303Y43682D01*
X56313Y43672D01*
X56349Y43657D01*
X56365D01*
X56378Y43651D01*
X56922D01*
X56935Y43657D01*
X56951D01*
X56987Y43672D01*
X56997Y43682D01*
X57011Y43688D01*
X57039Y43716D01*
X57045Y43730D01*
X57055Y43740D01*
X57070Y43777D01*
Y43792D01*
X57076Y43806D01*
Y43825D01*
Y43869D01*
X58343D01*
Y43465D01*
X58853D01*
Y44585D01*
X58343D01*
Y44183D01*
X57076D01*
Y44325D01*
X57054Y44379D01*
X57000Y44401D01*
X56807D01*
Y45335D01*
X57015Y45543D01*
X57080D01*
Y45480D01*
X57520D01*
Y45920D01*
D02*
G37*
G36*
X60687Y44615D02*
X60452D01*
Y44075D01*
X60687D01*
Y44615D01*
D02*
G37*
G36*
X60352D02*
X60117D01*
Y44075D01*
X60352D01*
Y44615D01*
D02*
G37*
G36*
X60687Y43975D02*
X60452D01*
Y43435D01*
X60687D01*
Y43975D01*
D02*
G37*
G36*
X60352D02*
X60117D01*
Y43435D01*
X60352D01*
Y43975D01*
D02*
G37*
%LPD*%
G36*
X56000Y43825D02*
Y43806D01*
X55985Y43769D01*
X55958Y43742D01*
X55922Y43727D01*
X55378D01*
X55342Y43742D01*
X55315Y43769D01*
X55300Y43806D01*
Y43825D01*
Y44325D01*
X56000D01*
Y43825D01*
D02*
G37*
G36*
X57000D02*
Y43806D01*
X56985Y43769D01*
X56958Y43742D01*
X56922Y43727D01*
X56378D01*
X56342Y43742D01*
X56315Y43769D01*
X56300Y43806D01*
Y43825D01*
Y44325D01*
X57000D01*
Y43825D01*
D02*
G37*
%LPC*%
G36*
X56803Y40643D02*
X56700D01*
Y40573D01*
X56873D01*
X56803Y40643D01*
D02*
G37*
G36*
X56600D02*
X56497D01*
X56427Y40573D01*
X56600D01*
Y40643D01*
D02*
G37*
G36*
X57000Y40446D02*
Y40324D01*
X57019D01*
Y40427D01*
X57000Y40446D01*
D02*
G37*
G36*
X56300D02*
X56281Y40427D01*
Y40324D01*
X56300D01*
Y40446D01*
D02*
G37*
G36*
X57019Y40224D02*
X57000D01*
Y40102D01*
X57019Y40121D01*
Y40224D01*
D02*
G37*
G36*
X56300D02*
X56281D01*
Y40121D01*
X56300Y40102D01*
Y40224D01*
D02*
G37*
G36*
X56873Y39975D02*
X56700D01*
Y39905D01*
X56803D01*
X56873Y39975D01*
D02*
G37*
G36*
X56600D02*
X56427D01*
X56497Y39905D01*
X56600D01*
Y39975D01*
D02*
G37*
G36*
X66521Y41536D02*
X65680D01*
X65086Y40942D01*
Y40101D01*
X65680Y39506D01*
X66521D01*
X67116Y40101D01*
Y40942D01*
X66521Y41536D01*
D02*
G37*
G36*
X54900Y38250D02*
X54700D01*
Y38050D01*
X54900D01*
Y38250D01*
D02*
G37*
G36*
X54600D02*
X54400D01*
Y38050D01*
X54600D01*
Y38250D01*
D02*
G37*
G36*
X54900Y37950D02*
X54700D01*
Y37750D01*
X54900D01*
Y37950D01*
D02*
G37*
G36*
X54600D02*
X54400D01*
Y37750D01*
X54600D01*
Y37950D01*
D02*
G37*
G36*
X55922Y40649D02*
X55378D01*
X55365Y40643D01*
X55349D01*
X55313Y40628D01*
X55303Y40618D01*
X55289Y40612D01*
X55261Y40584D01*
X55255Y40570D01*
X55245Y40560D01*
X55230Y40523D01*
Y40508D01*
X55224Y40494D01*
Y39975D01*
X55246Y39921D01*
X55300Y39899D01*
X55520D01*
Y38170D01*
X55430D01*
Y37730D01*
X55870D01*
Y38170D01*
X55780D01*
Y39899D01*
X56000D01*
X56054Y39921D01*
X56076Y39975D01*
Y40494D01*
X56070Y40508D01*
Y40523D01*
X56055Y40560D01*
X56045Y40570D01*
X56039Y40584D01*
X56011Y40612D01*
X55997Y40618D01*
X55987Y40628D01*
X55951Y40643D01*
X55935D01*
X55922Y40649D01*
D02*
G37*
G36*
X65704Y38195D02*
X65379D01*
X65201Y38121D01*
X65128Y37943D01*
Y37619D01*
X65201Y37441D01*
X65379Y37367D01*
X65704D01*
X65882Y37441D01*
X65956Y37619D01*
Y37943D01*
X65882Y38121D01*
X65704Y38195D01*
D02*
G37*
G36*
X52650Y37500D02*
X52450D01*
Y37300D01*
X52650D01*
Y37500D01*
D02*
G37*
G36*
X52350D02*
X52150D01*
Y37300D01*
X52350D01*
Y37500D01*
D02*
G37*
G36*
X52650Y37200D02*
X52450D01*
Y37000D01*
X52650D01*
Y37200D01*
D02*
G37*
G36*
X52350D02*
X52150D01*
Y37000D01*
X52350D01*
Y37200D01*
D02*
G37*
G36*
X66823Y37631D02*
X66496D01*
X66265Y37399D01*
Y37072D01*
X66496Y36841D01*
X66823D01*
X67055Y37072D01*
Y37399D01*
X66823Y37631D01*
D02*
G37*
G36*
X54870Y37670D02*
X54430D01*
Y37230D01*
X54525D01*
Y36675D01*
X54483Y36648D01*
X54458Y36658D01*
X54359Y36617D01*
X54261Y36658D01*
X54202Y36634D01*
X54114Y36670D01*
Y36204D01*
Y35737D01*
X54202Y35773D01*
X54261Y35749D01*
X54359Y35790D01*
X54458Y35749D01*
X54556Y35790D01*
X54655Y35749D01*
X54753Y35790D01*
X54852Y35749D01*
X54950Y35790D01*
X55048Y35749D01*
X55147Y35790D01*
X55245Y35749D01*
X55344Y35790D01*
X55442Y35749D01*
X55541Y35790D01*
X55639Y35749D01*
X55737Y35790D01*
X55836Y35749D01*
X55934Y35790D01*
X56033Y35749D01*
X56131Y35790D01*
X56172Y35889D01*
Y36518D01*
X56163Y36542D01*
Y36779D01*
X56434Y37051D01*
X56919D01*
X56929Y37001D01*
X56908Y36992D01*
X56512Y36595D01*
X56474Y36504D01*
Y35772D01*
X56289D01*
X56190Y35731D01*
X56149Y35633D01*
X56190Y35534D01*
X56149Y35436D01*
X56190Y35337D01*
X56149Y35239D01*
X56159Y35214D01*
X56132Y35172D01*
X55938D01*
X55919Y35191D01*
X55796D01*
X55709Y35104D01*
Y34981D01*
X55796Y34893D01*
X55919D01*
X55938Y34912D01*
X56099D01*
X56111Y34895D01*
X56604D01*
X57070D01*
X57034Y34983D01*
X57058Y35042D01*
X57017Y35141D01*
X57058Y35239D01*
X57017Y35337D01*
X57058Y35436D01*
X57017Y35534D01*
X57058Y35633D01*
X57017Y35731D01*
X56919Y35772D01*
X56733D01*
Y36450D01*
X57054Y36770D01*
X59196D01*
X60008Y35958D01*
X60100Y35920D01*
X60362D01*
Y35852D01*
X61102D01*
Y36248D01*
X60362D01*
Y36180D01*
X60154D01*
X59342Y36992D01*
X59321Y37001D01*
X59331Y37051D01*
X60416D01*
X60602Y36864D01*
Y36748D01*
X60362D01*
Y36352D01*
X61102D01*
Y36748D01*
X60862D01*
Y36918D01*
X60824Y37010D01*
X60561Y37272D01*
X60470Y37310D01*
X56380D01*
X56289Y37272D01*
X55941Y36925D01*
X55903Y36833D01*
Y36675D01*
X55861Y36648D01*
X55836Y36658D01*
X55821Y36652D01*
X55780Y36680D01*
Y37180D01*
X55870D01*
Y37620D01*
X55430D01*
Y37180D01*
X55520D01*
Y36671D01*
X55479Y36643D01*
X55442Y36658D01*
X55344Y36617D01*
X55245Y36658D01*
X55147Y36617D01*
X55048Y36658D01*
X54950Y36617D01*
X54852Y36658D01*
X54826Y36648D01*
X54785Y36675D01*
Y37230D01*
X54870D01*
Y37670D01*
D02*
G37*
G36*
X65705Y37085D02*
X65378D01*
X65147Y36854D01*
Y36527D01*
X65171Y36503D01*
X64847Y36180D01*
X63238D01*
Y36248D01*
X62498D01*
Y35852D01*
X63238D01*
Y35920D01*
X64901D01*
X64993Y35958D01*
X65354Y36320D01*
X65378Y36296D01*
X65705D01*
X65937Y36527D01*
Y36854D01*
X65705Y37085D01*
D02*
G37*
G36*
X63238Y36748D02*
X62498D01*
Y36352D01*
X63238D01*
Y36420D01*
X63981D01*
X64051Y36349D01*
Y36338D01*
X64138Y36251D01*
X64262D01*
X64349Y36338D01*
Y36462D01*
X64262Y36549D01*
X64219D01*
X64126Y36642D01*
X64034Y36680D01*
X63238D01*
Y36748D01*
D02*
G37*
G36*
X50986Y36689D02*
X50700D01*
Y35970D01*
X50986D01*
Y36689D01*
D02*
G37*
G36*
X50600D02*
X50314D01*
Y35970D01*
X50600D01*
Y36689D01*
D02*
G37*
G36*
X66823Y36540D02*
X66496D01*
X66265Y36309D01*
Y35982D01*
X66496Y35750D01*
X66823D01*
X67055Y35982D01*
Y36309D01*
X66823Y36540D01*
D02*
G37*
G36*
X50050Y39950D02*
X49767Y39833D01*
X49650Y39550D01*
Y39450D01*
X49767Y39167D01*
X50050Y39050D01*
X50203Y39113D01*
X50520Y38796D01*
Y38519D01*
X50344D01*
Y37041D01*
X50956D01*
Y37650D01*
X52180D01*
Y37580D01*
X52620D01*
Y37670D01*
X53212D01*
X53235Y37648D01*
X53358D01*
X53363Y37653D01*
X53737Y37279D01*
Y36542D01*
X53728Y36518D01*
Y35889D01*
X53769Y35790D01*
X53867Y35749D01*
X53927Y35773D01*
X54014Y35737D01*
Y36204D01*
Y36697D01*
X53997Y36708D01*
Y37333D01*
X53959Y37425D01*
X53492Y37892D01*
X53400Y37930D01*
X53373D01*
X53358Y37945D01*
X53235D01*
X53220Y37930D01*
X52620D01*
Y38020D01*
X52180D01*
Y37910D01*
X50956D01*
Y38519D01*
X50780D01*
Y38850D01*
X50742Y38942D01*
X50387Y39297D01*
X50450Y39450D01*
Y39550D01*
X50333Y39833D01*
X50050Y39950D01*
D02*
G37*
G36*
X61102Y35748D02*
X60362D01*
Y35352D01*
X61102D01*
Y35748D01*
D02*
G37*
G36*
X65705Y35995D02*
X65378D01*
X65147Y35764D01*
Y35436D01*
X65378Y35205D01*
X65705D01*
X65937Y35436D01*
Y35764D01*
X65705Y35995D01*
D02*
G37*
G36*
X64020Y35270D02*
X63580D01*
Y35180D01*
X63238D01*
Y35248D01*
X62498D01*
Y34852D01*
X63238D01*
Y34920D01*
X63580D01*
Y34830D01*
X64020D01*
Y35270D01*
D02*
G37*
G36*
X50986Y35870D02*
X50700D01*
Y35151D01*
X50986D01*
Y35870D01*
D02*
G37*
G36*
X50600D02*
X50314D01*
Y35151D01*
X50600D01*
Y35870D01*
D02*
G37*
G36*
X60050Y35150D02*
X59850D01*
Y34950D01*
X60050D01*
Y35150D01*
D02*
G37*
G36*
X59750D02*
X59550D01*
Y34950D01*
X59750D01*
Y35150D01*
D02*
G37*
G36*
X61102Y35248D02*
X60362D01*
Y34852D01*
X61102D01*
Y35248D01*
D02*
G37*
G36*
X63238Y35748D02*
X62498D01*
Y35352D01*
X63238D01*
Y35420D01*
X64296D01*
X64370Y35346D01*
Y35270D01*
X64280D01*
Y34830D01*
X64720D01*
Y35270D01*
X64630D01*
Y35400D01*
X64592Y35492D01*
X64442Y35642D01*
X64350Y35680D01*
X63238D01*
Y35748D01*
D02*
G37*
G36*
X66823Y35450D02*
X66496D01*
X66265Y35218D01*
Y34891D01*
X66496Y34660D01*
X66823D01*
X67055Y34891D01*
Y35218D01*
X66823Y35450D01*
D02*
G37*
G36*
X60050Y34850D02*
X59850D01*
Y34650D01*
X60050D01*
Y34850D01*
D02*
G37*
G36*
X59750D02*
X59550D01*
Y34650D01*
X59750D01*
Y34850D01*
D02*
G37*
G36*
X58803Y35987D02*
X57797D01*
Y35165D01*
X57214Y34581D01*
X57075D01*
X57048Y34623D01*
X57058Y34648D01*
X57034Y34708D01*
X57070Y34795D01*
X56604D01*
X56110D01*
X56099Y34778D01*
X55932D01*
X55913Y34797D01*
X55790D01*
X55703Y34710D01*
Y34587D01*
X55790Y34500D01*
X55913D01*
X55932Y34519D01*
X56132D01*
X56159Y34477D01*
X56149Y34452D01*
X56190Y34353D01*
X56149Y34255D01*
X56190Y34156D01*
X56149Y34058D01*
X56190Y33959D01*
X56149Y33861D01*
X56190Y33763D01*
X56149Y33664D01*
X56190Y33566D01*
X56149Y33467D01*
X56190Y33369D01*
X56289Y33328D01*
X56474D01*
Y33026D01*
X56172D01*
Y33211D01*
X56131Y33310D01*
X56033Y33351D01*
X55973Y33327D01*
X55886Y33363D01*
Y32896D01*
Y32430D01*
X55973Y32466D01*
X56033Y32442D01*
X56131Y32483D01*
X56172Y32582D01*
Y32767D01*
X56470D01*
Y32020D01*
X56380D01*
Y31930D01*
X56170D01*
Y32020D01*
X55730D01*
Y31930D01*
X54004D01*
X53445Y32488D01*
Y32515D01*
X53426Y32534D01*
Y33328D01*
X53611D01*
X53710Y33369D01*
X53751Y33467D01*
X53727Y33527D01*
X53763Y33614D01*
X53296D01*
Y33714D01*
X53763D01*
X53727Y33802D01*
X53751Y33861D01*
X53710Y33959D01*
X53751Y34058D01*
X53710Y34156D01*
X53751Y34255D01*
X53710Y34353D01*
X53751Y34452D01*
X53710Y34550D01*
X53751Y34648D01*
X53710Y34747D01*
X53751Y34845D01*
X53710Y34944D01*
X53751Y35042D01*
X53710Y35141D01*
X53751Y35239D01*
X53710Y35337D01*
X53751Y35436D01*
X53710Y35534D01*
X53751Y35633D01*
X53710Y35731D01*
X53611Y35772D01*
X52982D01*
X52883Y35731D01*
X52842Y35633D01*
X52883Y35534D01*
X52842Y35436D01*
X52883Y35337D01*
X52842Y35239D01*
X52883Y35141D01*
X52842Y35042D01*
X52883Y34944D01*
X52842Y34845D01*
X52883Y34747D01*
X52842Y34648D01*
X52883Y34550D01*
X52842Y34452D01*
X52852Y34426D01*
X52825Y34385D01*
X52605D01*
X52513Y34347D01*
X52496Y34330D01*
X52370D01*
Y34420D01*
X51930D01*
Y34330D01*
X51670D01*
Y34420D01*
X51230D01*
Y34330D01*
X50801D01*
Y34550D01*
X50779Y34604D01*
X50725Y34626D01*
X50206D01*
X50192Y34620D01*
X50177D01*
X50140Y34605D01*
X50130Y34595D01*
X50116Y34589D01*
X50088Y34561D01*
X50082Y34547D01*
X50072Y34537D01*
X50057Y34501D01*
Y34485D01*
X50051Y34472D01*
Y33928D01*
X50057Y33915D01*
Y33899D01*
X50072Y33863D01*
X50082Y33853D01*
X50088Y33839D01*
X50116Y33811D01*
X50130Y33805D01*
X50140Y33795D01*
X50177Y33780D01*
X50192D01*
X50206Y33774D01*
X50725D01*
X50779Y33796D01*
X50801Y33850D01*
Y34070D01*
X51230D01*
Y33980D01*
X51670D01*
Y34070D01*
X51930D01*
Y33980D01*
X52370D01*
Y34070D01*
X52550D01*
X52642Y34108D01*
X52659Y34125D01*
X52825D01*
X52852Y34083D01*
X52842Y34058D01*
X52852Y34032D01*
X52825Y33991D01*
X52761D01*
X52669Y33953D01*
X52508Y33792D01*
X52470Y33700D01*
Y33030D01*
X52451Y33012D01*
Y32888D01*
X52538Y32801D01*
X52662D01*
X52749Y32888D01*
Y33012D01*
X52730Y33030D01*
Y33646D01*
X52763Y33679D01*
X52812Y33658D01*
X52866Y33527D01*
X52842Y33467D01*
X52883Y33369D01*
X52982Y33328D01*
X53167D01*
Y32583D01*
X51900D01*
X51580Y32904D01*
Y33430D01*
X51670D01*
Y33870D01*
X51230D01*
Y33430D01*
X51320D01*
Y32904D01*
X50558Y32142D01*
X50520Y32050D01*
Y30970D01*
X50255D01*
Y29930D01*
X51045D01*
Y30970D01*
X50780D01*
Y31996D01*
X51450Y32666D01*
X51755Y32362D01*
X51846Y32324D01*
X53216D01*
X53235Y32305D01*
X53262D01*
X53858Y31708D01*
X53950Y31670D01*
X55730D01*
Y31580D01*
X56170D01*
Y31670D01*
X56380D01*
Y31580D01*
X56820D01*
Y31670D01*
X58830D01*
Y31580D01*
X59270D01*
Y31670D01*
X60250D01*
X60342Y31708D01*
X60824Y32190D01*
X60862Y32282D01*
Y32852D01*
X61102D01*
Y33248D01*
X60362D01*
Y32852D01*
X60602D01*
Y32336D01*
X60196Y31930D01*
X59270D01*
Y32020D01*
X58830D01*
Y31930D01*
X56820D01*
Y32020D01*
X56730D01*
Y32820D01*
X56749Y32838D01*
Y32962D01*
X56733Y32977D01*
Y33328D01*
X56919D01*
X57017Y33369D01*
X57058Y33467D01*
X57017Y33566D01*
X57058Y33664D01*
X57017Y33763D01*
X57058Y33861D01*
X57017Y33959D01*
X57058Y34058D01*
X57098Y34093D01*
X57115Y34094D01*
X57685Y33525D01*
X57776Y33487D01*
X57797D01*
Y33307D01*
X58092Y33013D01*
X58508D01*
X58803Y33307D01*
Y33370D01*
X59580D01*
Y33280D01*
X60020D01*
Y33720D01*
X59580D01*
Y33630D01*
X58803D01*
Y33724D01*
X58508Y34019D01*
X58092D01*
X57825Y33752D01*
X57297Y34280D01*
X57309Y34339D01*
X57359Y34360D01*
X57981Y34981D01*
X58803D01*
Y35320D01*
X59580D01*
Y35230D01*
X60020D01*
Y35670D01*
X59580D01*
Y35580D01*
X58803D01*
Y35987D01*
D02*
G37*
G36*
X64750Y34750D02*
X64550D01*
Y34550D01*
X64750D01*
Y34750D01*
D02*
G37*
G36*
X64450D02*
X64250D01*
Y34550D01*
X64450D01*
Y34750D01*
D02*
G37*
G36*
X61102Y34748D02*
X60362D01*
Y34352D01*
X61102D01*
Y34748D01*
D02*
G37*
G36*
X63238D02*
X62498D01*
Y34352D01*
X63238D01*
Y34420D01*
X63346D01*
X63358Y34408D01*
X63450Y34370D01*
X63580D01*
Y34280D01*
X64020D01*
Y34720D01*
X63580D01*
Y34630D01*
X63504D01*
X63492Y34642D01*
X63400Y34680D01*
X63238D01*
Y34748D01*
D02*
G37*
G36*
X64750Y34450D02*
X64550D01*
Y34250D01*
X64750D01*
Y34450D01*
D02*
G37*
G36*
X64450D02*
X64250D01*
Y34250D01*
X64450D01*
Y34450D01*
D02*
G37*
G36*
X65705Y34904D02*
X65378D01*
X65147Y34673D01*
Y34346D01*
X65378Y34115D01*
X65705D01*
X65937Y34346D01*
Y34673D01*
X65705Y34904D01*
D02*
G37*
G36*
X60050Y34300D02*
X59850D01*
Y34100D01*
X60050D01*
Y34300D01*
D02*
G37*
G36*
X59750D02*
X59550D01*
Y34100D01*
X59750D01*
Y34300D01*
D02*
G37*
G36*
X59800Y34050D02*
D01*
D01*
D01*
D02*
G37*
G36*
X61102Y34248D02*
X60362D01*
Y33852D01*
X61102D01*
Y34248D01*
D02*
G37*
G36*
X60050Y34000D02*
X59850D01*
Y33800D01*
X60050D01*
Y34000D01*
D02*
G37*
G36*
X59750D02*
X59550D01*
Y33800D01*
X59750D01*
Y34000D01*
D02*
G37*
G36*
X64720Y34120D02*
X64280D01*
Y33680D01*
X64720D01*
Y33769D01*
X64770Y33770D01*
X64788Y33751D01*
X64912D01*
X64999Y33838D01*
Y33962D01*
X64912Y34049D01*
X64788D01*
X64770Y34030D01*
X64720Y34031D01*
Y34120D01*
D02*
G37*
G36*
X52400Y33900D02*
X52200D01*
Y33700D01*
X52400D01*
Y33900D01*
D02*
G37*
G36*
X52100D02*
X51900D01*
Y33700D01*
X52100D01*
Y33900D01*
D02*
G37*
G36*
X63238Y34248D02*
X62498D01*
Y33852D01*
X63238D01*
Y33920D01*
X63296D01*
X63408Y33808D01*
X63500Y33770D01*
X63580D01*
Y33680D01*
X64020D01*
Y34120D01*
X63580D01*
Y34074D01*
X63530Y34054D01*
X63442Y34142D01*
X63350Y34180D01*
X63238D01*
Y34248D01*
D02*
G37*
G36*
X66823Y34359D02*
X66496D01*
X66265Y34128D01*
Y33801D01*
X66496Y33569D01*
X66823D01*
X67055Y33801D01*
Y34128D01*
X66823Y34359D01*
D02*
G37*
G36*
X50579Y33569D02*
X50476D01*
Y33550D01*
X50598D01*
X50579Y33569D01*
D02*
G37*
G36*
X50376D02*
X50273D01*
X50254Y33550D01*
X50376D01*
Y33569D01*
D02*
G37*
G36*
X65718Y33844D02*
X65592D01*
Y33469D01*
X65967D01*
Y33595D01*
X65718Y33844D01*
D02*
G37*
G36*
X65492D02*
X65366D01*
X65117Y33595D01*
Y33469D01*
X65492D01*
Y33844D01*
D02*
G37*
G36*
X64750Y33600D02*
X64550D01*
Y33400D01*
X64750D01*
Y33600D01*
D02*
G37*
G36*
X52400D02*
X52200D01*
Y33400D01*
X52400D01*
Y33600D01*
D02*
G37*
G36*
X52100D02*
X51900D01*
Y33400D01*
X52100D01*
Y33600D01*
D02*
G37*
G36*
X64450D02*
X64250D01*
Y33400D01*
X64450D01*
Y33600D01*
D02*
G37*
G36*
X61102Y33748D02*
X60362D01*
Y33352D01*
X61102D01*
Y33748D01*
D02*
G37*
G36*
X55786Y33363D02*
X55698Y33327D01*
X55639Y33351D01*
X55541Y33310D01*
X55442Y33351D01*
X55344Y33310D01*
X55245Y33351D01*
X55147Y33310D01*
X55048Y33351D01*
X54950Y33310D01*
X54852Y33351D01*
X54753Y33310D01*
X54655Y33351D01*
X54556Y33310D01*
X54458Y33351D01*
X54359Y33310D01*
X54261Y33351D01*
X54163Y33310D01*
X54064Y33351D01*
X53966Y33310D01*
X53867Y33351D01*
X53769Y33310D01*
X53728Y33211D01*
Y33055D01*
X53712Y33049D01*
X53588D01*
X53501Y32962D01*
Y32838D01*
X53588Y32751D01*
X53712D01*
X53728Y32745D01*
Y32582D01*
X53769Y32483D01*
X53867Y32442D01*
X53966Y32483D01*
X54064Y32442D01*
X54163Y32483D01*
X54261Y32442D01*
X54359Y32483D01*
X54458Y32442D01*
X54556Y32483D01*
X54655Y32442D01*
X54753Y32483D01*
X54852Y32442D01*
X54950Y32483D01*
X55048Y32442D01*
X55074Y32452D01*
X55115Y32425D01*
Y32235D01*
X55097Y32216D01*
Y32093D01*
X55184Y32006D01*
X55307D01*
X55394Y32093D01*
Y32216D01*
X55375Y32235D01*
Y32425D01*
X55417Y32452D01*
X55442Y32442D01*
X55541Y32483D01*
X55639Y32442D01*
X55698Y32466D01*
X55786Y32430D01*
Y32896D01*
Y33363D01*
D02*
G37*
G36*
X50725Y33423D02*
Y33250D01*
X50795D01*
Y33353D01*
X50725Y33423D01*
D02*
G37*
G36*
X50127Y33423D02*
X50057Y33353D01*
Y33250D01*
X50127D01*
Y33423D01*
D02*
G37*
G36*
X63238Y33748D02*
X62498D01*
Y33352D01*
X63238D01*
Y33420D01*
X63320D01*
X63338Y33401D01*
X63462D01*
X63530Y33470D01*
X63580Y33449D01*
Y33180D01*
X63238D01*
Y33248D01*
X62498D01*
Y32852D01*
X63238D01*
Y32920D01*
X63741D01*
X63833Y32958D01*
X63892Y33017D01*
X63930Y33109D01*
Y33130D01*
X64020D01*
Y33570D01*
X63599D01*
X63580Y33570D01*
X63549Y33607D01*
Y33612D01*
X63462Y33699D01*
X63338D01*
X63320Y33680D01*
X63238D01*
Y33748D01*
D02*
G37*
G36*
X64750Y33300D02*
X64550D01*
Y33100D01*
X64750D01*
Y33300D01*
D02*
G37*
G36*
X64450D02*
X64250D01*
Y33100D01*
X64450D01*
Y33300D01*
D02*
G37*
G36*
X65967Y33369D02*
X65592D01*
Y32994D01*
X65718D01*
X65967Y33243D01*
Y33369D01*
D02*
G37*
G36*
X65492D02*
X65117D01*
Y33243D01*
X65366Y32994D01*
X65492D01*
Y33369D01*
D02*
G37*
G36*
X50795Y33150D02*
X50725D01*
Y32977D01*
X50795Y33047D01*
Y33150D01*
D02*
G37*
G36*
X50127D02*
X50057D01*
Y33047D01*
X50127Y32977D01*
Y33150D01*
D02*
G37*
G36*
X50598Y32850D02*
X50476D01*
Y32831D01*
X50579D01*
X50598Y32850D01*
D02*
G37*
G36*
X50376D02*
X50254D01*
X50273Y32831D01*
X50376D01*
Y32850D01*
D02*
G37*
G36*
X56850Y31500D02*
X56650D01*
Y31300D01*
X56850D01*
Y31500D01*
D02*
G37*
G36*
X59300D02*
X59100D01*
Y31300D01*
X59300D01*
Y31500D01*
D02*
G37*
G36*
X59000D02*
X58800D01*
Y31300D01*
X59000D01*
Y31500D01*
D02*
G37*
G36*
X56550D02*
X56350D01*
Y31300D01*
X56550D01*
Y31500D01*
D02*
G37*
G36*
X55470Y31520D02*
X55030D01*
Y31456D01*
X55012Y31449D01*
X54888D01*
X54801Y31362D01*
Y31238D01*
X54888Y31151D01*
X55012D01*
X55030Y31144D01*
Y31080D01*
X55470D01*
Y31520D01*
D02*
G37*
G36*
X59300Y31200D02*
X59100D01*
Y31000D01*
X59300D01*
Y31200D01*
D02*
G37*
G36*
X59000D02*
X58800D01*
Y31000D01*
X59000D01*
Y31200D01*
D02*
G37*
G36*
X56850D02*
X56650D01*
Y31000D01*
X56850D01*
Y31200D01*
D02*
G37*
G36*
X56550D02*
X56350D01*
Y31000D01*
X56550D01*
Y31200D01*
D02*
G37*
G36*
X55500Y31000D02*
X55300D01*
Y30800D01*
X55500D01*
Y31000D01*
D02*
G37*
G36*
X55200D02*
X55000D01*
Y30800D01*
X55200D01*
Y31000D01*
D02*
G37*
G36*
X56170Y31470D02*
X55730D01*
Y31030D01*
X55820D01*
Y30919D01*
X55801Y30900D01*
X55790D01*
X55703Y30813D01*
Y30690D01*
X55790Y30603D01*
X55913D01*
X56000Y30690D01*
Y30732D01*
X56042Y30774D01*
X56080Y30866D01*
Y31030D01*
X56170D01*
Y31470D01*
D02*
G37*
G36*
X55500Y30700D02*
X55300D01*
Y30500D01*
X55500D01*
Y30700D01*
D02*
G37*
G36*
X55200D02*
X55000D01*
Y30500D01*
X55200D01*
Y30700D01*
D02*
G37*
G36*
X51700Y31014D02*
Y30500D01*
X52110D01*
Y30575D01*
X51975Y30900D01*
X51700Y31014D01*
D02*
G37*
G36*
X51600D02*
X51325Y30900D01*
X51190Y30575D01*
Y30500D01*
X51600D01*
Y31014D01*
D02*
G37*
G36*
X53650Y31003D02*
X53348Y30877D01*
X53222Y30575D01*
Y30325D01*
X53348Y30023D01*
X53650Y29897D01*
X53952Y30023D01*
X54078Y30325D01*
Y30575D01*
X53952Y30877D01*
X53650Y31003D01*
D02*
G37*
G36*
X52650D02*
X52348Y30877D01*
X52222Y30575D01*
Y30325D01*
X52348Y30023D01*
X52650Y29897D01*
X52952Y30023D01*
X53078Y30325D01*
Y30575D01*
X52952Y30877D01*
X52650Y31003D01*
D02*
G37*
G36*
X52110Y30400D02*
X51700D01*
Y29886D01*
X51975Y30000D01*
X52110Y30325D01*
Y30400D01*
D02*
G37*
G36*
X51600D02*
X51190D01*
Y30325D01*
X51325Y30000D01*
X51600Y29886D01*
Y30400D01*
D02*
G37*
G36*
X66521Y31694D02*
X65680D01*
X65086Y31099D01*
Y30258D01*
X65680Y29664D01*
X66521D01*
X67116Y30258D01*
Y31099D01*
X66521Y31694D01*
D02*
G37*
%LPD*%
G36*
X55958Y40558D02*
X55985Y40531D01*
X56000Y40494D01*
Y40475D01*
Y39975D01*
X55300D01*
Y40475D01*
Y40494D01*
X55315Y40531D01*
X55342Y40558D01*
X55378Y40573D01*
X55922D01*
X55958Y40558D01*
D02*
G37*
G36*
X50725Y33850D02*
X50206D01*
X50169Y33865D01*
X50142Y33892D01*
X50127Y33928D01*
Y33948D01*
Y34452D01*
Y34472D01*
X50142Y34508D01*
X50169Y34535D01*
X50206Y34550D01*
X50725D01*
Y33850D01*
D02*
G37*
D12*
X55639Y36523D02*
X55650Y36534D01*
X55639Y36204D02*
Y36523D01*
X55650Y36534D02*
Y37400D01*
X52150Y34200D02*
X52550D01*
X52605Y34255D01*
X53296D01*
X62370Y46550D02*
X62484Y46436D01*
X58597Y44026D02*
X58598Y44025D01*
X55350Y48580D02*
X55380Y48550D01*
X43333Y36667D02*
Y37100D01*
X45449Y33100D02*
X45450Y33099D01*
Y34201D02*
X45451Y34200D01*
X44080Y44630D02*
X44100Y44650D01*
X64500Y33900D02*
X64850D01*
X62868Y33550D02*
X63400D01*
Y34550D02*
X63450Y34500D01*
X63800D01*
X62868Y34550D02*
X63400D01*
X64500Y35050D02*
Y35400D01*
X64350Y35550D02*
X64500Y35400D01*
X62868Y35550D02*
X64350D01*
X54950Y31300D02*
X55250D01*
X55245Y32155D02*
Y32896D01*
X55852Y30752D02*
Y30767D01*
X55950Y30866D02*
Y31250D01*
X55852Y30767D02*
X55950Y30866D01*
X55852Y34648D02*
X56604D01*
X55858Y35042D02*
X56604D01*
X64901Y36050D02*
X65542Y36691D01*
X62868Y36050D02*
X64901D01*
X58316Y33500D02*
X59800D01*
X58199Y33617D02*
X58316Y33500D01*
X58334Y35450D02*
X59800D01*
X58300Y35484D02*
X58334Y35450D01*
X57139Y34255D02*
X57776Y33617D01*
X58199D01*
X56604Y34255D02*
X57139D01*
X56604Y34452D02*
X57267D01*
X58300Y35484D01*
X56604Y35633D02*
Y36504D01*
X57000Y36900D01*
X59250D01*
X60100Y36050D02*
X60732D01*
X59250Y36900D02*
X60100Y36050D01*
X56380Y37180D02*
X60470D01*
X60732Y36550D02*
Y36918D01*
X60470Y37180D02*
X60732Y36918D01*
X62868Y34050D02*
X63350D01*
X63500Y33900D02*
X63800D01*
X63350Y34050D02*
X63500Y33900D01*
X62868Y33050D02*
X63741D01*
X63800Y33109D01*
Y33350D01*
X62868Y35050D02*
X63800D01*
X64034Y36550D02*
X64184Y36400D01*
X64200D01*
X62868Y36550D02*
X64034D01*
X53296Y32454D02*
X53950Y31800D01*
X56600D01*
Y32896D01*
X59050Y31800D02*
X60250D01*
X60732Y32282D01*
Y33050D01*
X56033Y36833D02*
X56380Y37180D01*
X56033Y36204D02*
Y36833D01*
X50650Y30450D02*
Y32050D01*
X51450Y32850D01*
X52600Y32950D02*
Y33700D01*
X52761Y33861D01*
X53296D01*
X53650Y32900D02*
X53864D01*
X53867Y32896D01*
X55650Y37950D02*
Y40274D01*
X51846Y32454D02*
X53296D01*
X51450Y32850D02*
X51846Y32454D01*
X51450Y32850D02*
Y33650D01*
Y34200D02*
X52150D01*
X50426D02*
X51450D01*
X54650Y37450D02*
X54655Y37445D01*
Y36204D02*
Y37445D01*
X53296Y32454D02*
Y33467D01*
X56600Y31800D02*
X59050D01*
X50050Y39450D02*
Y39500D01*
Y39450D02*
X50650Y38850D01*
Y37780D02*
Y38850D01*
X53400Y37800D02*
X53867Y37333D01*
Y36204D02*
Y37333D01*
X52400Y37800D02*
X53400D01*
X52380Y37780D02*
X52400Y37800D01*
X50650Y37780D02*
X52380D01*
X56033Y32896D02*
X56600D01*
X56604Y32900D02*
Y33467D01*
X56600Y32896D02*
X56604Y32900D01*
D19*
X55650Y40274D02*
D03*
X56650D02*
D03*
Y44026D02*
D03*
X55650D02*
D03*
X46674Y34200D02*
D03*
Y33200D02*
D03*
X50426D02*
D03*
Y34200D02*
D03*
D20*
X60402Y44025D02*
D03*
X58598D02*
D03*
D21*
X59500Y46550D02*
D03*
D22*
X42150Y48530D02*
D03*
Y46670D02*
D03*
Y44630D02*
D03*
Y42770D02*
D03*
X55350Y46720D02*
D03*
Y48580D02*
D03*
X50650Y35920D02*
D03*
Y37780D02*
D03*
D23*
X45450Y31050D02*
D03*
Y31600D02*
D03*
X44200Y48000D02*
D03*
Y48550D02*
D03*
X55950Y31800D02*
D03*
Y31250D02*
D03*
X55250Y31300D02*
D03*
Y30750D02*
D03*
X64500Y33350D02*
D03*
Y33900D02*
D03*
Y34500D02*
D03*
Y35050D02*
D03*
X51450Y33650D02*
D03*
Y34200D02*
D03*
X52150D02*
D03*
Y33650D02*
D03*
X54650Y37450D02*
D03*
Y38000D02*
D03*
X59050Y31250D02*
D03*
Y31800D02*
D03*
X63800Y33900D02*
D03*
Y33350D02*
D03*
Y35050D02*
D03*
Y34500D02*
D03*
X59800Y33500D02*
D03*
Y34050D02*
D03*
Y35450D02*
D03*
Y34900D02*
D03*
X56600Y31800D02*
D03*
Y31250D02*
D03*
X57300Y48550D02*
D03*
Y48000D02*
D03*
X52400Y37800D02*
D03*
Y37250D02*
D03*
X44100Y44650D02*
D03*
Y44100D02*
D03*
X55650Y37400D02*
D03*
Y37950D02*
D03*
X57300Y45700D02*
D03*
Y46250D02*
D03*
D24*
X45450Y34201D02*
D03*
Y33099D02*
D03*
D25*
X39430Y42990D02*
D03*
X39420Y44620D02*
D03*
X62180Y46740D02*
D03*
X62170Y48370D02*
D03*
D26*
X56604Y33467D02*
D03*
Y33664D02*
D03*
Y33861D02*
D03*
Y34058D02*
D03*
Y34255D02*
D03*
Y34452D02*
D03*
Y34648D02*
D03*
Y34845D02*
D03*
Y35042D02*
D03*
Y35239D02*
D03*
Y35436D02*
D03*
Y35633D02*
D03*
X53296D02*
D03*
Y35436D02*
D03*
Y35239D02*
D03*
Y35042D02*
D03*
Y34845D02*
D03*
Y34648D02*
D03*
Y34452D02*
D03*
Y34255D02*
D03*
Y34058D02*
D03*
Y33861D02*
D03*
Y33664D02*
D03*
Y33467D02*
D03*
D27*
X56033Y36204D02*
D03*
X55836D02*
D03*
X55639D02*
D03*
X55442D02*
D03*
X55245D02*
D03*
X55048D02*
D03*
X54852D02*
D03*
X54655D02*
D03*
X54458D02*
D03*
X54261D02*
D03*
X54064D02*
D03*
X53867D02*
D03*
Y32896D02*
D03*
X54064D02*
D03*
X54261D02*
D03*
X54458D02*
D03*
X54655D02*
D03*
X54852D02*
D03*
X55048D02*
D03*
X55245D02*
D03*
X55442D02*
D03*
X55639D02*
D03*
X55836D02*
D03*
X56033D02*
D03*
D28*
X60732Y33050D02*
D03*
Y33550D02*
D03*
Y34050D02*
D03*
Y34550D02*
D03*
Y35050D02*
D03*
Y35550D02*
D03*
Y36050D02*
D03*
Y36550D02*
D03*
X62868D02*
D03*
Y36050D02*
D03*
Y35550D02*
D03*
Y35050D02*
D03*
Y34550D02*
D03*
Y34050D02*
D03*
Y33550D02*
D03*
Y33050D02*
D03*
D45*
X52550Y47100D02*
D03*
X51550D02*
D03*
X50550D02*
D03*
X49550D02*
D03*
X47550D02*
D03*
X46550D02*
D03*
D46*
X45550D02*
D03*
D53*
X39430Y41270D02*
X40550Y40150D01*
X44038Y40190D02*
X44361D01*
X40550Y40150D02*
X43998D01*
X44361Y40190D02*
X44476Y40306D01*
X43998Y40150D02*
X44038Y40190D01*
X42170Y48550D02*
X45700D01*
X59500Y46550D02*
X62484D01*
X62180Y46740D02*
X62370Y46550D01*
X62484D01*
X65500D01*
X57300Y48550D02*
X61990D01*
X62170Y48370D01*
X62260Y48460D02*
X62350Y48550D01*
X62170Y48370D02*
X62260Y48460D01*
X62350Y48550D02*
X65500D01*
X56300D02*
X57300D01*
X55380D02*
X56300D01*
X51230Y48580D02*
X55350D01*
X50550Y47900D02*
X51230Y48580D01*
X50550Y47100D02*
Y47900D01*
X44100Y35900D02*
X45550D01*
X43333Y36667D02*
X44100Y35900D01*
X39430Y41270D02*
Y42990D01*
X44476Y40306D02*
X45550Y39233D01*
Y37900D02*
Y39233D01*
X39420Y44620D02*
Y47220D01*
X40730Y48530D02*
X42150D01*
X39420Y47220D02*
X40730Y48530D01*
X45700Y48550D02*
X46550Y47700D01*
Y47100D02*
Y47700D01*
D54*
X47973Y39577D02*
X48050Y39500D01*
X47973Y39577D02*
Y39875D01*
X47950Y39899D02*
X47973Y39875D01*
X46400Y44650D02*
X47950Y43100D01*
Y39899D02*
Y43100D01*
X39420Y44620D02*
X42150D01*
X45450Y31600D02*
X46000D01*
X45450D02*
Y33099D01*
X42400Y33100D02*
X45449D01*
X45451Y34200D02*
X46674D01*
X44100Y44650D02*
X46400D01*
X42150Y44630D02*
X44080D01*
D55*
X56300Y45850D02*
Y48550D01*
X55650Y45200D02*
X56300Y45850D01*
X55650Y44026D02*
Y45200D01*
X56650Y44026D02*
Y45400D01*
X56950Y45700D01*
X57300D01*
X56650Y44026D02*
X58597D01*
D56*
X66101Y40521D02*
D03*
Y30679D02*
D03*
D57*
X66660Y33964D02*
D03*
Y35055D02*
D03*
Y36145D02*
D03*
Y37236D02*
D03*
X65542Y36691D02*
D03*
Y33419D02*
D03*
Y34509D02*
D03*
Y35600D02*
D03*
D58*
Y37781D02*
D03*
D59*
X53650Y30450D02*
D03*
X52650D02*
D03*
X51650D02*
D03*
D60*
X50650D02*
D03*
D61*
X65500Y48550D02*
D03*
X42400Y31100D02*
D03*
D62*
X65500Y46550D02*
D03*
X42400Y33100D02*
D03*
D63*
X43333Y37100D02*
D03*
X41050D02*
D03*
D64*
X42152Y35210D02*
D03*
D65*
X44476Y40306D02*
D03*
X41524Y41094D02*
D03*
D66*
X45550Y37900D02*
D03*
Y35900D02*
D03*
X58300Y33516D02*
D03*
D67*
Y35484D02*
D03*
D68*
X47050Y39500D02*
D03*
D69*
X48050D02*
D03*
X49050D02*
D03*
X50050D02*
D03*
D70*
X44200Y46650D02*
D03*
X44100Y42750D02*
D03*
X57850Y39400D02*
D03*
X59800Y34500D02*
D03*
X64150Y34200D02*
D03*
X52400Y35950D02*
D03*
X47300Y35200D02*
D03*
X38550Y35150D02*
D03*
X47550Y29850D02*
D03*
X38550Y29800D02*
D03*
Y49500D02*
D03*
X47550Y49550D02*
D03*
X54900Y29900D02*
D03*
X68750Y29950D02*
D03*
X63050Y30000D02*
D03*
X68650Y39250D02*
D03*
X62950Y39300D02*
D03*
X68650Y41300D02*
D03*
X62950Y41350D02*
D03*
X54800D02*
D03*
X49800D02*
D03*
X62950Y49600D02*
D03*
X54800D02*
D03*
X49800D02*
D03*
Y43400D02*
D03*
X54800D02*
D03*
X62950D02*
D03*
X68650Y43350D02*
D03*
X46000Y31600D02*
D03*
X56600Y32900D02*
D03*
X54950Y31300D02*
D03*
X55245Y32155D02*
D03*
X55852Y30752D02*
D03*
X55858Y35042D02*
D03*
X55852Y34648D02*
D03*
X64850Y33900D02*
D03*
X63400Y33550D02*
D03*
X64200Y36400D02*
D03*
X52600Y32950D02*
D03*
X53650Y32900D02*
D03*
X53296Y37796D02*
D03*
Y32454D02*
D03*
M02*
