G04*
G04 #@! TF.GenerationSoftware,Altium Limited,Altium Designer,24.1.2 (44)*
G04*
G04 Layer_Color=255*
%FSLAX24Y24*%
%MOIN*%
G70*
G04*
G04 #@! TF.SameCoordinates,E58B8CFC-B59F-40A7-A0C9-9F9E0F661D6A*
G04*
G04*
G04 #@! TF.FilePolarity,Positive*
G04*
G01*
G75*
%ADD19C,0.0539*%
%ADD20R,0.0370X0.0980*%
%ADD21R,0.2670X0.2730*%
%ADD22R,0.0472X0.1339*%
%ADD23R,0.0300X0.0300*%
%ADD24R,0.0787X0.0709*%
%ADD25R,0.0945X0.0709*%
%ADD26O,0.0748X0.0118*%
%ADD27O,0.0118X0.0748*%
%ADD28R,0.0600X0.0256*%
%ADD45C,0.0500*%
%ADD46R,0.0500X0.0500*%
%ADD56C,0.1890*%
%ADD57C,0.0650*%
G04:AMPARAMS|DCode=58|XSize=65mil|YSize=65mil|CornerRadius=16.2mil|HoleSize=0mil|Usage=FLASHONLY|Rotation=90.000|XOffset=0mil|YOffset=0mil|HoleType=Round|Shape=RoundedRectangle|*
%AMROUNDEDRECTD58*
21,1,0.0650,0.0325,0,0,90.0*
21,1,0.0325,0.0650,0,0,90.0*
1,1,0.0325,0.0162,0.0162*
1,1,0.0325,0.0162,-0.0162*
1,1,0.0325,-0.0162,-0.0162*
1,1,0.0325,-0.0162,0.0162*
%
%ADD58ROUNDEDRECTD58*%
%ADD59O,0.0650X0.0900*%
%ADD60R,0.0650X0.0900*%
%ADD61C,0.1024*%
%ADD62R,0.1024X0.1024*%
G04:AMPARAMS|DCode=63|XSize=157.5mil|YSize=70.9mil|CornerRadius=17.7mil|HoleSize=0mil|Usage=FLASHONLY|Rotation=90.000|XOffset=0mil|YOffset=0mil|HoleType=Round|Shape=RoundedRectangle|*
%AMROUNDEDRECTD63*
21,1,0.1575,0.0354,0,0,90.0*
21,1,0.1220,0.0709,0,0,90.0*
1,1,0.0354,0.0177,0.0610*
1,1,0.0354,0.0177,-0.0610*
1,1,0.0354,-0.0177,-0.0610*
1,1,0.0354,-0.0177,0.0610*
%
%ADD63ROUNDEDRECTD63*%
G04:AMPARAMS|DCode=64|XSize=157.5mil|YSize=70.9mil|CornerRadius=17.7mil|HoleSize=0mil|Usage=FLASHONLY|Rotation=180.000|XOffset=0mil|YOffset=0mil|HoleType=Round|Shape=RoundedRectangle|*
%AMROUNDEDRECTD64*
21,1,0.1575,0.0354,0,0,180.0*
21,1,0.1220,0.0709,0,0,180.0*
1,1,0.0354,-0.0610,0.0177*
1,1,0.0354,0.0610,0.0177*
1,1,0.0354,0.0610,-0.0177*
1,1,0.0354,-0.0610,-0.0177*
%
%ADD64ROUNDEDRECTD64*%
%ADD65C,0.0906*%
%ADD66C,0.0866*%
%ADD67R,0.0866X0.0866*%
%ADD68R,0.0600X0.0700*%
%ADD69O,0.0600X0.0700*%
D19*
X55650Y40274D02*
D03*
X56650D02*
D03*
Y44026D02*
D03*
X55650D02*
D03*
X46674Y34200D02*
D03*
Y33200D02*
D03*
X50426D02*
D03*
Y34200D02*
D03*
D20*
X60402Y44025D02*
D03*
X58598D02*
D03*
D21*
X59500Y46550D02*
D03*
D22*
X42150Y48530D02*
D03*
Y46670D02*
D03*
Y44630D02*
D03*
Y42770D02*
D03*
X55350Y46720D02*
D03*
Y48580D02*
D03*
X50650Y35920D02*
D03*
Y37780D02*
D03*
D23*
X45450Y31050D02*
D03*
Y31600D02*
D03*
X44200Y48000D02*
D03*
Y48550D02*
D03*
X55950Y31800D02*
D03*
Y31250D02*
D03*
X55250Y31300D02*
D03*
Y30750D02*
D03*
X64500Y33350D02*
D03*
Y33900D02*
D03*
Y34500D02*
D03*
Y35050D02*
D03*
X51450Y33650D02*
D03*
Y34200D02*
D03*
X52150D02*
D03*
Y33650D02*
D03*
X54650Y37450D02*
D03*
Y38000D02*
D03*
X59050Y31250D02*
D03*
Y31800D02*
D03*
X63800Y33900D02*
D03*
Y33350D02*
D03*
Y35050D02*
D03*
Y34500D02*
D03*
X59800Y33500D02*
D03*
Y34050D02*
D03*
Y35450D02*
D03*
Y34900D02*
D03*
X56600Y31800D02*
D03*
Y31250D02*
D03*
X57300Y48550D02*
D03*
Y48000D02*
D03*
X52400Y37800D02*
D03*
Y37250D02*
D03*
X44100Y44650D02*
D03*
Y44100D02*
D03*
X55650Y37400D02*
D03*
Y37950D02*
D03*
X57300Y45700D02*
D03*
Y46250D02*
D03*
D24*
X45450Y34201D02*
D03*
Y33099D02*
D03*
D25*
X39430Y42990D02*
D03*
X39420Y44620D02*
D03*
X62180Y46740D02*
D03*
X62170Y48370D02*
D03*
D26*
X56604Y33467D02*
D03*
Y33664D02*
D03*
Y33861D02*
D03*
Y34058D02*
D03*
Y34255D02*
D03*
Y34452D02*
D03*
Y34648D02*
D03*
Y34845D02*
D03*
Y35042D02*
D03*
Y35239D02*
D03*
Y35436D02*
D03*
Y35633D02*
D03*
X53296D02*
D03*
Y35436D02*
D03*
Y35239D02*
D03*
Y35042D02*
D03*
Y34845D02*
D03*
Y34648D02*
D03*
Y34452D02*
D03*
Y34255D02*
D03*
Y34058D02*
D03*
Y33861D02*
D03*
Y33664D02*
D03*
Y33467D02*
D03*
D27*
X56033Y36204D02*
D03*
X55836D02*
D03*
X55639D02*
D03*
X55442D02*
D03*
X55245D02*
D03*
X55048D02*
D03*
X54852D02*
D03*
X54655D02*
D03*
X54458D02*
D03*
X54261D02*
D03*
X54064D02*
D03*
X53867D02*
D03*
Y32896D02*
D03*
X54064D02*
D03*
X54261D02*
D03*
X54458D02*
D03*
X54655D02*
D03*
X54852D02*
D03*
X55048D02*
D03*
X55245D02*
D03*
X55442D02*
D03*
X55639D02*
D03*
X55836D02*
D03*
X56033D02*
D03*
D28*
X60732Y33050D02*
D03*
Y33550D02*
D03*
Y34050D02*
D03*
Y34550D02*
D03*
Y35050D02*
D03*
Y35550D02*
D03*
Y36050D02*
D03*
Y36550D02*
D03*
X62868D02*
D03*
Y36050D02*
D03*
Y35550D02*
D03*
Y35050D02*
D03*
Y34550D02*
D03*
Y34050D02*
D03*
Y33550D02*
D03*
Y33050D02*
D03*
D45*
X52550Y47100D02*
D03*
X51550D02*
D03*
X50550D02*
D03*
X49550D02*
D03*
X47550D02*
D03*
X46550D02*
D03*
D46*
X45550D02*
D03*
D56*
X66101Y40521D02*
D03*
Y30679D02*
D03*
D57*
X66660Y33964D02*
D03*
Y35055D02*
D03*
Y36145D02*
D03*
Y37236D02*
D03*
X65542Y36691D02*
D03*
Y33419D02*
D03*
Y34509D02*
D03*
Y35600D02*
D03*
D58*
Y37781D02*
D03*
D59*
X53650Y30450D02*
D03*
X52650D02*
D03*
X51650D02*
D03*
D60*
X50650D02*
D03*
D61*
X65500Y48550D02*
D03*
X42400Y31100D02*
D03*
D62*
X65500Y46550D02*
D03*
X42400Y33100D02*
D03*
D63*
X43333Y37100D02*
D03*
X41050D02*
D03*
D64*
X42152Y35210D02*
D03*
D65*
X44476Y40306D02*
D03*
X41524Y41094D02*
D03*
D66*
X45550Y37900D02*
D03*
Y35900D02*
D03*
X58300Y33516D02*
D03*
D67*
Y35484D02*
D03*
D68*
X47050Y39500D02*
D03*
D69*
X48050D02*
D03*
X49050D02*
D03*
X50050D02*
D03*
M02*
