G04*
G04 #@! TF.GenerationSoftware,Altium Limited,Altium Designer,24.1.2 (44)*
G04*
G04 Layer_Physical_Order=2*
G04 Layer_Color=16711680*
%FSLAX24Y24*%
%MOIN*%
G70*
G04*
G04 #@! TF.SameCoordinates,E58B8CFC-B59F-40A7-A0C9-9F9E0F661D6A*
G04*
G04*
G04 #@! TF.FilePolarity,Positive*
G04*
G01*
G75*
%ADD12C,0.0100*%
%ADD45C,0.0500*%
%ADD46R,0.0500X0.0500*%
%ADD54C,0.0200*%
%ADD56C,0.1890*%
%ADD57C,0.0650*%
G04:AMPARAMS|DCode=58|XSize=65mil|YSize=65mil|CornerRadius=16.2mil|HoleSize=0mil|Usage=FLASHONLY|Rotation=90.000|XOffset=0mil|YOffset=0mil|HoleType=Round|Shape=RoundedRectangle|*
%AMROUNDEDRECTD58*
21,1,0.0650,0.0325,0,0,90.0*
21,1,0.0325,0.0650,0,0,90.0*
1,1,0.0325,0.0162,0.0162*
1,1,0.0325,0.0162,-0.0162*
1,1,0.0325,-0.0162,-0.0162*
1,1,0.0325,-0.0162,0.0162*
%
%ADD58ROUNDEDRECTD58*%
%ADD59O,0.0650X0.0900*%
%ADD60R,0.0650X0.0900*%
%ADD61C,0.1024*%
%ADD62R,0.1024X0.1024*%
G04:AMPARAMS|DCode=63|XSize=157.5mil|YSize=70.9mil|CornerRadius=17.7mil|HoleSize=0mil|Usage=FLASHONLY|Rotation=90.000|XOffset=0mil|YOffset=0mil|HoleType=Round|Shape=RoundedRectangle|*
%AMROUNDEDRECTD63*
21,1,0.1575,0.0354,0,0,90.0*
21,1,0.1220,0.0709,0,0,90.0*
1,1,0.0354,0.0177,0.0610*
1,1,0.0354,0.0177,-0.0610*
1,1,0.0354,-0.0177,-0.0610*
1,1,0.0354,-0.0177,0.0610*
%
%ADD63ROUNDEDRECTD63*%
G04:AMPARAMS|DCode=64|XSize=157.5mil|YSize=70.9mil|CornerRadius=17.7mil|HoleSize=0mil|Usage=FLASHONLY|Rotation=180.000|XOffset=0mil|YOffset=0mil|HoleType=Round|Shape=RoundedRectangle|*
%AMROUNDEDRECTD64*
21,1,0.1575,0.0354,0,0,180.0*
21,1,0.1220,0.0709,0,0,180.0*
1,1,0.0354,-0.0610,0.0177*
1,1,0.0354,0.0610,0.0177*
1,1,0.0354,0.0610,-0.0177*
1,1,0.0354,-0.0610,-0.0177*
%
%ADD64ROUNDEDRECTD64*%
%ADD65C,0.0906*%
%ADD66C,0.0866*%
%ADD67R,0.0866X0.0866*%
%ADD68R,0.0600X0.0700*%
%ADD69O,0.0600X0.0700*%
%ADD70C,0.0157*%
G36*
X48050Y39950D02*
X47767Y39833D01*
X47650Y39550D01*
Y39450D01*
X47767Y39167D01*
X47778Y39162D01*
X47766Y39133D01*
X47766Y39133D01*
Y33026D01*
X46524Y31784D01*
X46000D01*
X45870Y31730D01*
X45816Y31600D01*
X45870Y31470D01*
X46000Y31416D01*
X46600D01*
X46600Y31416D01*
X46730Y31470D01*
X48004Y32744D01*
X48050Y32724D01*
Y29530D01*
X38130D01*
X38130Y49870D01*
X48050D01*
Y39950D01*
D02*
G37*
G36*
X69820Y42800D02*
X49050D01*
Y49870D01*
X69820D01*
Y42800D01*
D02*
G37*
G36*
X69858Y41758D02*
X69950Y41720D01*
Y29400D01*
X49050D01*
Y39017D01*
X49356Y39144D01*
X49483Y39450D01*
D01*
X49050D01*
Y39550D01*
X49483D01*
X49356Y39856D01*
X49050Y39983D01*
Y41850D01*
X69820D01*
X69858Y41758D01*
D02*
G37*
%LPC*%
G36*
X47695Y47450D02*
X47600D01*
Y47150D01*
X47900D01*
Y47245D01*
X47695Y47450D01*
D02*
G37*
G36*
X47500D02*
X47405D01*
X47200Y47245D01*
Y47150D01*
X47500D01*
Y47450D01*
D02*
G37*
G36*
X45900D02*
X45600D01*
Y47150D01*
X45900D01*
Y47450D01*
D02*
G37*
G36*
X45500D02*
X45200D01*
Y47150D01*
X45500D01*
Y47450D01*
D02*
G37*
G36*
X46683Y47420D02*
X46417D01*
X46230Y47233D01*
Y46967D01*
X46417Y46780D01*
X46683D01*
X46870Y46967D01*
Y47233D01*
X46683Y47420D01*
D02*
G37*
G36*
X47900Y47050D02*
X47600D01*
Y46750D01*
X47695D01*
X47900Y46955D01*
Y47050D01*
D02*
G37*
G36*
X47500D02*
X47200D01*
Y46955D01*
X47405Y46750D01*
X47500D01*
Y47050D01*
D02*
G37*
G36*
X45900D02*
X45600D01*
Y46750D01*
X45900D01*
Y47050D01*
D02*
G37*
G36*
X45500D02*
X45200D01*
Y46750D01*
X45500D01*
Y47050D01*
D02*
G37*
G36*
X41753Y41646D02*
X41574D01*
Y41144D01*
X42076D01*
Y41323D01*
X41753Y41646D01*
D02*
G37*
G36*
X41474D02*
X41295D01*
X40971Y41323D01*
Y41144D01*
X41474D01*
Y41646D01*
D02*
G37*
G36*
X42076Y41044D02*
X41574D01*
Y40541D01*
X41753D01*
X42076Y40865D01*
Y41044D01*
D02*
G37*
G36*
X41474D02*
X40971D01*
Y40865D01*
X41295Y40541D01*
X41474D01*
Y41044D01*
D02*
G37*
G36*
X44693Y40829D02*
X44260D01*
X43954Y40523D01*
Y40090D01*
X44260Y39784D01*
X44693D01*
X44999Y40090D01*
Y40523D01*
X44693Y40829D01*
D02*
G37*
G36*
X47450Y39950D02*
X47100D01*
Y39550D01*
X47450D01*
Y39950D01*
D02*
G37*
G36*
X47000D02*
X46650D01*
Y39550D01*
X47000D01*
Y39950D01*
D02*
G37*
G36*
X47450Y39450D02*
X47100D01*
Y39050D01*
X47450D01*
Y39450D01*
D02*
G37*
G36*
X47000D02*
X46650D01*
Y39050D01*
X47000D01*
Y39450D01*
D02*
G37*
G36*
X45758Y38403D02*
X45342D01*
X45047Y38108D01*
Y37692D01*
X45342Y37397D01*
X45758D01*
X46053Y37692D01*
Y38108D01*
X45758Y38403D01*
D02*
G37*
G36*
X41227Y38010D02*
X41100D01*
Y37150D01*
X41527D01*
Y37710D01*
X41439Y37922D01*
X41227Y38010D01*
D02*
G37*
G36*
X41000D02*
X40873D01*
X40661Y37922D01*
X40573Y37710D01*
Y37150D01*
X41000D01*
Y38010D01*
D02*
G37*
G36*
X43511Y37978D02*
X43156D01*
X42967Y37899D01*
X42889Y37710D01*
Y36490D01*
X42967Y36301D01*
X43156Y36222D01*
X43511D01*
X43700Y36301D01*
X43778Y36490D01*
Y37710D01*
X43700Y37899D01*
X43511Y37978D01*
D02*
G37*
G36*
X41527Y37050D02*
X41100D01*
Y36190D01*
X41227D01*
X41439Y36278D01*
X41527Y36490D01*
Y37050D01*
D02*
G37*
G36*
X41000D02*
X40573D01*
Y36490D01*
X40661Y36278D01*
X40873Y36190D01*
X41000D01*
Y37050D01*
D02*
G37*
G36*
X45758Y36403D02*
X45342D01*
X45047Y36108D01*
Y35692D01*
X45342Y35397D01*
X45758D01*
X46053Y35692D01*
Y36108D01*
X45758Y36403D01*
D02*
G37*
G36*
X42763Y35687D02*
X42202D01*
Y35260D01*
X43063D01*
Y35387D01*
X42975Y35600D01*
X42763Y35687D01*
D02*
G37*
G36*
X42102D02*
X41542D01*
X41330Y35600D01*
X41242Y35387D01*
Y35260D01*
X42102D01*
Y35687D01*
D02*
G37*
G36*
X43063Y35160D02*
X42202D01*
Y34733D01*
X42763D01*
X42975Y34821D01*
X43063Y35033D01*
Y35160D01*
D02*
G37*
G36*
X42102D02*
X41242D01*
Y35033D01*
X41330Y34821D01*
X41542Y34733D01*
X42102D01*
Y35160D01*
D02*
G37*
G36*
X42982Y33682D02*
X41818D01*
Y32518D01*
X42982D01*
Y33682D01*
D02*
G37*
G36*
X42653Y31712D02*
X42450D01*
Y31150D01*
X43012D01*
Y31353D01*
X42653Y31712D01*
D02*
G37*
G36*
X42350D02*
X42147D01*
X41788Y31353D01*
Y31150D01*
X42350D01*
Y31712D01*
D02*
G37*
G36*
X43012Y31050D02*
X42450D01*
Y30488D01*
X42653D01*
X43012Y30847D01*
Y31050D01*
D02*
G37*
G36*
X42350D02*
X41788D01*
Y30847D01*
X42147Y30488D01*
X42350D01*
Y31050D01*
D02*
G37*
G36*
X65741Y49132D02*
X65259D01*
X64918Y48791D01*
Y48309D01*
X65259Y47968D01*
X65741D01*
X66082Y48309D01*
Y48791D01*
X65741Y49132D01*
D02*
G37*
G36*
X51695Y47450D02*
X51600D01*
Y47150D01*
X51900D01*
Y47245D01*
X51695Y47450D01*
D02*
G37*
G36*
X51500D02*
X51405D01*
X51200Y47245D01*
Y47150D01*
X51500D01*
Y47450D01*
D02*
G37*
G36*
X52683Y47420D02*
X52417D01*
X52230Y47233D01*
Y46967D01*
X52417Y46780D01*
X52683D01*
X52870Y46967D01*
Y47233D01*
X52683Y47420D01*
D02*
G37*
G36*
X50683D02*
X50417D01*
X50230Y47233D01*
Y46967D01*
X50417Y46780D01*
X50683D01*
X50870Y46967D01*
Y47233D01*
X50683Y47420D01*
D02*
G37*
G36*
X49683D02*
X49417D01*
X49230Y47233D01*
Y46967D01*
X49417Y46780D01*
X49683D01*
X49870Y46967D01*
Y47233D01*
X49683Y47420D01*
D02*
G37*
G36*
X51900Y47050D02*
X51600D01*
Y46750D01*
X51695D01*
X51900Y46955D01*
Y47050D01*
D02*
G37*
G36*
X51500D02*
X51200D01*
Y46955D01*
X51405Y46750D01*
X51500D01*
Y47050D01*
D02*
G37*
G36*
X66082Y47132D02*
X64918D01*
Y45968D01*
X66082D01*
Y47132D01*
D02*
G37*
G36*
X66521Y41536D02*
X65680D01*
X65086Y40942D01*
Y40101D01*
X65680Y39506D01*
X66521D01*
X67116Y40101D01*
Y40942D01*
X66521Y41536D01*
D02*
G37*
G36*
X50050Y39950D02*
X49767Y39833D01*
X49650Y39550D01*
Y39450D01*
X49767Y39167D01*
X50050Y39050D01*
X50333Y39167D01*
X50450Y39450D01*
Y39550D01*
X50333Y39833D01*
X50050Y39950D01*
D02*
G37*
G36*
X65704Y38195D02*
X65379D01*
X65201Y38121D01*
X65128Y37943D01*
Y37619D01*
X65201Y37441D01*
X65379Y37367D01*
X65704D01*
X65882Y37441D01*
X65956Y37619D01*
Y37943D01*
X65882Y38121D01*
X65704Y38195D01*
D02*
G37*
G36*
X66823Y37631D02*
X66496D01*
X66265Y37399D01*
Y37072D01*
X66496Y36841D01*
X66823D01*
X67055Y37072D01*
Y37399D01*
X66823Y37631D01*
D02*
G37*
G36*
X65705Y37085D02*
X65378D01*
X65147Y36854D01*
Y36527D01*
X65378Y36296D01*
X65705D01*
X65937Y36527D01*
Y36854D01*
X65705Y37085D01*
D02*
G37*
G36*
X66823Y36540D02*
X66496D01*
X66265Y36309D01*
Y35982D01*
X66496Y35750D01*
X66823D01*
X67055Y35982D01*
Y36309D01*
X66823Y36540D01*
D02*
G37*
G36*
X64262Y36549D02*
X64138D01*
X64051Y36462D01*
Y36338D01*
X64138Y36251D01*
X64165D01*
X64908Y35508D01*
X65000Y35470D01*
X65147D01*
Y35436D01*
X65378Y35205D01*
X65705D01*
X65937Y35436D01*
Y35764D01*
X65705Y35995D01*
X65378D01*
X65147Y35764D01*
Y35730D01*
X65054D01*
X64349Y36435D01*
Y36462D01*
X64262Y36549D01*
D02*
G37*
G36*
X58803Y35987D02*
X57797D01*
Y34981D01*
X58803D01*
Y35987D01*
D02*
G37*
G36*
X66823Y35450D02*
X66496D01*
X66265Y35218D01*
Y34891D01*
X66496Y34660D01*
X66823D01*
X67055Y34891D01*
Y35218D01*
X66823Y35450D01*
D02*
G37*
G36*
X65705Y34904D02*
X65378D01*
X65147Y34673D01*
Y34346D01*
X65378Y34115D01*
X65705D01*
X65937Y34346D01*
Y34673D01*
X65705Y34904D01*
D02*
G37*
G36*
X64912Y34049D02*
X64788D01*
X64701Y33962D01*
Y33935D01*
X64446Y33680D01*
X63480D01*
X63462Y33699D01*
X63338D01*
X63251Y33612D01*
Y33488D01*
X63338Y33401D01*
X63462D01*
X63480Y33420D01*
X64500D01*
X64592Y33458D01*
X64885Y33751D01*
X64912D01*
X64999Y33838D01*
Y33962D01*
X64912Y34049D01*
D02*
G37*
G36*
X66823Y34359D02*
X66496D01*
X66265Y34128D01*
Y33801D01*
X66496Y33569D01*
X66823D01*
X67055Y33801D01*
Y34128D01*
X66823Y34359D01*
D02*
G37*
G36*
X65718Y33844D02*
X65592D01*
Y33469D01*
X65967D01*
Y33595D01*
X65718Y33844D01*
D02*
G37*
G36*
X65492D02*
X65366D01*
X65117Y33595D01*
Y33469D01*
X65492D01*
Y33844D01*
D02*
G37*
G36*
X58508Y34019D02*
X58092D01*
X57797Y33724D01*
Y33307D01*
X58092Y33013D01*
X58508D01*
X58803Y33307D01*
Y33724D01*
X58508Y34019D01*
D02*
G37*
G36*
X65967Y33369D02*
X65592D01*
Y32994D01*
X65718D01*
X65967Y33243D01*
Y33369D01*
D02*
G37*
G36*
X65492D02*
X65117D01*
Y33243D01*
X65366Y32994D01*
X65492D01*
Y33369D01*
D02*
G37*
G36*
X55919Y35191D02*
X55796D01*
X55709Y35104D01*
Y34981D01*
X55796Y34893D01*
X55823D01*
X55869Y34847D01*
X55848Y34797D01*
X55790D01*
X55703Y34710D01*
Y34587D01*
X55722Y34568D01*
Y30832D01*
X55703Y30813D01*
Y30690D01*
X55790Y30603D01*
X55913D01*
X56000Y30690D01*
Y30813D01*
X55981Y30832D01*
Y34568D01*
X56000Y34587D01*
Y34645D01*
X56050Y34666D01*
X56470Y34246D01*
Y32980D01*
X56451Y32962D01*
Y32838D01*
X56538Y32751D01*
X56662D01*
X56749Y32838D01*
Y32962D01*
X56730Y32980D01*
Y34300D01*
X56692Y34392D01*
X56007Y35077D01*
Y35104D01*
X55919Y35191D01*
D02*
G37*
G36*
X53358Y37945D02*
X53235D01*
X53148Y37858D01*
Y37735D01*
X53167Y37716D01*
Y32534D01*
X53148Y32515D01*
Y32392D01*
X53235Y32305D01*
X53358D01*
X53445Y32392D01*
Y32515D01*
X53426Y32534D01*
Y37716D01*
X53445Y37735D01*
Y37858D01*
X53358Y37945D01*
D02*
G37*
G36*
X55307Y32303D02*
X55184D01*
X55097Y32216D01*
Y32093D01*
X55115Y32074D01*
Y31649D01*
X54915Y31449D01*
X54888D01*
X54801Y31362D01*
Y31238D01*
X54888Y31151D01*
X55012D01*
X55099Y31238D01*
Y31265D01*
X55337Y31503D01*
X55375Y31595D01*
Y32074D01*
X55394Y32093D01*
Y32216D01*
X55307Y32303D01*
D02*
G37*
G36*
X51700Y31014D02*
Y30500D01*
X52110D01*
Y30575D01*
X51975Y30900D01*
X51700Y31014D01*
D02*
G37*
G36*
X51600D02*
X51325Y30900D01*
X51190Y30575D01*
Y30500D01*
X51600D01*
Y31014D01*
D02*
G37*
G36*
X51045Y30970D02*
X50255D01*
Y29930D01*
X51045D01*
Y30970D01*
D02*
G37*
G36*
X53712Y33049D02*
X53588D01*
X53501Y32962D01*
Y32838D01*
X53520Y32820D01*
Y30949D01*
X53348Y30877D01*
X53222Y30575D01*
Y30325D01*
X53348Y30023D01*
X53650Y29897D01*
X53952Y30023D01*
X54078Y30325D01*
Y30575D01*
X53952Y30877D01*
X53780Y30949D01*
Y32820D01*
X53799Y32838D01*
Y32962D01*
X53712Y33049D01*
D02*
G37*
G36*
X52662Y33099D02*
X52538D01*
X52451Y33012D01*
Y32888D01*
X52481Y32859D01*
Y30933D01*
X52348Y30877D01*
X52222Y30575D01*
Y30325D01*
X52348Y30023D01*
X52650Y29897D01*
X52952Y30023D01*
X53078Y30325D01*
Y30575D01*
X52952Y30877D01*
X52741Y30965D01*
Y32881D01*
X52749Y32888D01*
Y33012D01*
X52662Y33099D01*
D02*
G37*
G36*
X52110Y30400D02*
X51700D01*
Y29886D01*
X51975Y30000D01*
X52110Y30325D01*
Y30400D01*
D02*
G37*
G36*
X51600D02*
X51190D01*
Y30325D01*
X51325Y30000D01*
X51600Y29886D01*
Y30400D01*
D02*
G37*
G36*
X66521Y31694D02*
X65680D01*
X65086Y31099D01*
Y30258D01*
X65680Y29664D01*
X66521D01*
X67116Y30258D01*
Y31099D01*
X66521Y31694D01*
D02*
G37*
%LPD*%
D12*
X56600Y32900D02*
Y34300D01*
X55858Y35042D02*
X56600Y34300D01*
X64500Y33550D02*
X64850Y33900D01*
X63400Y33550D02*
X64500D01*
X54950Y31300D02*
X55245Y31595D01*
Y32155D01*
X55852Y30752D02*
Y34648D01*
X65000Y35600D02*
X65542D01*
X64200Y36400D02*
X65000Y35600D01*
X52611Y30489D02*
Y32939D01*
X52600Y32950D02*
X52611Y32939D01*
Y30489D02*
X52650Y30450D01*
X53650D02*
Y32900D01*
X53296Y32454D02*
Y37796D01*
D45*
X52550Y47100D02*
D03*
X51550D02*
D03*
X50550D02*
D03*
X49550D02*
D03*
X47550D02*
D03*
X46550D02*
D03*
D46*
X45550D02*
D03*
D54*
X47973Y39423D02*
X48050Y39500D01*
X47950Y32950D02*
Y39133D01*
X46600Y31600D02*
X47950Y32950D01*
Y39133D02*
X47973Y39156D01*
Y39423D01*
X46000Y31600D02*
X46600D01*
D56*
X66101Y40521D02*
D03*
Y30679D02*
D03*
D57*
X66660Y33964D02*
D03*
Y35055D02*
D03*
Y36145D02*
D03*
Y37236D02*
D03*
X65542Y36691D02*
D03*
Y33419D02*
D03*
Y34509D02*
D03*
Y35600D02*
D03*
D58*
Y37781D02*
D03*
D59*
X53650Y30450D02*
D03*
X52650D02*
D03*
X51650D02*
D03*
D60*
X50650D02*
D03*
D61*
X65500Y48550D02*
D03*
X42400Y31100D02*
D03*
D62*
X65500Y46550D02*
D03*
X42400Y33100D02*
D03*
D63*
X43333Y37100D02*
D03*
X41050D02*
D03*
D64*
X42152Y35210D02*
D03*
D65*
X44476Y40306D02*
D03*
X41524Y41094D02*
D03*
D66*
X45550Y37900D02*
D03*
Y35900D02*
D03*
X58300Y33516D02*
D03*
D67*
Y35484D02*
D03*
D68*
X47050Y39500D02*
D03*
D69*
X48050D02*
D03*
X49050D02*
D03*
X50050D02*
D03*
D70*
X44200Y46650D02*
D03*
X44100Y42750D02*
D03*
X57850Y39400D02*
D03*
X59800Y34500D02*
D03*
X64150Y34200D02*
D03*
X52400Y35950D02*
D03*
X47300Y35200D02*
D03*
X38550Y35150D02*
D03*
X47550Y29850D02*
D03*
X38550Y29800D02*
D03*
Y49500D02*
D03*
X47550Y49550D02*
D03*
X54900Y29900D02*
D03*
X68750Y29950D02*
D03*
X63050Y30000D02*
D03*
X68650Y39250D02*
D03*
X62950Y39300D02*
D03*
X68650Y41300D02*
D03*
X62950Y41350D02*
D03*
X54800D02*
D03*
X49800D02*
D03*
X62950Y49600D02*
D03*
X54800D02*
D03*
X49800D02*
D03*
Y43400D02*
D03*
X54800D02*
D03*
X62950D02*
D03*
X68650Y43350D02*
D03*
X46000Y31600D02*
D03*
X56600Y32900D02*
D03*
X54950Y31300D02*
D03*
X55245Y32155D02*
D03*
X55852Y30752D02*
D03*
X55858Y35042D02*
D03*
X55852Y34648D02*
D03*
X64850Y33900D02*
D03*
X63400Y33550D02*
D03*
X64200Y36400D02*
D03*
X52600Y32950D02*
D03*
X53650Y32900D02*
D03*
X53296Y37796D02*
D03*
Y32454D02*
D03*
M02*
