G04*
G04 #@! TF.GenerationSoftware,Altium Limited,Altium Designer,24.1.2 (44)*
G04*
G04 Layer_Color=255*
%FSLAX24Y24*%
%MOIN*%
G70*
G04*
G04 #@! TF.SameCoordinates,E58B8CFC-B59F-40A7-A0C9-9F9E0F661D6A*
G04*
G04*
G04 #@! TF.FilePolarity,Positive*
G04*
G01*
G75*
%ADD45C,0.0500*%
%ADD46R,0.0500X0.0500*%
%ADD56C,0.1890*%
%ADD57C,0.0650*%
G04:AMPARAMS|DCode=58|XSize=65mil|YSize=65mil|CornerRadius=16.2mil|HoleSize=0mil|Usage=FLASHONLY|Rotation=90.000|XOffset=0mil|YOffset=0mil|HoleType=Round|Shape=RoundedRectangle|*
%AMROUNDEDRECTD58*
21,1,0.0650,0.0325,0,0,90.0*
21,1,0.0325,0.0650,0,0,90.0*
1,1,0.0325,0.0162,0.0162*
1,1,0.0325,0.0162,-0.0162*
1,1,0.0325,-0.0162,-0.0162*
1,1,0.0325,-0.0162,0.0162*
%
%ADD58ROUNDEDRECTD58*%
%ADD59O,0.0650X0.0900*%
%ADD60R,0.0650X0.0900*%
%ADD61C,0.1024*%
%ADD62R,0.1024X0.1024*%
G04:AMPARAMS|DCode=63|XSize=157.5mil|YSize=70.9mil|CornerRadius=17.7mil|HoleSize=0mil|Usage=FLASHONLY|Rotation=90.000|XOffset=0mil|YOffset=0mil|HoleType=Round|Shape=RoundedRectangle|*
%AMROUNDEDRECTD63*
21,1,0.1575,0.0354,0,0,90.0*
21,1,0.1220,0.0709,0,0,90.0*
1,1,0.0354,0.0177,0.0610*
1,1,0.0354,0.0177,-0.0610*
1,1,0.0354,-0.0177,-0.0610*
1,1,0.0354,-0.0177,0.0610*
%
%ADD63ROUNDEDRECTD63*%
G04:AMPARAMS|DCode=64|XSize=157.5mil|YSize=70.9mil|CornerRadius=17.7mil|HoleSize=0mil|Usage=FLASHONLY|Rotation=180.000|XOffset=0mil|YOffset=0mil|HoleType=Round|Shape=RoundedRectangle|*
%AMROUNDEDRECTD64*
21,1,0.1575,0.0354,0,0,180.0*
21,1,0.1220,0.0709,0,0,180.0*
1,1,0.0354,-0.0610,0.0177*
1,1,0.0354,0.0610,0.0177*
1,1,0.0354,0.0610,-0.0177*
1,1,0.0354,-0.0610,-0.0177*
%
%ADD64ROUNDEDRECTD64*%
%ADD65C,0.0906*%
%ADD66C,0.0866*%
%ADD67R,0.0866X0.0866*%
%ADD68R,0.0600X0.0700*%
%ADD69O,0.0600X0.0700*%
D45*
X52550Y47100D02*
D03*
X51550D02*
D03*
X50550D02*
D03*
X49550D02*
D03*
X47550D02*
D03*
X46550D02*
D03*
D46*
X45550D02*
D03*
D56*
X66101Y40521D02*
D03*
Y30679D02*
D03*
D57*
X66660Y33964D02*
D03*
Y35055D02*
D03*
Y36145D02*
D03*
Y37236D02*
D03*
X65542Y36691D02*
D03*
Y33419D02*
D03*
Y34509D02*
D03*
Y35600D02*
D03*
D58*
Y37781D02*
D03*
D59*
X53650Y30450D02*
D03*
X52650D02*
D03*
X51650D02*
D03*
D60*
X50650D02*
D03*
D61*
X65500Y48550D02*
D03*
X42400Y31100D02*
D03*
D62*
X65500Y46550D02*
D03*
X42400Y33100D02*
D03*
D63*
X43333Y37100D02*
D03*
X41050D02*
D03*
D64*
X42152Y35210D02*
D03*
D65*
X44476Y40306D02*
D03*
X41524Y41094D02*
D03*
D66*
X45550Y37900D02*
D03*
Y35900D02*
D03*
X58300Y33516D02*
D03*
D67*
Y35484D02*
D03*
D68*
X47050Y39500D02*
D03*
D69*
X48050D02*
D03*
X49050D02*
D03*
X50050D02*
D03*
M02*
